<?xml version="1.0" encoding="UTF-8" standalone="no"?>
<!DOCTYPE svg PUBLIC "-//W3C//DTD SVG 1.1//EN" "http://www.w3.org/Graphics/SVG/1.1/DTD/svg11.dtd">
<svg width="100%" height="100%" viewBox="0 0 4266 4266" version="1.1" xmlns="http://www.w3.org/2000/svg" xmlns:xlink="http://www.w3.org/1999/xlink" xml:space="preserve" xmlns:serif="http://www.serif.com/" style="fill-rule:evenodd;clip-rule:evenodd;stroke-linejoin:round;stroke-miterlimit:2;">
    <g id="Look-Away-Icon" serif:id="Look Away Icon" transform="matrix(0.875573,0,0,0.871749,701.53,727.099)">
        <g>
            <g transform="matrix(1.14211,0,0,1.14712,-801.224,-834.069)">
                <path d="M889.608,1807.41C875.222,1855.17 903.994,1905.75 954.363,1916.99L1197.89,1977.87C1248.26,1989.11 1294.28,1968.03 1308.67,1918.88C1321.66,1873.9 1292.85,1824.75 1243.91,1812.09L1000.46,1746.99C948.623,1732.98 902.559,1762.44 889.608,1807.41Z" style="fill:rgb(37,222,173);fill-rule:nonzero;stroke:white;stroke-width:1px;"/>
            </g>
            <g transform="matrix(1.14211,0,0,1.14712,-801.224,-834.069)">
                <path d="M839.239,2133.35C839.239,2186.75 880.998,2227.48 935.672,2227.48L1489.7,2227.48C1544.37,2227.48 1586.1,2186.75 1586.1,2133.35C1586.1,2079.96 1544.37,2039.22 1489.7,2039.22L935.672,2039.22C880.998,2039.22 839.239,2079.96 839.239,2133.35Z" style="fill:rgb(37,222,173);fill-rule:nonzero;stroke:white;stroke-width:1px;"/>
            </g>
            <g transform="matrix(1.14211,0,0,1.14712,-801.224,-834.069)">
                <path d="M889.608,2459.29C901.16,2504.23 952.928,2536.54 998.993,2522.53L1204.99,2464.6C1255.36,2450.55 1284.13,2408.39 1271.18,2360.63C1258.23,2312.87 1209.3,2284.76 1160.36,2297.43L954.363,2352.53C901.16,2366.55 878.092,2411.53 889.608,2459.29Z" style="fill:rgb(37,222,173);fill-rule:nonzero;stroke:white;stroke-width:1px;"/>
            </g>
            <g transform="matrix(1.14211,0,0,1.14712,-801.224,-834.069)">
                <path d="M1013.38,2765.57C1039.28,2811.94 1096.86,2825.99 1144.36,2799.28L1623.77,2527.84C1671.26,2501.13 1687.09,2444.95 1659.75,2400.01C1632.41,2353.6 1574.83,2338.16 1525.9,2364.87L1047.93,2636.31C1000.46,2663.02 986.042,2719.2 1013.38,2765.57Z" style="fill:rgb(37,222,173);fill-rule:nonzero;stroke:white;stroke-width:1px;"/>
            </g>
            <g transform="matrix(1.14211,0,0,1.14712,-801.224,-834.069)">
                <path d="M1223.54,3022.67C1258.05,3056.41 1317.07,3059.19 1350.18,3024.09L1500.07,2872.54C1534.61,2837.44 1537.48,2785.44 1501.5,2750.3C1466.95,2716.6 1410.84,2715.21 1374.86,2750.3L1223.54,2899.04C1186.12,2935.56 1187.52,2987.53 1223.54,3022.67Z" style="fill:rgb(37,222,173);fill-rule:nonzero;stroke:white;stroke-width:1px;"/>
            </g>
            <g transform="matrix(1.14211,0,0,1.14712,-801.224,-834.069)">
                <path d="M1486.9,3227.79C1532.96,3254.51 1590.54,3239.03 1617.88,3192.66L1894.88,2722.88C1922.21,2676.51 1906.39,2620.33 1860.36,2593.65C1812.83,2566.93 1755.29,2582.38 1726.51,2628.75L1450.92,3098.53C1423.58,3144.9 1439.4,3201.08 1486.9,3227.79Z" style="fill:rgb(37,222,173);fill-rule:nonzero;stroke:white;stroke-width:1px;"/>
            </g>
            <g transform="matrix(1.14211,0,0,1.14712,-801.224,-834.069)">
                <path d="M1799.23,3348.6C1845.3,3362.66 1897.1,3333.16 1910.05,3286.82L1964.69,3082.98C1977.64,3035.22 1951.74,2988.85 1901.33,2974.8C1853.87,2962.14 1807.81,2988.85 1793.42,3038L1737.35,3240.42C1722.92,3289.61 1751.73,3334.58 1799.23,3348.6Z" style="fill:rgb(37,222,173);fill-rule:nonzero;stroke:white;stroke-width:1px;"/>
            </g>
            <g transform="matrix(1.14211,0,0,1.14712,-801.224,-834.069)">
                <path d="M2133.13,3396.36C2187.84,3396.36 2229.56,3355.63 2229.56,3302.27L2229.56,2759.33C2229.56,2705.97 2187.84,2665.24 2133.13,2665.24C2078.45,2665.24 2036.69,2705.97 2036.69,2759.33L2036.69,3302.27C2036.69,3355.63 2078.45,3396.36 2133.13,3396.36Z" style="fill:rgb(37,222,173);fill-rule:nonzero;stroke:white;stroke-width:1px;"/>
            </g>
            <g transform="matrix(1.14211,0,0,1.14712,-801.224,-834.069)">
                <path d="M2465.62,3345.78C2511.65,3333.16 2546.2,3286.82 2530.38,3237.64L2471.4,3039.43C2455.58,2990.24 2413.85,2959.36 2364.88,2974.8C2318.85,2988.85 2285.74,3035.22 2298.69,3078.74L2356.24,3285.4C2370.62,3335.97 2416.69,3359.87 2465.62,3345.78Z" style="fill:rgb(37,222,173);fill-rule:nonzero;stroke:white;stroke-width:1px;"/>
            </g>
            <g transform="matrix(1.14211,0,0,1.14712,-801.224,-834.069)">
                <path d="M2780.79,3226.4C2828.29,3201.08 2842.71,3144.9 2815.34,3098.53L2538.34,2628.75C2510.97,2582.38 2453.42,2566.93 2407.36,2593.65C2359.89,2620.33 2344,2676.51 2371.38,2722.88L2648.37,3192.66C2675.74,3239.03 2733.32,3253.08 2780.79,3226.4Z" style="fill:rgb(37,222,173);fill-rule:nonzero;stroke:white;stroke-width:1px;"/>
            </g>
            <g transform="matrix(1.14211,0,0,1.14712,-801.224,-834.069)">
                <path d="M3044.18,3019.85C3077.3,2986.14 3083.04,2931.36 3044.18,2896.22L2889.96,2751.73C2852.54,2716.6 2800.73,2715.21 2764.75,2750.3C2731.67,2782.62 2730.2,2838.83 2764.75,2872.54L2914.64,3021.28C2953.53,3059.19 3008.2,3056.41 3044.18,3019.85Z" style="fill:rgb(37,222,173);fill-rule:nonzero;stroke:white;stroke-width:1px;"/>
            </g>
            <g transform="matrix(1.14211,0,0,1.14712,-801.224,-834.069)">
                <path d="M3254.31,2764.18C3281.64,2719.2 3265.82,2663.02 3218.33,2636.31L2738.96,2364.87C2691.42,2338.16 2633.84,2353.6 2606.54,2398.58C2579.17,2444.95 2594.99,2501.13 2642.49,2527.84L3121.89,2799.28C3169.39,2825.99 3226.97,2810.55 3254.31,2764.18Z" style="fill:rgb(37,222,173);fill-rule:nonzero;stroke:white;stroke-width:1px;"/>
            </g>
            <g transform="matrix(1.14211,0,0,1.14712,-801.224,-834.069)">
                <path d="M3375.21,2457.9C3385.29,2414.35 3362.26,2360.95 3311.89,2349.71L3068.4,2290.22C3018,2279.02 2971.97,2301.49 2957.55,2350.64C2944.63,2394.19 2971.97,2443.38 3019.47,2456.04L3265.82,2521.1C3317.63,2535.19 3363.73,2507.05 3375.21,2457.9Z" style="fill:rgb(37,222,173);fill-rule:nonzero;stroke:white;stroke-width:1px;"/>
            </g>
            <g transform="matrix(1.14211,0,0,1.14712,-801.224,-834.069)">
                <path d="M3427.01,2133.35C3427.01,2079.96 3385.29,2039.22 3330.58,2039.22L2776.59,2039.22C2721.91,2039.22 2680.16,2079.96 2680.16,2133.35C2680.16,2186.75 2721.91,2227.48 2776.59,2227.48L3330.58,2227.48C3385.29,2227.48 3427.01,2186.75 3427.01,2133.35Z" style="fill:rgb(37,222,173);fill-rule:nonzero;stroke:white;stroke-width:1px;"/>
            </g>
            <g transform="matrix(1.14211,0,0,1.14712,-801.224,-834.069)">
                <path d="M3375.21,1807.41C3362.26,1762.44 3313.32,1731.55 3265.82,1745.6L3059.83,1803.53C3010.93,1817.55 2982.12,1861.13 2995.07,1908.89C3008.02,1955.22 3056.96,1983.33 3105.93,1970.7L3310.45,1916.99C3363.73,1902.93 3389.59,1855.17 3375.21,1807.41Z" style="fill:rgb(37,222,173);fill-rule:nonzero;stroke:white;stroke-width:1px;"/>
            </g>
            <g transform="matrix(1.14211,0,0,1.14712,-801.224,-834.069)">
                <path d="M3252.87,1501.13C3225.54,1454.8 3169.39,1440.75 3121.89,1467.43L2642.49,1738.9C2594.99,1765.54 2579.17,1821.75 2607.94,1868.12C2633.84,1913.07 2691.42,1928.55 2738.96,1901.87L3218.33,1630.39C3265.82,1603.68 3280.21,1546.11 3252.87,1501.13Z" style="fill:rgb(37,222,173);fill-rule:nonzero;stroke:white;stroke-width:1px;"/>
            </g>
            <g transform="matrix(1.14211,0,0,1.14712,-801.224,-834.069)">
                <path d="M3041.32,1246.85C3006.77,1213.11 2949.19,1210.33 2916.07,1245.43L2766.18,1396.98C2731.67,1432.12 2728.77,1484.08 2764.75,1519.22C2799.26,1552.92 2853.97,1552.92 2889.96,1519.22L3042.75,1370.48C3080.13,1333.92 3078.73,1283.38 3041.32,1246.85Z" style="fill:rgb(37,222,173);fill-rule:nonzero;stroke:white;stroke-width:1px;"/>
            </g>
            <g transform="matrix(1.14211,0,0,1.14712,-801.224,-834.069)">
                <path d="M2779.35,1038.94C2731.85,1012.23 2675.74,1027.67 2648.37,1074.04L2371.38,1543.83C2344,1590.2 2358.42,1646.37 2407.36,1673.09C2453.42,1698.38 2510.97,1684.33 2538.34,1637.96L2815.34,1168.17C2842.71,1121.8 2825.42,1065.59 2779.35,1038.94Z" style="fill:rgb(37,222,173);fill-rule:nonzero;stroke:white;stroke-width:1px;"/>
            </g>
            <g transform="matrix(1.14211,0,0,1.14712,-801.224,-834.069)">
                <path d="M2465.62,920.919C2419.52,908.256 2369.15,936.363 2356.24,982.696L2301.56,1186.54C2288.65,1234.34 2314.55,1280.67 2364.88,1294.72C2412.42,1307.38 2458.45,1280.67 2472.87,1231.52L2528.94,1029.1C2543.29,979.914 2514.55,934.936 2465.62,920.919Z" style="fill:rgb(37,222,173);fill-rule:nonzero;stroke:white;stroke-width:1px;"/>
            </g>
            <g transform="matrix(1.14211,0,0,1.14712,-801.224,-834.069)">
                <path d="M2133.13,870.305C2078.45,870.305 2036.69,911.074 2036.69,964.469L2036.69,1507.34C2036.69,1560.77 2078.45,1601.5 2133.13,1601.5C2187.84,1601.5 2229.56,1560.77 2229.56,1507.34L2229.56,964.469C2229.56,911.074 2187.84,870.305 2133.13,870.305Z" style="fill:rgb(37,222,173);fill-rule:nonzero;stroke:white;stroke-width:1px;"/>
            </g>
        </g>
        <g transform="matrix(0.563415,-0.997826,0.993468,0.565886,-1699.97,2529.3)">
            <path d="M2135.78,548.069C2081.1,548.069 2039.34,588.837 2039.34,642.232L2036.69,1507.34C2036.69,1560.77 2078.45,1601.5 2133.13,1601.5C2187.84,1601.5 2229.56,1560.77 2229.56,1507.34L2232.21,642.232C2232.21,588.837 2190.49,548.069 2135.78,548.069Z" style="fill:rgb(37,222,173);fill-rule:nonzero;"/>
        </g>
    </g>
</svg>
