<?xml version="1.0" encoding="UTF-8"?>
<!--Generator: Apple Native CoreSVG 341-->
<!DOCTYPE svg
PUBLIC "-//W3C//DTD SVG 1.1//EN"
       "http://www.w3.org/Graphics/SVG/1.1/DTD/svg11.dtd">
<svg version="1.1" xmlns="http://www.w3.org/2000/svg" xmlns:xlink="http://www.w3.org/1999/xlink" viewBox="0 0 3300 2200">
 <!--glyph: "", point size: 100.0, font version: "20.0d10e1", template writer version: "138.0.0"-->
 <style>.defaults {-sfsymbols-vc-continuous:true}

.monochrome-0 {-sfsymbols-motion-group:1;-sfsymbols-layer-tags:3ce7fd5934320360}
.monochrome-1 {-sfsymbols-variable-threshold:0.97;-sfsymbols-motion-group:0;-sfsymbols-layer-tags:3ce7fd5934320360}
.monochrome-2 {-sfsymbols-variable-threshold:0.93;-sfsymbols-motion-group:0;-sfsymbols-layer-tags:3ce7fd5934320360}
.monochrome-3 {-sfsymbols-variable-threshold:0.89;-sfsymbols-motion-group:0;-sfsymbols-layer-tags:3ce7fd5934320360}
.monochrome-4 {-sfsymbols-variable-threshold:0.84;-sfsymbols-motion-group:0;-sfsymbols-layer-tags:3ce7fd5934320360}
.monochrome-5 {-sfsymbols-variable-threshold:0.8;-sfsymbols-motion-group:0;-sfsymbols-layer-tags:3ce7fd5934320360}
.monochrome-6 {-sfsymbols-variable-threshold:0.76;-sfsymbols-motion-group:0;-sfsymbols-layer-tags:3ce7fd5934320360}
.monochrome-7 {-sfsymbols-variable-threshold:0.72;-sfsymbols-motion-group:0;-sfsymbols-layer-tags:3ce7fd5934320360}
.monochrome-8 {-sfsymbols-variable-threshold:0.68;-sfsymbols-motion-group:0;-sfsymbols-layer-tags:3ce7fd5934320360}
.monochrome-9 {-sfsymbols-variable-threshold:0.64;-sfsymbols-motion-group:0;-sfsymbols-layer-tags:3ce7fd5934320360}
.monochrome-10 {-sfsymbols-variable-threshold:0.59;-sfsymbols-motion-group:0;-sfsymbols-layer-tags:3ce7fd5934320360}
.monochrome-11 {-sfsymbols-variable-threshold:0.55;-sfsymbols-motion-group:0;-sfsymbols-layer-tags:3ce7fd5934320360}
.monochrome-12 {-sfsymbols-variable-threshold:0.51;-sfsymbols-motion-group:0;-sfsymbols-layer-tags:3ce7fd5934320360}
.monochrome-13 {-sfsymbols-variable-threshold:0.47;-sfsymbols-motion-group:0;-sfsymbols-layer-tags:3ce7fd5934320360}
.monochrome-14 {-sfsymbols-variable-threshold:0.43;-sfsymbols-motion-group:0;-sfsymbols-layer-tags:3ce7fd5934320360}
.monochrome-15 {-sfsymbols-variable-threshold:0.39;-sfsymbols-motion-group:0;-sfsymbols-layer-tags:3ce7fd5934320360}
.monochrome-16 {-sfsymbols-variable-threshold:0.34;-sfsymbols-motion-group:0;-sfsymbols-layer-tags:3ce7fd5934320360}
.monochrome-17 {-sfsymbols-variable-threshold:0.3;-sfsymbols-motion-group:0;-sfsymbols-layer-tags:3ce7fd5934320360}
.monochrome-18 {-sfsymbols-variable-threshold:0.26;-sfsymbols-motion-group:0;-sfsymbols-layer-tags:3ce7fd5934320360}
.monochrome-19 {-sfsymbols-variable-threshold:0.22;-sfsymbols-motion-group:0;-sfsymbols-layer-tags:3ce7fd5934320360}
.monochrome-20 {-sfsymbols-variable-threshold:0.18;-sfsymbols-motion-group:0;-sfsymbols-layer-tags:3ce7fd5934320360}
.monochrome-21 {-sfsymbols-variable-threshold:0.14;-sfsymbols-motion-group:0;-sfsymbols-layer-tags:3ce7fd5934320360}
.monochrome-22 {-sfsymbols-variable-threshold:0.09;-sfsymbols-motion-group:0;-sfsymbols-layer-tags:3ce7fd5934320360}
.monochrome-23 {-sfsymbols-variable-threshold:0.05;-sfsymbols-motion-group:0;-sfsymbols-layer-tags:3ce7fd5934320360}
.monochrome-24 {-sfsymbols-variable-threshold:0.0;-sfsymbols-motion-group:0;-sfsymbols-layer-tags:3ce7fd5934320360}

.multicolor-0:labelColor {-sfsymbols-motion-group:1;-sfsymbols-layer-tags:3ce7fd5934320360}
.multicolor-1:tintColor {-sfsymbols-variable-threshold:0.97;-sfsymbols-motion-group:0;-sfsymbols-layer-tags:3ce7fd5934320360}
.multicolor-2:tintColor {-sfsymbols-variable-threshold:0.93;-sfsymbols-motion-group:0;-sfsymbols-layer-tags:3ce7fd5934320360}
.multicolor-3:tintColor {-sfsymbols-variable-threshold:0.89;-sfsymbols-motion-group:0;-sfsymbols-layer-tags:3ce7fd5934320360}
.multicolor-4:tintColor {-sfsymbols-variable-threshold:0.84;-sfsymbols-motion-group:0;-sfsymbols-layer-tags:3ce7fd5934320360}
.multicolor-5:tintColor {-sfsymbols-variable-threshold:0.8;-sfsymbols-motion-group:0;-sfsymbols-layer-tags:3ce7fd5934320360}
.multicolor-6:tintColor {-sfsymbols-variable-threshold:0.76;-sfsymbols-motion-group:0;-sfsymbols-layer-tags:3ce7fd5934320360}
.multicolor-7:tintColor {-sfsymbols-variable-threshold:0.72;-sfsymbols-motion-group:0;-sfsymbols-layer-tags:3ce7fd5934320360}
.multicolor-8:tintColor {-sfsymbols-variable-threshold:0.68;-sfsymbols-motion-group:0;-sfsymbols-layer-tags:3ce7fd5934320360}
.multicolor-9:tintColor {-sfsymbols-variable-threshold:0.64;-sfsymbols-motion-group:0;-sfsymbols-layer-tags:3ce7fd5934320360}
.multicolor-10:tintColor {-sfsymbols-variable-threshold:0.59;-sfsymbols-motion-group:0;-sfsymbols-layer-tags:3ce7fd5934320360}
.multicolor-11:tintColor {-sfsymbols-variable-threshold:0.55;-sfsymbols-motion-group:0;-sfsymbols-layer-tags:3ce7fd5934320360}
.multicolor-12:tintColor {-sfsymbols-variable-threshold:0.51;-sfsymbols-motion-group:0;-sfsymbols-layer-tags:3ce7fd5934320360}
.multicolor-13:tintColor {-sfsymbols-variable-threshold:0.47;-sfsymbols-motion-group:0;-sfsymbols-layer-tags:3ce7fd5934320360}
.multicolor-14:tintColor {-sfsymbols-variable-threshold:0.43;-sfsymbols-motion-group:0;-sfsymbols-layer-tags:3ce7fd5934320360}
.multicolor-15:tintColor {-sfsymbols-variable-threshold:0.39;-sfsymbols-motion-group:0;-sfsymbols-layer-tags:3ce7fd5934320360}
.multicolor-16:tintColor {-sfsymbols-variable-threshold:0.34;-sfsymbols-motion-group:0;-sfsymbols-layer-tags:3ce7fd5934320360}
.multicolor-17:tintColor {-sfsymbols-variable-threshold:0.3;-sfsymbols-motion-group:0;-sfsymbols-layer-tags:3ce7fd5934320360}
.multicolor-18:tintColor {-sfsymbols-variable-threshold:0.26;-sfsymbols-motion-group:0;-sfsymbols-layer-tags:3ce7fd5934320360}
.multicolor-19:tintColor {-sfsymbols-variable-threshold:0.22;-sfsymbols-motion-group:0;-sfsymbols-layer-tags:3ce7fd5934320360}
.multicolor-20:tintColor {-sfsymbols-variable-threshold:0.18;-sfsymbols-motion-group:0;-sfsymbols-layer-tags:3ce7fd5934320360}
.multicolor-21:tintColor {-sfsymbols-variable-threshold:0.14;-sfsymbols-motion-group:0;-sfsymbols-layer-tags:3ce7fd5934320360}
.multicolor-22:tintColor {-sfsymbols-variable-threshold:0.09;-sfsymbols-motion-group:0;-sfsymbols-layer-tags:3ce7fd5934320360}
.multicolor-23:tintColor {-sfsymbols-variable-threshold:0.05;-sfsymbols-motion-group:0;-sfsymbols-layer-tags:3ce7fd5934320360}
.multicolor-24:tintColor {-sfsymbols-variable-threshold:0.0;-sfsymbols-motion-group:0;-sfsymbols-layer-tags:3ce7fd5934320360}

.hierarchical-0:secondary {-sfsymbols-motion-group:1;-sfsymbols-layer-tags:3ce7fd5934320360}
.hierarchical-1:primary {-sfsymbols-variable-threshold:0.97;-sfsymbols-motion-group:0;-sfsymbols-layer-tags:3ce7fd5934320360}
.hierarchical-2:primary {-sfsymbols-variable-threshold:0.93;-sfsymbols-motion-group:0;-sfsymbols-layer-tags:3ce7fd5934320360}
.hierarchical-3:primary {-sfsymbols-variable-threshold:0.89;-sfsymbols-motion-group:0;-sfsymbols-layer-tags:3ce7fd5934320360}
.hierarchical-4:primary {-sfsymbols-variable-threshold:0.84;-sfsymbols-motion-group:0;-sfsymbols-layer-tags:3ce7fd5934320360}
.hierarchical-5:primary {-sfsymbols-variable-threshold:0.8;-sfsymbols-motion-group:0;-sfsymbols-layer-tags:3ce7fd5934320360}
.hierarchical-6:primary {-sfsymbols-variable-threshold:0.76;-sfsymbols-motion-group:0;-sfsymbols-layer-tags:3ce7fd5934320360}
.hierarchical-7:primary {-sfsymbols-variable-threshold:0.72;-sfsymbols-motion-group:0;-sfsymbols-layer-tags:3ce7fd5934320360}
.hierarchical-8:primary {-sfsymbols-variable-threshold:0.68;-sfsymbols-motion-group:0;-sfsymbols-layer-tags:3ce7fd5934320360}
.hierarchical-9:primary {-sfsymbols-variable-threshold:0.64;-sfsymbols-motion-group:0;-sfsymbols-layer-tags:3ce7fd5934320360}
.hierarchical-10:primary {-sfsymbols-variable-threshold:0.59;-sfsymbols-motion-group:0;-sfsymbols-layer-tags:3ce7fd5934320360}
.hierarchical-11:primary {-sfsymbols-variable-threshold:0.55;-sfsymbols-motion-group:0;-sfsymbols-layer-tags:3ce7fd5934320360}
.hierarchical-12:primary {-sfsymbols-variable-threshold:0.51;-sfsymbols-motion-group:0;-sfsymbols-layer-tags:3ce7fd5934320360}
.hierarchical-13:primary {-sfsymbols-variable-threshold:0.47;-sfsymbols-motion-group:0;-sfsymbols-layer-tags:3ce7fd5934320360}
.hierarchical-14:primary {-sfsymbols-variable-threshold:0.43;-sfsymbols-motion-group:0;-sfsymbols-layer-tags:3ce7fd5934320360}
.hierarchical-15:primary {-sfsymbols-variable-threshold:0.39;-sfsymbols-motion-group:0;-sfsymbols-layer-tags:3ce7fd5934320360}
.hierarchical-16:primary {-sfsymbols-variable-threshold:0.34;-sfsymbols-motion-group:0;-sfsymbols-layer-tags:3ce7fd5934320360}
.hierarchical-17:primary {-sfsymbols-variable-threshold:0.3;-sfsymbols-motion-group:0;-sfsymbols-layer-tags:3ce7fd5934320360}
.hierarchical-18:primary {-sfsymbols-variable-threshold:0.26;-sfsymbols-motion-group:0;-sfsymbols-layer-tags:3ce7fd5934320360}
.hierarchical-19:primary {-sfsymbols-variable-threshold:0.22;-sfsymbols-motion-group:0;-sfsymbols-layer-tags:3ce7fd5934320360}
.hierarchical-20:primary {-sfsymbols-variable-threshold:0.18;-sfsymbols-motion-group:0;-sfsymbols-layer-tags:3ce7fd5934320360}
.hierarchical-21:primary {-sfsymbols-variable-threshold:0.14;-sfsymbols-motion-group:0;-sfsymbols-layer-tags:3ce7fd5934320360}
.hierarchical-22:primary {-sfsymbols-variable-threshold:0.09;-sfsymbols-motion-group:0;-sfsymbols-layer-tags:3ce7fd5934320360}
.hierarchical-23:primary {-sfsymbols-variable-threshold:0.05;-sfsymbols-motion-group:0;-sfsymbols-layer-tags:3ce7fd5934320360}
.hierarchical-24:primary {-sfsymbols-variable-threshold:0.0;-sfsymbols-motion-group:0;-sfsymbols-layer-tags:3ce7fd5934320360}

.SFSymbolsPreviewWireframe {fill:none;opacity:1.0;stroke:black;stroke-width:0.5}
</style>
 <g id="Notes">
  <rect height="2200" id="artboard" style="fill:white;opacity:1" width="3300" x="0" y="0"/>
  <line style="fill:none;stroke:black;opacity:1;stroke-width:0.5;" x1="263" x2="3036" y1="292" y2="292"/>
  <text style="stroke:none;fill:black;font-family:sans-serif;font-size:13;font-weight:bold;" transform="matrix(1 0 0 1 263 322)">Weight/Scale Variations</text>
  <text style="stroke:none;fill:black;font-family:sans-serif;font-size:13;text-anchor:middle;" transform="matrix(1 0 0 1 559.711 322)">Ultralight</text>
  <text style="stroke:none;fill:black;font-family:sans-serif;font-size:13;text-anchor:middle;" transform="matrix(1 0 0 1 856.422 322)">Thin</text>
  <text style="stroke:none;fill:black;font-family:sans-serif;font-size:13;text-anchor:middle;" transform="matrix(1 0 0 1 1153.13 322)">Light</text>
  <text style="stroke:none;fill:black;font-family:sans-serif;font-size:13;text-anchor:middle;" transform="matrix(1 0 0 1 1449.84 322)">Regular</text>
  <text style="stroke:none;fill:black;font-family:sans-serif;font-size:13;text-anchor:middle;" transform="matrix(1 0 0 1 1746.56 322)">Medium</text>
  <text style="stroke:none;fill:black;font-family:sans-serif;font-size:13;text-anchor:middle;" transform="matrix(1 0 0 1 2043.27 322)">Semibold</text>
  <text style="stroke:none;fill:black;font-family:sans-serif;font-size:13;text-anchor:middle;" transform="matrix(1 0 0 1 2339.98 322)">Bold</text>
  <text style="stroke:none;fill:black;font-family:sans-serif;font-size:13;text-anchor:middle;" transform="matrix(1 0 0 1 2636.69 322)">Heavy</text>
  <text style="stroke:none;fill:black;font-family:sans-serif;font-size:13;text-anchor:middle;" transform="matrix(1 0 0 1 2933.4 322)">Black</text>
  <line style="fill:none;stroke:black;opacity:1;stroke-width:0.5;" x1="263" x2="3036" y1="1903" y2="1903"/>
  <g transform="matrix(0.2 0 0 0.2 263 1933)">
   <path d="m46.2402 4.15039c21.7773 0 39.4531-17.627 39.4531-39.4043s-17.6758-39.4043-39.4531-39.4043c-21.7285 0-39.4043 17.627-39.4043 39.4043s17.6758 39.4043 39.4043 39.4043Zm0-7.42188c-17.6758 0-31.9336-14.3066-31.9336-31.9824s14.2578-31.9824 31.9336-31.9824 31.9824 14.3066 31.9824 31.9824-14.3066 31.9824-31.9824 31.9824Zm-17.9688-31.9824c0 2.14844 1.51367 3.61328 3.75977 3.61328h10.498v10.5957c0 2.19727 1.46484 3.71094 3.61328 3.71094 2.24609 0 3.71094-1.51367 3.71094-3.71094v-10.5957h10.5957c2.19727 0 3.71094-1.46484 3.71094-3.61328 0-2.19727-1.51367-3.71094-3.71094-3.71094h-10.5957v-10.5469c0-2.24609-1.46484-3.75977-3.71094-3.75977-2.14844 0-3.61328 1.51367-3.61328 3.75977v10.5469h-10.498c-2.24609 0-3.75977 1.51367-3.75977 3.71094Z"/>
  </g>
  <g transform="matrix(0.2 0 0 0.2 281.506 1933)">
   <path d="m58.5449 14.5508c27.4902 0 49.8047-22.3145 49.8047-49.8047s-22.3145-49.8047-49.8047-49.8047-49.8047 22.3145-49.8047 49.8047 22.3145 49.8047 49.8047 49.8047Zm0-8.30078c-22.9492 0-41.5039-18.5547-41.5039-41.5039s18.5547-41.5039 41.5039-41.5039 41.5039 18.5547 41.5039 41.5039-18.5547 41.5039-41.5039 41.5039Zm-22.6562-41.5039c0 2.39258 1.66016 4.00391 4.15039 4.00391h14.3555v14.4043c0 2.44141 1.66016 4.15039 4.05273 4.15039 2.44141 0 4.15039-1.66016 4.15039-4.15039v-14.4043h14.4043c2.44141 0 4.15039-1.61133 4.15039-4.00391 0-2.44141-1.70898-4.15039-4.15039-4.15039h-14.4043v-14.3555c0-2.49023-1.70898-4.19922-4.15039-4.19922-2.39258 0-4.05273 1.70898-4.05273 4.19922v14.3555h-14.3555c-2.49023 0-4.15039 1.70898-4.15039 4.15039Z"/>
  </g>
  <g transform="matrix(0.2 0 0 0.2 304.924 1933)">
   <path d="m74.8535 28.3203c35.1074 0 63.623-28.4668 63.623-63.5742s-28.5156-63.623-63.623-63.623-63.5742 28.5156-63.5742 63.623 28.4668 63.5742 63.5742 63.5742Zm0-9.08203c-30.127 0-54.4922-24.3652-54.4922-54.4922s24.3652-54.4922 54.4922-54.4922 54.4922 24.3652 54.4922 54.4922-24.3652 54.4922-54.4922 54.4922Zm-28.8574-54.4922c0 2.58789 1.85547 4.39453 4.58984 4.39453h19.7266v19.7754c0 2.68555 1.85547 4.58984 4.44336 4.58984 2.68555 0 4.54102-1.85547 4.54102-4.58984v-19.7754h19.7754c2.68555 0 4.58984-1.80664 4.58984-4.39453 0-2.73438-1.85547-4.58984-4.58984-4.58984h-19.7754v-19.7266c0-2.73438-1.85547-4.63867-4.54102-4.63867-2.58789 0-4.44336 1.9043-4.44336 4.63867v19.7266h-19.7266c-2.73438 0-4.58984 1.85547-4.58984 4.58984Z"/>
  </g>
  <text style="stroke:none;fill:black;font-family:sans-serif;font-size:13;font-weight:bold;" transform="matrix(1 0 0 1 263 1953)">Design Variations</text>
  <text style="stroke:none;fill:black;font-family:sans-serif;font-size:13;" transform="matrix(1 0 0 1 263 1971)">Symbols are supported in up to nine weights and three scales.</text>
  <text style="stroke:none;fill:black;font-family:sans-serif;font-size:13;" transform="matrix(1 0 0 1 263 1989)">For optimal layout with text and other symbols, vertically align</text>
  <text style="stroke:none;fill:black;font-family:sans-serif;font-size:13;" transform="matrix(1 0 0 1 263 2007)">symbols with the adjacent text.</text>
  <line style="fill:none;stroke:#00AEEF;stroke-width:0.5;opacity:1.0;" x1="776" x2="776" y1="1919" y2="1933"/>
  <g transform="matrix(0.2 0 0 0.2 776 1933)">
   <path d="m16.5527 0.78125c2.58789 0 3.85742-0.976562 4.78516-3.71094l6.29883-17.2363h28.8086l6.29883 17.2363c0.927734 2.73438 2.19727 3.71094 4.73633 3.71094 2.58789 0 4.24805-1.5625 4.24805-4.00391 0-0.830078-0.146484-1.61133-0.537109-2.63672l-22.9004-60.9863c-1.12305-2.97852-3.125-4.49219-6.25-4.49219-3.02734 0-5.07812 1.46484-6.15234 4.44336l-22.9004 61.084c-0.390625 1.02539-0.537109 1.80664-0.537109 2.63672 0 2.44141 1.5625 3.95508 4.10156 3.95508Zm13.4766-28.3691 11.8652-32.8613h0.244141l11.8652 32.8613Z"/>
  </g>
  <line style="fill:none;stroke:#00AEEF;stroke-width:0.5;opacity:1.0;" x1="792.836" x2="792.836" y1="1919" y2="1933"/>
  <text style="stroke:none;fill:black;font-family:sans-serif;font-size:13;font-weight:bold;" transform="matrix(1 0 0 1 776 1953)">Margins</text>
  <text style="stroke:none;fill:black;font-family:sans-serif;font-size:13;" transform="matrix(1 0 0 1 776 1971)">Leading and trailing margins on the left and right side of each symbol</text>
  <text style="stroke:none;fill:black;font-family:sans-serif;font-size:13;" transform="matrix(1 0 0 1 776 1989)">can be adjusted by modifying the x-location of the margin guidelines.</text>
  <text style="stroke:none;fill:black;font-family:sans-serif;font-size:13;" transform="matrix(1 0 0 1 776 2007)">Modifications are automatically applied proportionally to all</text>
  <text style="stroke:none;fill:black;font-family:sans-serif;font-size:13;" transform="matrix(1 0 0 1 776 2025)">scales and weights.</text>
  <g transform="matrix(0.2 0 0 0.2 1289 1933)">
   <path d="m14.209 9.32617 8.49609 8.54492c4.29688 4.3457 9.22852 4.05273 13.8672-1.07422l53.4668-58.9355-4.83398-4.88281-53.0762 58.3984c-1.75781 2.00195-3.41797 2.49023-5.76172 0.146484l-5.85938-5.81055c-2.34375-2.29492-1.80664-4.00391 0.195312-5.81055l57.373-54.0039-4.88281-4.83398-57.959 54.4434c-4.93164 4.58984-5.32227 9.47266-1.02539 13.8184Zm32.0801-90.9668c-2.09961 2.05078-2.24609 4.93164-1.07422 6.88477 1.17188 1.80664 3.4668 2.97852 6.68945 2.14844 7.32422-1.70898 14.9414-2.00195 22.0703 2.68555l-2.92969 7.27539c-1.70898 4.15039-0.830078 7.08008 1.85547 9.81445l11.4746 11.5723c2.44141 2.44141 4.49219 2.53906 7.32422 2.05078l5.32227-0.976562 3.32031 3.36914-0.195312 2.7832c-0.195312 2.49023 0.439453 4.39453 2.88086 6.78711l3.80859 3.71094c2.39258 2.39258 5.46875 2.53906 7.8125 0.195312l14.5508-14.5996c2.34375-2.34375 2.24609-5.32227-0.146484-7.71484l-3.85742-3.80859c-2.39258-2.39258-4.24805-3.17383-6.64062-2.97852l-2.88086 0.244141-3.22266-3.17383 1.2207-5.61523c0.634766-2.83203-0.146484-5.0293-3.07617-7.95898l-10.9863-10.9375c-16.6992-16.6016-38.8672-16.2109-53.3203-1.75781Zm7.4707 1.85547c12.1582-8.88672 28.6133-7.37305 39.7461 3.75977l12.1582 12.0605c1.17188 1.17188 1.36719 2.09961 1.02539 3.80859l-1.61133 7.42188 7.51953 7.42188 4.93164-0.292969c1.26953-0.0488281 1.66016 0.0488281 2.63672 1.02539l2.88086 2.88086-12.207 12.207-2.88086-2.88086c-0.976562-0.976562-1.12305-1.36719-1.07422-2.68555l0.341797-4.88281-7.4707-7.42188-7.61719 1.26953c-1.61133 0.341797-2.34375 0.195312-3.56445-0.976562l-10.0098-10.0098c-1.26953-1.17188-1.41602-2.00195-0.634766-3.85742l4.39453-10.4492c-7.8125-7.27539-17.9688-10.4004-28.125-7.42188-0.78125 0.195312-1.07422-0.439453-0.439453-0.976562Z"/>
  </g>
  <text style="stroke:none;fill:black;font-family:sans-serif;font-size:13;font-weight:bold;" transform="matrix(1 0 0 1 1289 1953)">Exporting</text>
  <text style="stroke:none;fill:black;font-family:sans-serif;font-size:13;" transform="matrix(1 0 0 1 1289 1971)">Symbols should be outlined when exporting to ensure the</text>
  <text style="stroke:none;fill:black;font-family:sans-serif;font-size:13;" transform="matrix(1 0 0 1 1289 1989)">design is preserved when submitting to Xcode.</text>
  <text id="template-version" style="stroke:none;fill:black;font-family:sans-serif;font-size:13;text-anchor:end;" transform="matrix(1 0 0 1 3036 1933)">Template v.6.0</text>
  <text style="stroke:none;fill:black;font-family:sans-serif;font-size:13;text-anchor:end;" transform="matrix(1 0 0 1 3036 1951)">Requires Xcode 16 or greater</text>
  <text id="descriptive-name" style="stroke:none;fill:black;font-family:sans-serif;font-size:13;text-anchor:end;" transform="matrix(1 0 0 1 3036 1969)">Generated from look-away-icon-symbol-template2</text>
  <text style="stroke:none;fill:black;font-family:sans-serif;font-size:13;text-anchor:end;" transform="matrix(1 0 0 1 3036 1987)">Typeset at 100.0 points</text>
  <text style="stroke:none;fill:black;font-family:sans-serif;font-size:13;" transform="matrix(1 0 0 1 263 726)">Small</text>
  <text style="stroke:none;fill:black;font-family:sans-serif;font-size:13;" transform="matrix(1 0 0 1 263 1156)">Medium</text>
  <text style="stroke:none;fill:black;font-family:sans-serif;font-size:13;" transform="matrix(1 0 0 1 263 1586)">Large</text>
 </g>
 <g id="Guides">
  <g id="H-reference" style="fill:#27AAE1;stroke:none;" transform="matrix(1 0 0 1 339 696)">
   <path d="M0.993654 0L3.63775 0L29.3281-67.1323L30.0303-67.1323L30.0303-70.459L28.1226-70.459ZM11.6885-24.4799L46.9815-24.4799L46.2315-26.7285L12.4385-26.7285ZM55.1196 0L57.7637 0L30.6382-70.459L29.4326-70.459L29.4326-67.1323Z"/>
  </g>
  <line id="Baseline-S" style="fill:none;stroke:#27AAE1;opacity:1;stroke-width:0.5;" x1="263" x2="3036" y1="696" y2="696"/>
  <line id="Capline-S" style="fill:none;stroke:#27AAE1;opacity:1;stroke-width:0.5;" x1="263" x2="3036" y1="625.541" y2="625.541"/>
  <g id="H-reference" style="fill:#27AAE1;stroke:none;" transform="matrix(1 0 0 1 339 1126)">
   <path d="M0.993654 0L3.63775 0L29.3281-67.1323L30.0303-67.1323L30.0303-70.459L28.1226-70.459ZM11.6885-24.4799L46.9815-24.4799L46.2315-26.7285L12.4385-26.7285ZM55.1196 0L57.7637 0L30.6382-70.459L29.4326-70.459L29.4326-67.1323Z"/>
  </g>
  <line id="Baseline-M" style="fill:none;stroke:#27AAE1;opacity:1;stroke-width:0.5;" x1="263" x2="3036" y1="1126" y2="1126"/>
  <line id="Capline-M" style="fill:none;stroke:#27AAE1;opacity:1;stroke-width:0.5;" x1="263" x2="3036" y1="1055.54" y2="1055.54"/>
  <g id="H-reference" style="fill:#27AAE1;stroke:none;" transform="matrix(1 0 0 1 339 1556)">
   <path d="M0.993654 0L3.63775 0L29.3281-67.1323L30.0303-67.1323L30.0303-70.459L28.1226-70.459ZM11.6885-24.4799L46.9815-24.4799L46.2315-26.7285L12.4385-26.7285ZM55.1196 0L57.7637 0L30.6382-70.459L29.4326-70.459L29.4326-67.1323Z"/>
  </g>
  <line id="Baseline-L" style="fill:none;stroke:#27AAE1;opacity:1;stroke-width:0.5;" x1="263" x2="3036" y1="1556" y2="1556"/>
  <line id="Capline-L" style="fill:none;stroke:#27AAE1;opacity:1;stroke-width:0.5;" x1="263" x2="3036" y1="1485.54" y2="1485.54"/>
  <line id="right-margin-Black-S" style="fill:none;stroke:#00AEEF;stroke-width:0.5;opacity:1.0;" x1="2984.13" x2="2984.13" y1="600.785" y2="720.121"/>
  <line id="left-margin-Black-S" style="fill:none;stroke:#00AEEF;stroke-width:0.5;opacity:1.0;" x1="2882.67" x2="2882.67" y1="600.785" y2="720.121"/>
  <line id="right-margin-Regular-S" style="fill:none;stroke:#00AEEF;stroke-width:0.5;opacity:1.0;" x1="1500.16" x2="1500.16" y1="600.785" y2="720.121"/>
  <line id="left-margin-Regular-S" style="fill:none;stroke:#00AEEF;stroke-width:0.5;opacity:1.0;" x1="1399.53" x2="1399.53" y1="600.785" y2="720.121"/>
  <line id="right-margin-Ultralight-S" style="fill:none;stroke:#FF3B30;stroke-width:0.5;opacity:1.0;" x1="608.099" x2="608.099" y1="600.785" y2="720.121"/>
  <line id="left-margin-Ultralight-S" style="fill:none;stroke:#FF3B30;stroke-width:0.5;opacity:1.0;" x1="511.324" x2="511.324" y1="600.785" y2="720.121"/>
 </g>
 <g id="Symbols">
  <g id="Black-S" transform="matrix(1 0 0 1 2882.67 696)">
   <path class="monochrome-0 multicolor-0:labelColor hierarchical-0:secondary SFSymbolsPreviewWireframe" d="M50.7415-78.5497C78.118-78.5497 91.1243-58.6656 100.558-36.0953C100.806-35.4829 100.806-34.7929 100.535-34.1844C90.8425-11.9129 78.0954 8.23511 50.7415 8.23511C23.3764 8.23511 10.3588-11.8605 0.925215-34.2106C0.677261-34.821 0.677261-35.511 0.936486-36.1195C10.494-58.3405 23.3764-78.5497 50.7415-78.5497ZM50.7415-73.6789C25.9912-73.6789 14.5514-55.201 5.82795-35.1481C14.4387-14.9942 25.9912 3.36526 50.7415 3.36526C75.4919 3.36526 86.8076-15.0728 95.6551-35.1772C87.0443-55.5155 75.4806-73.6789 50.7415-73.6789Z"/>
   <path class="monochrome-1 multicolor-1:tintColor hierarchical-1:primary SFSymbolsPreviewWireframe" d="M41.4678-69.1889C40.0636-68.913 39.2215-67.4949 39.6627-66.1163L41.3059-60.5203C41.7471-59.1022 42.8703-58.314 44.2744-58.669C45.5586-58.9836 46.441-60.4017 46.0803-61.7021L44.5168-67.4166C44.1158-68.834 42.7922-69.4648 41.4678-69.1889Z"/>
   <path class="monochrome-2 multicolor-2:tintColor hierarchical-2:primary SFSymbolsPreviewWireframe" d="M32.6822-65.8404C31.3578-65.0926 30.9568-63.5171 31.7193-62.2168L39.4408-49.0461C40.2025-47.7457 41.8071-47.3125 43.1315-48.1007C44.4149-48.8097 44.8561-50.3852 44.0945-51.6847L36.3729-64.8562C35.6105-66.1558 34.0058-66.5495 32.6822-65.8404Z"/>
   <path class="monochrome-3 multicolor-3:tintColor hierarchical-3:primary SFSymbolsPreviewWireframe" d="M25.3805-60.0508C24.3773-59.1054 24.3379-57.4904 25.3-56.5845L29.5987-52.4543C30.6421-51.5089 32.0865-51.3903 33.1292-52.3753C34.1324-53.3207 34.0921-54.8961 33.1292-55.8416L28.8707-60.0508C27.8281-61.0745 26.4239-61.035 25.3805-60.0508Z"/>
   <path class="monochrome-4 multicolor-4:tintColor hierarchical-4:primary SFSymbolsPreviewWireframe" d="M19.4829-52.8819C18.7213-51.5823 19.1625-50.0068 20.4861-49.2582L33.8489-41.6472C35.1725-40.8994 36.778-41.3326 37.5396-42.6322C38.3021-43.893 37.8609-45.4685 36.5372-46.2163L23.1745-53.8273C21.85-54.5751 20.2454-54.1419 19.4829-52.8819Z"/>
   <path class="monochrome-5 multicolor-5:tintColor hierarchical-5:primary SFSymbolsPreviewWireframe" d="M16.0732-44.2947C15.6723-42.9556 16.4742-41.5375 17.8783-41.2229L24.6657-39.516C26.0698-39.2005 27.3532-39.7918 27.7541-41.1705C28.1157-42.4305 27.3129-43.8091 25.9491-44.1641L19.1625-45.9888C17.7181-46.3824 16.4339-45.5556 16.0732-44.2947Z"/>
   <path class="monochrome-6 multicolor-6:tintColor hierarchical-6:primary SFSymbolsPreviewWireframe" d="M14.6691-35.1567C14.6691-33.6603 15.8325-32.518 17.3566-32.518L32.7997-32.518C34.3238-32.518 35.4872-33.6603 35.4872-35.1567C35.4872-36.6539 34.3238-37.7961 32.7997-37.7961L17.3566-37.7961C15.8325-37.7961 14.6691-36.6539 14.6691-35.1567Z"/>
   <path class="monochrome-7 multicolor-7:tintColor hierarchical-7:primary SFSymbolsPreviewWireframe" d="M16.0732-26.0186C16.3945-24.7585 17.838-23.8526 19.1222-24.2463L24.8637-25.8701C26.2678-26.2638 27.0697-27.4456 26.7091-28.7847C26.3484-30.1238 24.9837-30.9119 23.6198-30.557L17.8783-29.0122C16.3945-28.6185 15.752-27.3577 16.0732-26.0186Z"/>
   <path class="monochrome-8 multicolor-8:tintColor hierarchical-8:primary SFSymbolsPreviewWireframe" d="M19.5232-17.4323C20.2454-16.1319 21.85-15.7382 23.1745-16.4868L36.5372-24.0971C37.8609-24.8457 38.3021-26.4211 37.5396-27.6811C36.778-28.9815 35.1725-29.4147 33.8086-28.6661L20.4861-21.0559C19.1625-20.3073 18.7607-18.7318 19.5232-17.4323Z"/>
   <path class="monochrome-9 multicolor-9:tintColor hierarchical-9:primary SFSymbolsPreviewWireframe" d="M25.3805-10.2238C26.3434-9.27833 27.9883-9.20008 28.911-10.1842L33.0889-14.433C34.0518-15.4172 34.1324-16.8748 33.1292-17.8598C32.1662-18.8052 30.6019-18.844 29.5987-17.8598L25.3805-13.6901C24.3379-12.6656 24.3773-11.2087 25.3805-10.2238Z"/>
   <path class="monochrome-10 multicolor-10:tintColor hierarchical-10:primary SFSymbolsPreviewWireframe" d="M32.7225-4.47293C34.0058-3.72433 35.6105-4.15832 36.3729-5.45789L44.0945-18.6286C44.8561-19.9289 44.4149-21.5044 43.1315-22.2522C41.8071-23.0008 40.2025-22.5676 39.4006-21.268L31.7193-8.09654C30.9568-6.79698 31.398-5.22153 32.7225-4.47293Z"/>
   <path class="monochrome-11 multicolor-11:tintColor hierarchical-11:primary SFSymbolsPreviewWireframe" d="M41.4275-1.08568C42.7117-0.692015 44.1561-1.51886 44.5168-2.81843L46.0401-8.53295C46.4007-9.87205 45.6785-11.1724 44.2744-11.5661C42.9508-11.921 41.6674-11.1724 41.2656-9.7938L39.7029-4.1188C39.3012-2.74018 40.1039-1.47934 41.4275-1.08568Z"/>
   <path class="monochrome-12 multicolor-12:tintColor hierarchical-12:primary SFSymbolsPreviewWireframe" d="M50.7348 0.253415C52.2597 0.253415 53.4231-0.888846 53.4231-2.38524L53.4231-17.6065C53.4231-19.1029 52.2597-20.2452 50.7348-20.2452C49.2107-20.2452 48.0473-19.1029 48.0473-17.6065L48.0473-2.38524C48.0473-0.888846 49.2107 0.253415 50.7348 0.253415Z"/>
   <path class="monochrome-13 multicolor-13:tintColor hierarchical-13:primary SFSymbolsPreviewWireframe" d="M60.0026-1.16473C61.286-1.51886 62.2489-2.81843 61.8077-4.19704L60.1645-9.75427C59.7233-11.1329 58.5599-11.9993 57.1952-11.5661C55.9118-11.1724 54.9891-9.87205 55.3498-8.65154L56.9536-2.85795C57.3545-1.43981 58.6387-0.770263 60.0026-1.16473Z"/>
   <path class="monochrome-14 multicolor-14:tintColor hierarchical-14:primary SFSymbolsPreviewWireframe" d="M68.7882-4.51246C70.1118-5.22153 70.5136-6.79698 69.7511-8.09654L62.0295-21.268C61.2671-22.5676 59.6625-23.0008 58.3791-22.2522C57.0555-21.5044 56.6134-19.9289 57.3759-18.6286L65.0975-5.45789C65.8599-4.15832 67.4645-3.76386 68.7882-4.51246Z"/>
   <path class="monochrome-15 multicolor-15:tintColor hierarchical-15:primary SFSymbolsPreviewWireframe" d="M76.1301-10.3028C77.0528-11.2482 77.213-12.7842 76.1301-13.7691L71.8314-17.8203C70.788-18.8052 69.3436-18.844 68.3412-17.8598C67.4185-16.9539 67.3783-15.3784 68.3412-14.433L72.5191-10.2633C73.6028-9.20008 75.1269-9.27833 76.1301-10.3028Z"/>
   <path class="monochrome-16 multicolor-16:tintColor hierarchical-16:primary SFSymbolsPreviewWireframe" d="M81.9866-17.471C82.7491-18.7318 82.3079-20.3073 80.9843-21.0559L67.6215-28.6661C66.297-29.4147 64.6924-28.9815 63.9308-27.7207C63.1683-26.4211 63.6095-24.8457 64.9331-24.0971L78.2959-16.4868C79.6204-15.7382 81.225-16.1714 81.9866-17.471Z"/>
   <path class="monochrome-17 multicolor-17:tintColor hierarchical-17:primary SFSymbolsPreviewWireframe" d="M85.3569-26.0581C85.6379-27.2794 84.9962-28.7758 83.5921-29.0912L76.8047-30.7586C75.4005-31.0732 74.1172-30.4432 73.7154-29.0646C73.3547-27.8441 74.1172-26.4655 75.4408-26.1105L82.3079-24.2858C83.7523-23.8914 85.0365-24.6795 85.3569-26.0581Z"/>
   <path class="monochrome-18 multicolor-18:tintColor hierarchical-18:primary SFSymbolsPreviewWireframe" d="M86.8013-35.1567C86.8013-36.6539 85.6379-37.7961 84.113-37.7961L68.6707-37.7961C67.1466-37.7961 65.9832-36.6539 65.9832-35.1567C65.9832-33.6603 67.1466-32.518 68.6707-32.518L84.113-32.518C85.6379-32.518 86.8013-33.6603 86.8013-35.1567Z"/>
   <path class="monochrome-19 multicolor-19:tintColor hierarchical-19:primary SFSymbolsPreviewWireframe" d="M85.3569-44.2947C84.9962-45.5556 83.6323-46.422 82.3079-46.0283L76.5664-44.4044C75.2025-44.0108 74.3998-42.7895 74.7613-41.4504C75.122-40.1508 76.4859-39.3627 77.8506-39.7168L83.5518-41.2229C85.0365-41.6166 85.7579-42.9556 85.3569-44.2947Z"/>
   <path class="monochrome-20 multicolor-20:tintColor hierarchical-20:primary SFSymbolsPreviewWireframe" d="M81.9472-52.8819C81.1847-54.1814 79.6204-54.5751 78.2959-53.8273L64.9331-46.2163C63.6095-45.4685 63.1683-43.893 63.9702-42.5926C64.6924-41.3326 66.297-40.8994 67.6215-41.6472L80.9843-49.2582C82.3079-50.0068 82.7088-51.621 81.9472-52.8819Z"/>
   <path class="monochrome-21 multicolor-21:tintColor hierarchical-21:primary SFSymbolsPreviewWireframe" d="M76.0496-60.0113C75.0867-60.9567 73.4821-61.035 72.5594-60.0508L68.3806-55.802C67.4185-54.8171 67.338-53.3602 68.3412-52.3753C69.3033-51.4298 70.8282-51.4298 71.8314-52.3753L76.0899-56.545C77.1325-57.5695 77.0931-58.9868 76.0496-60.0113Z"/>
   <path class="monochrome-22 multicolor-22:tintColor hierarchical-22:primary SFSymbolsPreviewWireframe" d="M68.7479-65.8404C67.4243-66.589 65.8599-66.1558 65.0975-64.8562L57.3759-51.6847C56.6134-50.3852 57.0152-48.8097 58.3791-48.0611C59.6625-47.3521 61.2671-47.7457 62.0295-49.0461L69.7511-62.2168C70.5136-63.5171 70.0321-65.0926 68.7479-65.8404Z"/>
   <path class="monochrome-23 multicolor-23:tintColor hierarchical-23:primary SFSymbolsPreviewWireframe" d="M60.0026-69.1494C58.7184-69.5035 57.3143-68.7162 56.9536-67.4166L55.4303-61.7021C55.0696-60.3622 55.7918-59.0626 57.1952-58.669C58.5196-58.314 59.803-59.0626 60.2047-60.4413L61.7675-66.1163C62.1684-67.4949 61.3665-68.7557 60.0026-69.1494Z"/>
   <path class="monochrome-24 multicolor-24:tintColor hierarchical-24:primary SFSymbolsPreviewWireframe" d="M50.7348-70.5675C49.2107-70.5675 48.0473-69.4253 48.0473-67.9281L48.0473-52.7076C48.0473-51.2104 49.2107-50.0682 50.7348-50.0682C52.2597-50.0682 53.4231-51.2104 53.4231-52.7076L53.4231-67.9281C53.4231-69.4253 52.2597-70.5675 50.7348-70.5675Z"/>
  </g>
  <g id="Regular-S" transform="matrix(1 0 0 1 1399.53 696)">
   <path class="monochrome-0 multicolor-0:labelColor hierarchical-0:secondary SFSymbolsPreviewWireframe" d="M50.277-78.4499C77.7012-78.4499 90.6899-58.4785 100.124-35.8691C100.329-35.3884 100.329-34.8458 100.112-34.3671C90.3937-12.0549 77.6785 8.1863 50.277 8.1863C22.8641 8.1863 9.87547-11.999 0.430216-34.3877C0.225132-34.8674 0.225132-35.4099 0.430216-35.8877C10.0122-58.1489 22.8641-78.4499 50.277-78.4499ZM50.277-74.6208C24.9149-74.6208 13.2024-55.6796 4.26984-35.1244C13.0771-14.4634 24.9263 4.35723 50.277 4.35723C75.639 4.35723 87.2263-14.5399 96.2727-35.147C87.4769-56.0004 75.6276-74.6208 50.277-74.6208Z"/>
   <path class="monochrome-1 multicolor-1:tintColor hierarchical-1:primary SFSymbolsPreviewWireframe" d="M40.9365-70.1737C39.7711-69.9325 39.1284-68.9276 39.4897-67.6018L41.3842-60.5734C41.6657-59.4484 42.7907-58.8451 44.1165-59.2476C45.3222-59.6089 45.8045-60.6138 45.4432-61.7388L43.5083-68.6058C43.147-69.8922 42.1018-70.4148 40.9365-70.1737Z"/>
   <path class="monochrome-2 multicolor-2:tintColor hierarchical-2:primary SFSymbolsPreviewWireframe" d="M32.4572-66.2348C31.4531-65.6324 31.091-64.3469 31.6943-63.342L39.6287-49.5461C40.2312-48.5009 41.5175-48.1791 42.4821-48.7824C43.4861-49.3445 43.8886-50.5905 43.245-51.6357L35.2702-65.4719C34.7081-66.4759 33.4621-66.7574 32.4572-66.2348Z"/>
   <path class="monochrome-3 multicolor-3:tintColor hierarchical-3:primary SFSymbolsPreviewWireframe" d="M24.7416-60.7701C23.898-60.0064 23.9787-58.6402 24.7819-57.8362L29.8351-52.783C30.7198-51.8991 31.9247-51.8588 32.8094-52.7426C33.6127-53.5064 33.6933-54.7919 32.8094-55.6766L27.7159-60.7701C26.8312-61.654 25.6263-61.6137 24.7416-60.7701Z"/>
   <path class="monochrome-4 multicolor-4:tintColor hierarchical-4:primary SFSymbolsPreviewWireframe" d="M19.3568-53.1344C18.7543-52.1303 19.0761-50.844 20.0802-50.2416L33.876-42.3071C34.9212-41.6635 36.1672-42.0659 36.7697-43.0305C37.3326-44.0345 37.0108-45.3209 35.9664-45.883L22.1698-53.8578C21.1657-54.4611 19.9197-54.0989 19.3568-53.1344Z"/>
   <path class="monochrome-5 multicolor-5:tintColor hierarchical-5:primary SFSymbolsPreviewWireframe" d="M15.3389-44.5349C15.0978-43.4502 15.8204-42.3252 16.8656-42.0034L23.8536-40.1089C25.019-39.7879 26.1843-40.471 26.3851-41.6363C26.6263-42.7211 26.144-43.9267 24.9786-44.2082L17.9906-45.9818C16.7446-46.3035 15.5792-45.66 15.3389-44.5349Z"/>
   <path class="monochrome-6 multicolor-6:tintColor hierarchical-6:primary SFSymbolsPreviewWireframe" d="M14.5348-35.2121C14.5348-34.0467 15.4591-33.1225 16.6244-33.1225L32.574-33.1225C33.7394-33.1225 34.6636-34.0467 34.6636-35.2121C34.6636-36.3774 33.7394-37.3016 32.574-37.3016L16.6244-37.3016C15.4591-37.3016 14.5348-36.3774 14.5348-35.2121Z"/>
   <path class="monochrome-7 multicolor-7:tintColor hierarchical-7:primary SFSymbolsPreviewWireframe" d="M15.3784-25.8489C15.6599-24.7238 16.8656-24.1214 17.9503-24.402L24.9383-26.2159C26.144-26.5377 26.7464-27.6224 26.4255-28.7878C26.1037-29.8733 24.9786-30.5564 23.8536-30.2749L16.9462-28.3804C15.7002-28.0594 15.0978-26.9739 15.3784-25.8489Z"/>
   <path class="monochrome-8 multicolor-8:tintColor hierarchical-8:primary SFSymbolsPreviewWireframe" d="M19.3568-17.3301C19.8794-16.3252 21.1657-15.9631 22.1698-16.5663L35.9664-24.5008C37.0108-25.1032 37.3326-26.3896 36.7697-27.3541C36.1672-28.359 34.9212-28.7606 33.876-28.1179L20.0802-20.1825C19.0761-19.5801 18.7543-18.3341 19.3568-17.3301Z"/>
   <path class="monochrome-9 multicolor-9:tintColor hierarchical-9:primary SFSymbolsPreviewWireframe" d="M24.7819-9.65399C25.6658-8.81042 26.9119-8.81042 27.6756-9.57416L33.583-15.4816C34.4266-16.3655 34.4669-17.5712 33.6225-18.4551C32.779-19.2583 31.4531-19.2987 30.6491-18.4551L24.8223-12.5476C23.9384-11.6637 23.898-10.4984 24.7819-9.65399Z"/>
   <path class="monochrome-10 multicolor-10:tintColor hierarchical-10:primary SFSymbolsPreviewWireframe" d="M32.4572-4.22964C33.4217-3.62638 34.7081-3.94818 35.2702-4.95223L43.245-18.7489C43.8886-19.8336 43.4861-21.0796 42.5216-21.6417C41.5175-22.245 40.2312-21.9232 39.6287-20.8788L31.6943-7.08214C31.091-6.03776 31.4531-4.79174 32.4572-4.22964Z"/>
   <path class="monochrome-11 multicolor-11:tintColor hierarchical-11:primary SFSymbolsPreviewWireframe" d="M40.776-0.251288C42.0615 0.110829 43.2269-0.612582 43.5083-1.69729L45.686-9.74205C45.9674-10.8679 45.3642-12.0333 44.2392-12.3139C43.1141-12.5954 41.9891-11.9929 41.6673-10.8679L39.53-2.78282C39.2082-1.61746 39.6106-0.652909 40.776-0.251288Z"/>
   <path class="monochrome-12 multicolor-12:tintColor hierarchical-12:primary SFSymbolsPreviewWireframe" d="M50.34 0.593104C51.5054 0.593104 52.4296-0.371445 52.4296-1.5368L52.4296-17.4461C52.4296-18.6518 51.5054-19.5357 50.34-19.5357C49.1747-19.5357 48.2101-18.6518 48.2101-17.4461L48.2101-1.5368C48.2101-0.371445 49.1747 0.593104 50.34 0.593104Z"/>
   <path class="monochrome-13 multicolor-13:tintColor hierarchical-13:primary SFSymbolsPreviewWireframe" d="M59.7435-0.251288C61.0694-0.572255 61.4307-1.73761 61.1895-2.78282L59.3362-9.85069C59.0144-11.016 57.7684-11.6193 56.6836-11.3378C55.4376-10.9757 54.915-9.81036 55.2368-8.76598L57.2112-1.81827C57.5733-0.693236 58.4572-0.0101508 59.7435-0.251288Z"/>
   <path class="monochrome-14 multicolor-14:tintColor hierarchical-14:primary SFSymbolsPreviewWireframe" d="M68.222-4.22964C69.2269-4.79174 69.5487-6.03776 68.9858-7.08214L61.0109-20.8788C60.448-21.9232 59.1625-22.245 58.198-21.6417C57.1536-21.0796 56.7915-19.8336 57.3947-18.7489L65.3695-4.95223C65.9316-3.94818 67.1776-3.62638 68.222-4.22964Z"/>
   <path class="monochrome-15 multicolor-15:tintColor hierarchical-15:primary SFSymbolsPreviewWireframe" d="M75.8981-9.65399C76.7416-10.4984 76.7013-11.8646 75.9779-12.588L70.7642-17.6815C69.9199-18.4847 68.6343-18.6057 67.7496-17.6815C66.9867-16.8379 67.027-15.6322 67.8303-14.7878L72.9238-9.69432C73.8077-8.81042 75.0537-8.7701 75.8981-9.65399Z"/>
   <path class="monochrome-16 multicolor-16:tintColor hierarchical-16:primary SFSymbolsPreviewWireframe" d="M81.3224-17.3301C81.8854-18.2938 81.5636-19.5801 80.5595-20.1825L66.7628-28.1179C65.7185-28.7606 64.4725-28.359 63.9095-27.3944C63.3071-26.3896 63.6289-25.1032 64.6733-24.5008L78.4699-16.5663C79.474-15.9631 80.72-16.3252 81.3224-17.3301Z"/>
   <path class="monochrome-17 multicolor-17:tintColor hierarchical-17:primary SFSymbolsPreviewWireframe" d="M85.2605-25.769C85.5822-26.9344 85.0596-28.0594 83.8145-28.3804L76.8264-30.3152C75.6611-30.5967 74.536-29.9531 74.2546-28.8281C73.9731-27.7031 74.6159-26.4974 75.7014-26.2159L82.6491-24.402C83.8548-24.0811 84.9395-24.6835 85.2605-25.769Z"/>
   <path class="monochrome-18 multicolor-18:tintColor hierarchical-18:primary SFSymbolsPreviewWireframe" d="M86.1048-35.2121C86.1048-36.3774 85.1806-37.3016 84.0153-37.3016L68.106-37.3016C66.9003-37.3016 66.0164-36.3774 66.0164-35.2121C66.0164-34.0467 66.9003-33.1225 68.106-33.1225L84.0153-33.1225C85.1806-33.1225 86.1048-34.0467 86.1048-35.2121Z"/>
   <path class="monochrome-19 multicolor-19:tintColor hierarchical-19:primary SFSymbolsPreviewWireframe" d="M85.2605-44.5753C84.9798-45.7003 83.7741-46.3834 82.7289-46.0624L75.7409-44.1275C74.5755-43.8066 73.8924-42.7211 74.3344-41.3952C74.5755-40.5508 75.5804-39.7879 76.8264-40.1089L83.7338-42.0034C84.8992-42.3252 85.5419-43.4502 85.2605-44.5753Z"/>
   <path class="monochrome-20 multicolor-20:tintColor hierarchical-20:primary SFSymbolsPreviewWireframe" d="M81.3628-53.0949C80.7603-54.0989 79.474-54.4611 78.4699-53.8578L64.6733-45.9233C63.6289-45.3209 63.3071-44.0345 63.9499-43.0305C64.4725-42.0659 65.7185-41.6635 66.7628-42.3071L80.5595-50.2416C81.5636-50.844 81.8854-52.09 81.3628-53.0949Z"/>
   <path class="monochrome-21 multicolor-21:tintColor hierarchical-21:primary SFSymbolsPreviewWireframe" d="M75.8981-60.7701C75.0537-61.5734 73.7682-61.5339 72.9641-60.7701L67.097-54.8627C66.2131-53.9385 66.2131-52.7328 67.097-51.8892C67.9406-51.0448 69.1866-51.0448 69.9906-51.8892L75.8578-57.7563C76.7013-58.6805 76.7416-59.9257 75.8981-60.7701Z"/>
   <path class="monochrome-22 multicolor-22:tintColor hierarchical-22:primary SFSymbolsPreviewWireframe" d="M68.222-66.1953C67.218-66.7574 65.9316-66.4759 65.3695-65.4719L57.3947-51.6357C56.7915-50.5905 57.1536-49.3445 58.198-48.7824C59.1625-48.1791 60.448-48.5009 61.0109-49.5461L68.9858-63.342C69.5487-64.3469 69.2269-65.592 68.222-66.1953Z"/>
   <path class="monochrome-23 multicolor-23:tintColor hierarchical-23:primary SFSymbolsPreviewWireframe" d="M59.7032-70.093C58.6177-70.4543 57.4926-69.9325 57.1314-68.6058L54.994-60.6014C54.6722-59.4764 55.2755-58.311 56.4409-58.0296C57.5659-57.7481 58.6909-58.3513 59.0127-59.4764L61.15-67.5211C61.4307-68.7268 60.8282-69.7712 59.7032-70.093Z"/>
   <path class="monochrome-24 multicolor-24:tintColor hierarchical-24:primary SFSymbolsPreviewWireframe" d="M50.34-71.0172C49.1747-71.0172 48.2101-70.0527 48.2101-68.8873L48.2101-52.978C48.2101-51.7723 49.1747-50.8884 50.34-50.8884C51.5054-50.8884 52.4296-51.7723 52.4296-52.978L52.4296-68.8873C52.4296-70.0527 51.5054-71.0172 50.34-71.0172Z"/>
  </g>
  <g id="Ultralight-S" transform="matrix(1 0 0 1 511.324 696)">
   <path class="monochrome-0 multicolor-0:labelColor hierarchical-0:secondary SFSymbolsPreviewWireframe" d="M48.3896-77.467C75.3543-77.467 88.0376-57.7137 97.3302-35.4764C97.4101-35.269 97.4101-35.036 97.3188-34.8306C87.7636-12.8803 75.3543 7.14821 48.3896 7.14821C21.425 7.14821 8.74174-12.8174-0.550917-34.8394C-0.63083-35.0459-0.63083-35.2788-0.550917-35.4843C8.87873-57.3824 21.425-77.467 48.3896-77.467ZM48.3896-75.8224C22.304-75.8224 10.2487-56.3208 1.10441-35.1559C10.1231-13.8761 22.304 5.50366 48.3896 5.50366C74.4753 5.50366 86.3936-13.9478 95.6749-35.1658C86.6562-56.6491 74.4753-75.8224 48.3896-75.8224Z"/>
   <path class="monochrome-1 multicolor-1:tintColor hierarchical-1:primary SFSymbolsPreviewWireframe" d="M39.0624-70.1443C38.4244-69.9681 38.2586-69.4212 38.3636-68.8899L40.2777-61.1318C40.4566-60.6935 40.8151-60.4521 41.4253-60.5606C42.0669-60.7056 42.2596-61.1735 42.1936-61.769L40.1189-69.3187C39.9739-70.0045 39.5025-70.2007 39.0624-70.1443Z"/>
   <path class="monochrome-2 multicolor-2:tintColor hierarchical-2:primary SFSymbolsPreviewWireframe" d="M30.3946-66.4237C29.8868-66.1033 29.7809-65.5747 30.0621-65.1059L38.749-50.0056C39.0303-49.5342 39.559-49.3129 40.0642-49.6341C40.5321-49.8719 40.6406-50.4371 40.3567-50.9084L31.6273-66.0122C31.3486-66.481 30.8234-66.6589 30.3946-66.4237Z"/>
   <path class="monochrome-3 multicolor-3:tintColor hierarchical-3:primary SFSymbolsPreviewWireframe" d="M22.8076-60.7768C22.3119-60.2872 22.436-59.7525 22.811-59.3384L28.2947-53.6186C28.7149-53.2774 29.1585-53.2739 29.6177-53.655C30.0717-54.1056 30.0378-54.6342 29.6576-55.0934L24.1314-60.6197C23.6322-61.1188 23.1496-61.0763 22.8076-60.7768Z"/>
   <path class="monochrome-4 multicolor-4:tintColor hierarchical-4:primary SFSymbolsPreviewWireframe" d="M17.1676-53.2358C16.8864-52.7279 17.0678-52.1602 17.5366-51.9189L32.6369-43.192C33.1082-42.9082 33.6734-43.0167 33.9546-43.521C34.2324-43.9898 34.0119-44.5185 33.5405-44.7572L18.4394-53.4866C17.9715-53.7679 17.4454-53.662 17.1676-53.2358Z"/>
   <path class="monochrome-5 multicolor-5:tintColor hierarchical-5:primary SFSymbolsPreviewWireframe" d="M13.3628-44.5593C13.1866-43.8882 13.5955-43.4498 14.1059-43.3474L21.7034-41.0791C22.2233-41.0157 22.6635-41.2241 22.8362-41.7831C23.0116-42.4151 22.6999-42.8587 22.1409-43.0375L14.5833-45.0601C13.9392-45.2416 13.4982-44.9577 13.3628-44.5593Z"/>
   <path class="monochrome-6 multicolor-6:tintColor hierarchical-6:primary SFSymbolsPreviewWireframe" d="M12.3176-35.1987C12.3176-34.6006 12.7803-34.256 13.2604-34.256L30.7592-34.256C31.2393-34.256 31.7019-34.6006 31.7019-35.1987C31.7019-35.7187 31.2393-36.0625 30.7592-36.0625L13.2604-36.0625C12.7803-36.0625 12.3176-35.7187 12.3176-35.1987Z"/>
   <path class="monochrome-7 multicolor-7:tintColor hierarchical-7:primary SFSymbolsPreviewWireframe" d="M13.3264-25.7956C13.5043-25.1611 14.0668-24.9588 14.5408-25.0977L22.2563-26.9658C22.7789-27.1472 23.0211-27.5431 22.9178-28.1021C22.7364-28.7341 22.2199-28.9815 21.7034-28.8426L14.151-26.8104C13.4679-26.629 13.2265-26.2332 13.3264-25.7956Z"/>
   <path class="monochrome-8 multicolor-8:tintColor hierarchical-8:primary SFSymbolsPreviewWireframe" d="M17.1277-17.1252C17.4428-16.6565 17.9715-16.5514 18.4394-16.8318L33.5405-25.5587C34.0119-25.8008 34.2324-26.3686 33.9147-26.8339C33.6734-27.3026 33.1082-27.4111 32.6369-27.1264L17.5366-18.3605C17.0678-18.1582 16.8864-17.5931 17.1277-17.1252Z"/>
   <path class="monochrome-9 multicolor-9:tintColor hierarchical-9:primary SFSymbolsPreviewWireframe" d="M22.693-9.54165C23.1131-9.04597 23.7173-9.16403 24.0888-9.53557L29.7757-14.9854C30.1923-15.4056 30.1958-15.8891 29.8182-16.3092C29.3616-16.7624 28.7904-16.7658 28.3763-16.3483L22.8536-10.8195C22.3544-10.3203 22.3518-9.84027 22.693-9.54165Z"/>
   <path class="monochrome-10 multicolor-10:tintColor hierarchical-10:primary SFSymbolsPreviewWireframe" d="M30.3547-3.9373C30.82-3.65691 31.3886-3.83834 31.6273-4.30624L40.3567-19.4074C40.6406-19.8814 40.5321-20.4465 40.0277-20.7243C39.559-21.0056 39.0303-20.7851 38.789-20.3137L30.0621-5.21252C29.7809-4.74115 29.8868-4.21596 30.3547-3.9373Z"/>
   <path class="monochrome-11 multicolor-11:tintColor hierarchical-11:primary SFSymbolsPreviewWireframe" d="M38.8923-0.0960366C39.539 0.0879971 39.98-0.320002 40.0798-0.833907L42.309-8.39144C42.487-8.90882 42.2066-9.38887 41.6892-9.52776C41.0547-9.70572 40.5772-9.42533 40.4357-8.82982L38.4061-1.26882C38.2247-0.630776 38.4513-0.243611 38.8923-0.0960366Z"/>
   <path class="monochrome-12 multicolor-12:tintColor hierarchical-12:primary SFSymbolsPreviewWireframe" d="M48.35 0.912676C48.9481 0.912676 49.2928 0.446515 49.2928-0.0335346L49.2928-17.5289C49.2928-18.0124 48.9481-18.4716 48.35-18.4716C47.8301-18.4716 47.4828-18.0124 47.4828-17.5289L47.4828-0.0335346C47.4828 0.446515 47.8301 0.912676 48.35 0.912676Z"/>
   <path class="monochrome-13 multicolor-13:tintColor hierarchical-13:primary SFSymbolsPreviewWireframe" d="M57.6767-0.017041C58.3269-0.19847 58.4719-0.718452 58.3755-1.26882L56.464-8.99042C56.2826-9.47047 55.9154-9.71179 55.3225-9.61283C54.7183-9.46786 54.4822-8.94788 54.5846-8.39752L56.6229-0.803524C56.7678-0.168087 57.2271 0.0402525 57.6767-0.017041Z"/>
   <path class="monochrome-14 multicolor-14:tintColor hierarchical-14:primary SFSymbolsPreviewWireframe" d="M66.4635-3.9373C66.8923-4.21596 66.9947-4.74115 66.7161-5.21252L57.9866-20.3137C57.7479-20.7851 57.2192-21.0056 56.754-20.7243C56.2435-20.4465 56.1775-19.8814 56.4189-19.4465L65.1882-4.30624C65.387-3.83834 65.9522-3.65691 66.4635-3.9373Z"/>
   <path class="monochrome-15 multicolor-15:tintColor hierarchical-15:primary SFSymbolsPreviewWireframe" d="M73.9281-9.38366C74.4238-9.84027 74.3031-10.4141 73.9342-10.8229L68.4384-16.5453C68.0217-16.8813 67.572-16.89 67.1119-16.5063C66.6614-16.0497 66.7039-15.5271 67.0789-15.0705L72.6052-9.54425C73.1034-9.04597 73.6295-9.08243 73.9281-9.38366Z"/>
   <path class="monochrome-16 multicolor-16:tintColor hierarchical-16:primary SFSymbolsPreviewWireframe" d="M79.6505-17.1252C79.8892-17.5905 79.7078-18.1582 79.279-18.3605L64.1387-27.1264C63.6674-27.4111 63.1022-27.3026 62.8635-26.8365C62.5432-26.3286 62.7637-25.8008 63.2351-25.5587L78.3362-16.8318C78.8041-16.5514 79.3302-16.6565 79.6505-17.1252Z"/>
   <path class="monochrome-17 multicolor-17:tintColor hierarchical-17:primary SFSymbolsPreviewWireframe" d="M83.3711-25.5925C83.5525-26.2696 83.1584-26.6681 82.6332-26.8104L75.0358-29.0423C74.5158-29.1421 74.0783-28.9372 73.8995-28.3808C73.7215-27.7462 74.0444-27.3018 74.5983-27.1238L82.1532-25.0977C82.8329-24.9163 83.2288-25.1975 83.3711-25.5925Z"/>
   <path class="monochrome-18 multicolor-18:tintColor hierarchical-18:primary SFSymbolsPreviewWireframe" d="M84.458-35.1987C84.458-35.7187 83.9953-36.0625 83.5152-36.0625L66.019-36.0625C65.5363-36.0625 65.0763-35.7187 65.0763-35.1987C65.0763-34.6006 65.5363-34.256 66.019-34.256L83.5152-34.256C83.9953-34.256 84.458-34.6006 84.458-35.1987Z"/>
   <path class="monochrome-19 multicolor-19:tintColor hierarchical-19:primary SFSymbolsPreviewWireframe" d="M83.4102-44.3657C83.2314-45.0002 82.7088-45.2086 82.1983-45.0662L74.5219-43.1894C73.9628-43.008 73.7154-42.6121 73.8265-42.0409C74.0019-41.4272 74.5097-41.1737 75.0358-41.2762L82.6272-43.3474C83.2652-43.4898 83.51-43.9273 83.4102-44.3657Z"/>
   <path class="monochrome-20 multicolor-20:tintColor hierarchical-20:primary SFSymbolsPreviewWireframe" d="M79.6141-53.2722C79.3328-53.662 78.8041-53.7679 78.3362-53.4866L63.2351-44.7997C62.7637-44.5185 62.5432-43.9898 62.8271-43.521C63.1022-43.0167 63.6674-42.9082 64.0988-43.192L79.279-51.9189C79.7078-52.1993 79.8892-52.7253 79.6141-53.2722Z"/>
   <path class="monochrome-21 multicolor-21:tintColor hierarchical-21:primary SFSymbolsPreviewWireframe" d="M74.0462-60.6197C73.6295-61.1127 73.0218-60.9912 72.6477-60.6197L66.9635-55.169C66.5433-54.7462 66.5433-54.2627 66.9244-53.846C67.381-53.3894 67.9453-53.3894 68.3602-53.8069L73.8856-59.3323C74.3821-59.8349 74.3847-60.2811 74.0462-60.6197Z"/>
   <path class="monochrome-22 multicolor-22:tintColor hierarchical-22:primary SFSymbolsPreviewWireframe" d="M66.4235-66.4202C65.9556-66.6589 65.387-66.481 65.1882-66.0122L56.4189-50.9084C56.1775-50.4371 56.2435-49.8719 56.7149-49.6341C57.2192-49.3129 57.7479-49.5342 57.9866-50.0056L66.7161-65.1059C66.9947-65.5747 66.8923-66.0999 66.4235-66.4202Z"/>
   <path class="monochrome-23 multicolor-23:tintColor hierarchical-23:primary SFSymbolsPreviewWireframe" d="M57.8321-70.0592C57.2001-70.2432 56.8017-69.85 56.6567-69.3187L54.4692-61.7638C54.2877-61.2464 54.5299-60.7664 55.049-60.6275C55.6845-60.4487 56.1619-60.7299 56.3034-61.3254L58.333-68.8838C58.511-69.4854 58.2696-69.9168 57.8321-70.0592Z"/>
   <path class="monochrome-24 multicolor-24:tintColor hierarchical-24:primary SFSymbolsPreviewWireframe" d="M48.35-71.2311C47.8301-71.2311 47.4828-70.7658 47.4828-70.2858L47.4828-52.7896C47.4828-52.306 47.8301-51.8468 48.35-51.8468C48.9481-51.8468 49.2928-52.306 49.2928-52.7896L49.2928-70.2858C49.2928-70.7658 48.9481-71.2311 48.35-71.2311Z"/>
  </g>
 </g>
</svg>
