<?xml version="1.0" encoding="UTF-8"?>
<!--Generator: Apple Native CoreSVG 341-->
<!DOCTYPE svg
PUBLIC "-//W3C//DTD SVG 1.1//EN"
       "http://www.w3.org/Graphics/SVG/1.1/DTD/svg11.dtd">
<svg version="1.1" xmlns="http://www.w3.org/2000/svg" xmlns:xlink="http://www.w3.org/1999/xlink" viewBox="0 0 3300 2200">
 <!--glyph: "", point size: 100.0, font version: "21.0d5e1", template writer version: "138.0.0"-->
 <style>.defaults {-sfsymbols-variable-value-mode:color;-sfsymbols-draw-reverses-motion-groups:true}

.monochrome-0 {-sfsymbols-motion-group:0;-sfsymbols-layer-tags:40172b669e91c0c1}
.monochrome-1 {-sfsymbols-variable-threshold:0.0;-sfsymbols-motion-group:0;-sfsymbols-layer-tags:40172b669e91c0c1}
.monochrome-2 {-sfsymbols-variable-threshold:0.05;-sfsymbols-motion-group:0;-sfsymbols-layer-tags:40172b669e91c0c1}
.monochrome-3 {-sfsymbols-variable-threshold:0.09;-sfsymbols-motion-group:0;-sfsymbols-layer-tags:40172b669e91c0c1}
.monochrome-4 {-sfsymbols-variable-threshold:0.14;-sfsymbols-motion-group:0;-sfsymbols-layer-tags:40172b669e91c0c1}
.monochrome-5 {-sfsymbols-variable-threshold:0.18;-sfsymbols-motion-group:0;-sfsymbols-layer-tags:40172b669e91c0c1}
.monochrome-6 {-sfsymbols-variable-threshold:0.22;-sfsymbols-motion-group:0;-sfsymbols-layer-tags:40172b669e91c0c1}
.monochrome-7 {-sfsymbols-variable-threshold:0.26;-sfsymbols-motion-group:0;-sfsymbols-layer-tags:40172b669e91c0c1}
.monochrome-8 {-sfsymbols-variable-threshold:0.3;-sfsymbols-motion-group:0;-sfsymbols-layer-tags:40172b669e91c0c1}
.monochrome-9 {-sfsymbols-variable-threshold:0.34;-sfsymbols-motion-group:0;-sfsymbols-layer-tags:40172b669e91c0c1}
.monochrome-10 {-sfsymbols-variable-threshold:0.39;-sfsymbols-motion-group:0;-sfsymbols-layer-tags:40172b669e91c0c1}
.monochrome-11 {-sfsymbols-variable-threshold:0.43;-sfsymbols-motion-group:0;-sfsymbols-layer-tags:40172b669e91c0c1}
.monochrome-12 {-sfsymbols-variable-threshold:0.47;-sfsymbols-motion-group:0;-sfsymbols-layer-tags:40172b669e91c0c1}
.monochrome-13 {-sfsymbols-variable-threshold:0.51;-sfsymbols-motion-group:0;-sfsymbols-layer-tags:40172b669e91c0c1}
.monochrome-14 {-sfsymbols-variable-threshold:0.55;-sfsymbols-motion-group:0;-sfsymbols-layer-tags:40172b669e91c0c1}
.monochrome-15 {-sfsymbols-variable-threshold:0.59;-sfsymbols-motion-group:0;-sfsymbols-layer-tags:40172b669e91c0c1}
.monochrome-16 {-sfsymbols-variable-threshold:0.64;-sfsymbols-motion-group:0;-sfsymbols-layer-tags:40172b669e91c0c1}
.monochrome-17 {-sfsymbols-variable-threshold:0.68;-sfsymbols-motion-group:0;-sfsymbols-layer-tags:40172b669e91c0c1}
.monochrome-18 {-sfsymbols-variable-threshold:0.72;-sfsymbols-motion-group:0;-sfsymbols-layer-tags:40172b669e91c0c1}
.monochrome-19 {-sfsymbols-variable-threshold:0.76;-sfsymbols-motion-group:0;-sfsymbols-layer-tags:40172b669e91c0c1}
.monochrome-20 {-sfsymbols-variable-threshold:0.8;-sfsymbols-motion-group:0;-sfsymbols-layer-tags:40172b669e91c0c1}
.monochrome-21 {-sfsymbols-variable-threshold:0.84;-sfsymbols-motion-group:0;-sfsymbols-layer-tags:40172b669e91c0c1}
.monochrome-22 {-sfsymbols-variable-threshold:0.89;-sfsymbols-motion-group:0;-sfsymbols-layer-tags:40172b669e91c0c1}
.monochrome-23 {-sfsymbols-variable-threshold:0.93;-sfsymbols-motion-group:0;-sfsymbols-layer-tags:40172b669e91c0c1}
.monochrome-24 {-sfsymbols-variable-threshold:0.97;-sfsymbols-motion-group:0;-sfsymbols-layer-tags:40172b669e91c0c1}

.multicolor-0:labelColor {-sfsymbols-motion-group:0;-sfsymbols-layer-tags:40172b669e91c0c1}
.multicolor-1:tintColor {-sfsymbols-variable-threshold:0.0;-sfsymbols-motion-group:0;-sfsymbols-layer-tags:40172b669e91c0c1}
.multicolor-2:tintColor {-sfsymbols-variable-threshold:0.05;-sfsymbols-motion-group:0;-sfsymbols-layer-tags:40172b669e91c0c1}
.multicolor-3:tintColor {-sfsymbols-variable-threshold:0.09;-sfsymbols-motion-group:0;-sfsymbols-layer-tags:40172b669e91c0c1}
.multicolor-4:tintColor {-sfsymbols-variable-threshold:0.14;-sfsymbols-motion-group:0;-sfsymbols-layer-tags:40172b669e91c0c1}
.multicolor-5:tintColor {-sfsymbols-variable-threshold:0.18;-sfsymbols-motion-group:0;-sfsymbols-layer-tags:40172b669e91c0c1}
.multicolor-6:tintColor {-sfsymbols-variable-threshold:0.22;-sfsymbols-motion-group:0;-sfsymbols-layer-tags:40172b669e91c0c1}
.multicolor-7:tintColor {-sfsymbols-variable-threshold:0.26;-sfsymbols-motion-group:0;-sfsymbols-layer-tags:40172b669e91c0c1}
.multicolor-8:tintColor {-sfsymbols-variable-threshold:0.3;-sfsymbols-motion-group:0;-sfsymbols-layer-tags:40172b669e91c0c1}
.multicolor-9:tintColor {-sfsymbols-variable-threshold:0.34;-sfsymbols-motion-group:0;-sfsymbols-layer-tags:40172b669e91c0c1}
.multicolor-10:tintColor {-sfsymbols-variable-threshold:0.39;-sfsymbols-motion-group:0;-sfsymbols-layer-tags:40172b669e91c0c1}
.multicolor-11:tintColor {-sfsymbols-variable-threshold:0.43;-sfsymbols-motion-group:0;-sfsymbols-layer-tags:40172b669e91c0c1}
.multicolor-12:tintColor {-sfsymbols-variable-threshold:0.47;-sfsymbols-motion-group:0;-sfsymbols-layer-tags:40172b669e91c0c1}
.multicolor-13:tintColor {-sfsymbols-variable-threshold:0.51;-sfsymbols-motion-group:0;-sfsymbols-layer-tags:40172b669e91c0c1}
.multicolor-14:tintColor {-sfsymbols-variable-threshold:0.55;-sfsymbols-motion-group:0;-sfsymbols-layer-tags:40172b669e91c0c1}
.multicolor-15:tintColor {-sfsymbols-variable-threshold:0.59;-sfsymbols-motion-group:0;-sfsymbols-layer-tags:40172b669e91c0c1}
.multicolor-16:tintColor {-sfsymbols-variable-threshold:0.64;-sfsymbols-motion-group:0;-sfsymbols-layer-tags:40172b669e91c0c1}
.multicolor-17:tintColor {-sfsymbols-variable-threshold:0.68;-sfsymbols-motion-group:0;-sfsymbols-layer-tags:40172b669e91c0c1}
.multicolor-18:tintColor {-sfsymbols-variable-threshold:0.72;-sfsymbols-motion-group:0;-sfsymbols-layer-tags:40172b669e91c0c1}
.multicolor-19:tintColor {-sfsymbols-variable-threshold:0.76;-sfsymbols-motion-group:0;-sfsymbols-layer-tags:40172b669e91c0c1}
.multicolor-20:tintColor {-sfsymbols-variable-threshold:0.8;-sfsymbols-motion-group:0;-sfsymbols-layer-tags:40172b669e91c0c1}
.multicolor-21:tintColor {-sfsymbols-variable-threshold:0.84;-sfsymbols-motion-group:0;-sfsymbols-layer-tags:40172b669e91c0c1}
.multicolor-22:tintColor {-sfsymbols-variable-threshold:0.89;-sfsymbols-motion-group:0;-sfsymbols-layer-tags:40172b669e91c0c1}
.multicolor-23:tintColor {-sfsymbols-variable-threshold:0.93;-sfsymbols-motion-group:0;-sfsymbols-layer-tags:40172b669e91c0c1}
.multicolor-24:tintColor {-sfsymbols-variable-threshold:0.97;-sfsymbols-motion-group:0;-sfsymbols-layer-tags:40172b669e91c0c1}

.hierarchical-0:primary {-sfsymbols-motion-group:0;-sfsymbols-layer-tags:40172b669e91c0c1}
.hierarchical-1:primary {-sfsymbols-variable-threshold:0.0;-sfsymbols-motion-group:0;-sfsymbols-layer-tags:40172b669e91c0c1}
.hierarchical-2:primary {-sfsymbols-variable-threshold:0.05;-sfsymbols-motion-group:0;-sfsymbols-layer-tags:40172b669e91c0c1}
.hierarchical-3:primary {-sfsymbols-variable-threshold:0.09;-sfsymbols-motion-group:0;-sfsymbols-layer-tags:40172b669e91c0c1}
.hierarchical-4:primary {-sfsymbols-variable-threshold:0.14;-sfsymbols-motion-group:0;-sfsymbols-layer-tags:40172b669e91c0c1}
.hierarchical-5:primary {-sfsymbols-variable-threshold:0.18;-sfsymbols-motion-group:0;-sfsymbols-layer-tags:40172b669e91c0c1}
.hierarchical-6:primary {-sfsymbols-variable-threshold:0.22;-sfsymbols-motion-group:0;-sfsymbols-layer-tags:40172b669e91c0c1}
.hierarchical-7:primary {-sfsymbols-variable-threshold:0.26;-sfsymbols-motion-group:0;-sfsymbols-layer-tags:40172b669e91c0c1}
.hierarchical-8:primary {-sfsymbols-variable-threshold:0.3;-sfsymbols-motion-group:0;-sfsymbols-layer-tags:40172b669e91c0c1}
.hierarchical-9:primary {-sfsymbols-variable-threshold:0.34;-sfsymbols-motion-group:0;-sfsymbols-layer-tags:40172b669e91c0c1}
.hierarchical-10:primary {-sfsymbols-variable-threshold:0.39;-sfsymbols-motion-group:0;-sfsymbols-layer-tags:40172b669e91c0c1}
.hierarchical-11:primary {-sfsymbols-variable-threshold:0.43;-sfsymbols-motion-group:0;-sfsymbols-layer-tags:40172b669e91c0c1}
.hierarchical-12:primary {-sfsymbols-variable-threshold:0.47;-sfsymbols-motion-group:0;-sfsymbols-layer-tags:40172b669e91c0c1}
.hierarchical-13:primary {-sfsymbols-variable-threshold:0.51;-sfsymbols-motion-group:0;-sfsymbols-layer-tags:40172b669e91c0c1}
.hierarchical-14:primary {-sfsymbols-variable-threshold:0.55;-sfsymbols-motion-group:0;-sfsymbols-layer-tags:40172b669e91c0c1}
.hierarchical-15:primary {-sfsymbols-variable-threshold:0.59;-sfsymbols-motion-group:0;-sfsymbols-layer-tags:40172b669e91c0c1}
.hierarchical-16:primary {-sfsymbols-variable-threshold:0.64;-sfsymbols-motion-group:0;-sfsymbols-layer-tags:40172b669e91c0c1}
.hierarchical-17:primary {-sfsymbols-variable-threshold:0.68;-sfsymbols-motion-group:0;-sfsymbols-layer-tags:40172b669e91c0c1}
.hierarchical-18:primary {-sfsymbols-variable-threshold:0.72;-sfsymbols-motion-group:0;-sfsymbols-layer-tags:40172b669e91c0c1}
.hierarchical-19:primary {-sfsymbols-variable-threshold:0.76;-sfsymbols-motion-group:0;-sfsymbols-layer-tags:40172b669e91c0c1}
.hierarchical-20:primary {-sfsymbols-variable-threshold:0.8;-sfsymbols-motion-group:0;-sfsymbols-layer-tags:40172b669e91c0c1}
.hierarchical-21:primary {-sfsymbols-variable-threshold:0.84;-sfsymbols-motion-group:0;-sfsymbols-layer-tags:40172b669e91c0c1}
.hierarchical-22:primary {-sfsymbols-variable-threshold:0.89;-sfsymbols-motion-group:0;-sfsymbols-layer-tags:40172b669e91c0c1}
.hierarchical-23:primary {-sfsymbols-variable-threshold:0.93;-sfsymbols-motion-group:0;-sfsymbols-layer-tags:40172b669e91c0c1}
.hierarchical-24:primary {-sfsymbols-variable-threshold:0.97;-sfsymbols-motion-group:0;-sfsymbols-layer-tags:40172b669e91c0c1}

.SFSymbolsPreviewWireframe {fill:none;opacity:1.0;stroke:black;stroke-width:0.5}
</style>
 <g id="Notes">
  <rect height="2200" id="artboard" style="fill:white;opacity:1" width="3300" x="0" y="0"/>
  <line style="fill:none;stroke:black;opacity:1;stroke-width:0.5;" x1="263" x2="3036" y1="292" y2="292"/>
  <text style="stroke:none;fill:black;font-family:sans-serif;font-size:13;font-weight:bold;" transform="matrix(1 0 0 1 263 322)">Weight/Scale Variations</text>
  <text style="stroke:none;fill:black;font-family:sans-serif;font-size:13;text-anchor:middle;" transform="matrix(1 0 0 1 559.711 322)">Ultralight</text>
  <text style="stroke:none;fill:black;font-family:sans-serif;font-size:13;text-anchor:middle;" transform="matrix(1 0 0 1 856.422 322)">Thin</text>
  <text style="stroke:none;fill:black;font-family:sans-serif;font-size:13;text-anchor:middle;" transform="matrix(1 0 0 1 1153.13 322)">Light</text>
  <text style="stroke:none;fill:black;font-family:sans-serif;font-size:13;text-anchor:middle;" transform="matrix(1 0 0 1 1449.84 322)">Regular</text>
  <text style="stroke:none;fill:black;font-family:sans-serif;font-size:13;text-anchor:middle;" transform="matrix(1 0 0 1 1746.56 322)">Medium</text>
  <text style="stroke:none;fill:black;font-family:sans-serif;font-size:13;text-anchor:middle;" transform="matrix(1 0 0 1 2043.27 322)">Semibold</text>
  <text style="stroke:none;fill:black;font-family:sans-serif;font-size:13;text-anchor:middle;" transform="matrix(1 0 0 1 2339.98 322)">Bold</text>
  <text style="stroke:none;fill:black;font-family:sans-serif;font-size:13;text-anchor:middle;" transform="matrix(1 0 0 1 2636.69 322)">Heavy</text>
  <text style="stroke:none;fill:black;font-family:sans-serif;font-size:13;text-anchor:middle;" transform="matrix(1 0 0 1 2933.4 322)">Black</text>
  <line style="fill:none;stroke:black;opacity:1;stroke-width:0.5;" x1="263" x2="3036" y1="1903" y2="1903"/>
  <g transform="matrix(0.2 0 0 0.2 263 1933)">
   <path d="m46.2402 4.15039c21.7773 0 39.4531-17.627 39.4531-39.4043s-17.6758-39.4043-39.4531-39.4043c-21.7285 0-39.4043 17.627-39.4043 39.4043s17.6758 39.4043 39.4043 39.4043Zm0-7.42188c-17.6758 0-31.9336-14.3066-31.9336-31.9824s14.2578-31.9824 31.9336-31.9824 31.9824 14.3066 31.9824 31.9824-14.3066 31.9824-31.9824 31.9824Zm3.61328-17.7734v-28.4668c0-2.24609-1.46484-3.75977-3.71094-3.75977-2.14844 0-3.61328 1.51367-3.61328 3.75977v28.4668c0 2.19727 1.46484 3.71094 3.61328 3.71094 2.24609 0 3.71094-1.51367 3.71094-3.71094Zm-17.8223-10.5957h28.418c2.19727 0 3.71094-1.46484 3.71094-3.61328 0-2.19727-1.51367-3.71094-3.71094-3.71094h-28.418c-2.24609 0-3.75977 1.51367-3.75977 3.71094 0 2.14844 1.51367 3.61328 3.75977 3.61328Z"/>
  </g>
  <g transform="matrix(0.2 0 0 0.2 281.506 1933)">
   <path d="m58.5449 14.5508c27.4902 0 49.8047-22.3145 49.8047-49.8047s-22.3145-49.8047-49.8047-49.8047-49.8047 22.3145-49.8047 49.8047 22.3145 49.8047 49.8047 49.8047Zm0-8.30078c-22.9492 0-41.5039-18.5547-41.5039-41.5039s18.5547-41.5039 41.5039-41.5039 41.5039 18.5547 41.5039 41.5039-18.5547 41.5039-41.5039 41.5039Zm4.05273-23.0957v-36.9141c0-2.49023-1.70898-4.19922-4.15039-4.19922-2.39258 0-4.05273 1.70898-4.05273 4.19922v36.9141c0 2.44141 1.66016 4.15039 4.05273 4.15039 2.44141 0 4.15039-1.66016 4.15039-4.15039Zm-22.5586-14.4043h36.9629c2.44141 0 4.15039-1.61133 4.15039-4.00391 0-2.44141-1.70898-4.15039-4.15039-4.15039h-36.9629c-2.49023 0-4.15039 1.70898-4.15039 4.15039 0 2.39258 1.66016 4.00391 4.15039 4.00391Z"/>
  </g>
  <g transform="matrix(0.2 0 0 0.2 304.924 1933)">
   <path d="m74.8535 28.3203c35.1074 0 63.623-28.4668 63.623-63.5742s-28.5156-63.623-63.623-63.623-63.5742 28.5156-63.5742 63.623 28.4668 63.5742 63.5742 63.5742Zm0-9.08203c-30.127 0-54.4922-24.3652-54.4922-54.4922s24.3652-54.4922 54.4922-54.4922 54.4922 24.3652 54.4922 54.4922-24.3652 54.4922-54.4922 54.4922Zm4.44336-30.3223v-48.4863c0-2.73438-1.85547-4.63867-4.54102-4.63867-2.58789 0-4.44336 1.9043-4.44336 4.63867v48.4863c0 2.68555 1.85547 4.58984 4.44336 4.58984 2.68555 0 4.54102-1.85547 4.54102-4.58984Zm-28.7109-19.7754h48.4863c2.68555 0 4.58984-1.80664 4.58984-4.39453 0-2.73438-1.85547-4.58984-4.58984-4.58984h-48.4863c-2.73438 0-4.58984 1.85547-4.58984 4.58984 0 2.58789 1.85547 4.39453 4.58984 4.39453Z"/>
  </g>
  <text style="stroke:none;fill:black;font-family:sans-serif;font-size:13;font-weight:bold;" transform="matrix(1 0 0 1 263 1953)">Design Variations</text>
  <text style="stroke:none;fill:black;font-family:sans-serif;font-size:13;" transform="matrix(1 0 0 1 263 1971)">Symbols are supported in up to nine weights and three scales.</text>
  <text style="stroke:none;fill:black;font-family:sans-serif;font-size:13;" transform="matrix(1 0 0 1 263 1989)">For optimal layout with text and other symbols, vertically align</text>
  <text style="stroke:none;fill:black;font-family:sans-serif;font-size:13;" transform="matrix(1 0 0 1 263 2007)">symbols with the adjacent text.</text>
  <line style="fill:none;stroke:#00AEEF;stroke-width:0.5;opacity:1.0;" x1="776" x2="776" y1="1919" y2="1933"/>
  <g transform="matrix(0.2 0 0 0.2 776 1933)">
   <path d="m16.5527 0.78125c2.58789 0 3.85742-0.976562 4.78516-3.71094l20.5566-57.5195h0.244141l20.6055 57.5195c0.927734 2.73438 2.19727 3.71094 4.73633 3.71094 2.58789 0 4.24805-1.5625 4.24805-4.00391 0-0.830078-0.146484-1.61133-0.537109-2.63672l-22.9004-60.9863c-1.12305-2.97852-3.125-4.49219-6.25-4.49219-3.02734 0-5.07812 1.46484-6.15234 4.44336l-22.9004 61.084c-0.390625 1.02539-0.537109 1.80664-0.537109 2.63672 0 2.44141 1.5625 3.95508 4.10156 3.95508Zm10.2051-20.9473h30.6641c2.00195 0 3.66211-1.66016 3.66211-3.66211 0-2.05078-1.66016-3.66211-3.66211-3.66211h-30.6641c-2.00195 0-3.66211 1.61133-3.66211 3.66211 0 2.00195 1.66016 3.66211 3.66211 3.66211Z"/>
  </g>
  <line style="fill:none;stroke:#00AEEF;stroke-width:0.5;opacity:1.0;" x1="792.836" x2="792.836" y1="1919" y2="1933"/>
  <text style="stroke:none;fill:black;font-family:sans-serif;font-size:13;font-weight:bold;" transform="matrix(1 0 0 1 776 1953)">Margins</text>
  <text style="stroke:none;fill:black;font-family:sans-serif;font-size:13;" transform="matrix(1 0 0 1 776 1971)">Leading and trailing margins on the left and right side of each symbol</text>
  <text style="stroke:none;fill:black;font-family:sans-serif;font-size:13;" transform="matrix(1 0 0 1 776 1989)">can be adjusted by modifying the x-location of the margin guidelines.</text>
  <text style="stroke:none;fill:black;font-family:sans-serif;font-size:13;" transform="matrix(1 0 0 1 776 2007)">Modifications are automatically applied proportionally to all</text>
  <text style="stroke:none;fill:black;font-family:sans-serif;font-size:13;" transform="matrix(1 0 0 1 776 2025)">scales and weights.</text>
  <g transform="matrix(0.2 0 0 0.2 1289 1933)">
   <path d="m14.209 13.1348 7.86133 7.86133c4.29688 4.39453 9.32617 4.10156 13.8672-1.02539l60.6934-68.2129-4.88281-4.88281-60.2539 67.6758c-1.80664 1.95312-3.4668 2.44141-5.81055 0.0976562l-5.17578-5.12695c-2.29492-2.29492-1.80664-3.95508 0.195312-5.81055l67.4805-62.1582-4.88281-4.83398-68.0664 62.5977c-4.98047 4.58984-5.32227 9.47266-1.02539 13.8184Zm44.873-97.4609c-2.05078 2.00195-2.24609 4.88281-1.07422 6.78711 1.12305 1.80664 3.4668 3.02734 6.5918 2.24609 5.85938-1.66016 12.5977-2.39258 18.8965 0.927734l-2.68555 7.12891c-1.61133 4.00391-0.732422 6.88477 1.70898 9.42383l10.2539 10.3027c2.34375 2.39258 4.54102 2.44141 7.08008 1.95312l4.44336-0.732422 2.58789 2.53906-0.195312 2.24609c-0.0976562 2.29492 0.537109 4.29688 2.7832 6.49414l3.36914 3.32031c2.29492 2.29492 5.51758 2.49023 7.8125 0.195312l12.9883-13.0371c2.29492-2.34375 2.14844-5.37109-0.195312-7.66602l-3.41797-3.41797c-2.19727-2.19727-4.05273-3.02734-6.34766-2.88086l-2.34375 0.244141-2.44141-2.44141 1.02539-4.6875c0.634766-2.73438-0.244141-4.98047-2.88086-7.61719l-11.2793-11.1816c-12.9395-12.8418-35.5957-11.0352-46.6797-0.146484Zm7.08008 2.05078c8.78906-6.39648 25.9766-5.66406 33.6914 1.95312l12.3047 12.207c1.02539 1.02539 1.2207 1.80664 0.927734 3.32031l-1.46484 6.64062 6.73828 6.68945 4.39453-0.244141c1.12305-0.0488281 1.51367 0.0488281 2.34375 0.878906l2.53906 2.49023-10.8398 10.8398-2.49023-2.49023c-0.830078-0.878906-0.976562-1.2207-0.927734-2.39258l0.292969-4.3457-6.68945-6.73828-6.83594 1.17188c-1.41602 0.292969-2.05078 0.195312-3.17383-0.878906l-8.93555-8.88672c-1.07422-1.02539-1.17188-1.70898-0.488281-3.36914l4.58984-11.4746c-6.10352-6.34766-17.041-7.51953-25.5859-4.58984-0.683594 0.244141-0.927734-0.390625-0.390625-0.78125Z"/>
  </g>
  <text style="stroke:none;fill:black;font-family:sans-serif;font-size:13;font-weight:bold;" transform="matrix(1 0 0 1 1289 1953)">Exporting</text>
  <text style="stroke:none;fill:black;font-family:sans-serif;font-size:13;" transform="matrix(1 0 0 1 1289 1971)">Symbols should be outlined when exporting to ensure the</text>
  <text style="stroke:none;fill:black;font-family:sans-serif;font-size:13;" transform="matrix(1 0 0 1 1289 1989)">design is preserved when submitting to Xcode.</text>
  <text id="template-version" style="stroke:none;fill:black;font-family:sans-serif;font-size:13;text-anchor:end;" transform="matrix(1 0 0 1 3036 1933)">Template v.6.0</text>
  <text style="stroke:none;fill:black;font-family:sans-serif;font-size:13;text-anchor:end;" transform="matrix(1 0 0 1 3036 1951)">Requires Xcode 16 or greater</text>
  <text id="descriptive-name" style="stroke:none;fill:black;font-family:sans-serif;font-size:13;text-anchor:end;" transform="matrix(1 0 0 1 3036 1969)">Generated from look-away-icon-symbol-template</text>
  <text style="stroke:none;fill:black;font-family:sans-serif;font-size:13;text-anchor:end;" transform="matrix(1 0 0 1 3036 1987)">Typeset at 100.0 points</text>
  <text style="stroke:none;fill:black;font-family:sans-serif;font-size:13;" transform="matrix(1 0 0 1 263 726)">Small</text>
  <text style="stroke:none;fill:black;font-family:sans-serif;font-size:13;" transform="matrix(1 0 0 1 263 1156)">Medium</text>
  <text style="stroke:none;fill:black;font-family:sans-serif;font-size:13;" transform="matrix(1 0 0 1 263 1586)">Large</text>
 </g>
 <g id="Guides">
  <g id="H-reference" style="fill:#27AAE1;stroke:none;" transform="matrix(1 0 0 1 339 696)">
   <path d="M0.993654 0L3.63775 0L29.3281-67.1323L30.0303-67.1323L30.0303-70.459L28.1226-70.459ZM11.6885-24.4799L46.9815-24.4799L46.2315-26.7285L12.4385-26.7285ZM55.1196 0L57.7637 0L30.6382-70.459L29.4326-70.459L29.4326-67.1323Z"/>
  </g>
  <line id="Baseline-S" style="fill:none;stroke:#27AAE1;opacity:1;stroke-width:0.5;" x1="263" x2="3036" y1="696" y2="696"/>
  <line id="Capline-S" style="fill:none;stroke:#27AAE1;opacity:1;stroke-width:0.5;" x1="263" x2="3036" y1="625.541" y2="625.541"/>
  <g id="H-reference" style="fill:#27AAE1;stroke:none;" transform="matrix(1 0 0 1 339 1126)">
   <path d="M0.993654 0L3.63775 0L29.3281-67.1323L30.0303-67.1323L30.0303-70.459L28.1226-70.459ZM11.6885-24.4799L46.9815-24.4799L46.2315-26.7285L12.4385-26.7285ZM55.1196 0L57.7637 0L30.6382-70.459L29.4326-70.459L29.4326-67.1323Z"/>
  </g>
  <line id="Baseline-M" style="fill:none;stroke:#27AAE1;opacity:1;stroke-width:0.5;" x1="263" x2="3036" y1="1126" y2="1126"/>
  <line id="Capline-M" style="fill:none;stroke:#27AAE1;opacity:1;stroke-width:0.5;" x1="263" x2="3036" y1="1055.54" y2="1055.54"/>
  <g id="H-reference" style="fill:#27AAE1;stroke:none;" transform="matrix(1 0 0 1 339 1556)">
   <path d="M0.993654 0L3.63775 0L29.3281-67.1323L30.0303-67.1323L30.0303-70.459L28.1226-70.459ZM11.6885-24.4799L46.9815-24.4799L46.2315-26.7285L12.4385-26.7285ZM55.1196 0L57.7637 0L30.6382-70.459L29.4326-70.459L29.4326-67.1323Z"/>
  </g>
  <line id="Baseline-L" style="fill:none;stroke:#27AAE1;opacity:1;stroke-width:0.5;" x1="263" x2="3036" y1="1556" y2="1556"/>
  <line id="Capline-L" style="fill:none;stroke:#27AAE1;opacity:1;stroke-width:0.5;" x1="263" x2="3036" y1="1485.54" y2="1485.54"/>
  <line id="right-margin-Black-S" style="fill:none;stroke:#00AEEF;stroke-width:0.5;opacity:1.0;" x1="2984.13" x2="2984.13" y1="600.785" y2="720.121"/>
  <line id="left-margin-Black-S" style="fill:none;stroke:#00AEEF;stroke-width:0.5;opacity:1.0;" x1="2882.67" x2="2882.67" y1="600.785" y2="720.121"/>
  <line id="right-margin-Regular-S" style="fill:none;stroke:#00AEEF;stroke-width:0.5;opacity:1.0;" x1="1500.16" x2="1500.16" y1="600.785" y2="720.121"/>
  <line id="left-margin-Regular-S" style="fill:none;stroke:#00AEEF;stroke-width:0.5;opacity:1.0;" x1="1399.53" x2="1399.53" y1="600.785" y2="720.121"/>
  <line id="right-margin-Ultralight-S" style="fill:none;stroke:#00AEEF;stroke-width:0.5;opacity:1.0;" x1="608.099" x2="608.099" y1="600.785" y2="720.121"/>
  <line id="left-margin-Ultralight-S" style="fill:none;stroke:#00AEEF;stroke-width:0.5;opacity:1.0;" x1="511.324" x2="511.324" y1="600.785" y2="720.121"/>
 </g>
 <g id="Symbols">
  <g id="Black-L" transform="matrix(1 0 0 1 2847.92 1556)">
   <path class="monochrome-0 multicolor-0:labelColor hierarchical-0:primary SFSymbolsPreviewWireframe" d="M85.4741-102.967C128.184-102.967 148.476-71.9452 163.193-36.7329C163.58-35.7775 163.58-34.7011 163.158-33.7517C148.036 0.994201 128.149 32.4274 85.4741 32.4274C42.7815 32.4274 22.4725 1.07596 7.75516-33.7926C7.36833-34.745 7.36833-35.8215 7.77275-36.7708C22.6835-71.438 42.7815-102.967 85.4741-102.967ZM85.4741-95.3676C46.8608-95.3676 29.0136-66.54 15.404-35.2552C28.8378-3.81291 46.8608 24.8299 85.4741 24.8299C124.087 24.8299 141.741-3.93555 155.544-35.3006C142.111-67.0306 124.07-95.3676 85.4741-95.3676Z"/>
   <path class="monochrome-1 multicolor-1:tintColor hierarchical-1:primary SFSymbolsPreviewWireframe" d="M85.4636-90.5135C83.0858-90.5135 81.2708-88.7314 81.2708-86.3956L81.2708-62.65C81.2708-60.3142 83.0858-58.5322 85.4636-58.5322C87.8427-58.5322 89.6577-60.3142 89.6577-62.65L89.6577-86.3956C89.6577-88.7314 87.8427-90.5135 85.4636-90.5135Z"/>
   <path class="monochrome-2 multicolor-2:tintColor hierarchical-2:primary SFSymbolsPreviewWireframe" d="M99.9225-88.301C97.919-88.8535 95.7284-87.6252 95.1657-85.5977L92.7892-76.6824C92.2265-74.592 93.3532-72.5646 95.5425-71.9504C97.6088-71.3967 99.611-72.5646 100.238-74.7154L102.676-83.569C103.301-85.7198 102.05-87.6868 99.9225-88.301Z"/>
   <path class="monochrome-3 multicolor-3:tintColor hierarchical-3:primary SFSymbolsPreviewWireframe" d="M113.566-83.1386C111.501-84.3065 109.061-83.6307 107.871-81.6032L95.8245-61.0542C94.635-59.0267 95.2618-56.5689 97.3896-55.401C99.3918-54.2947 101.895-54.9089 103.085-56.9376L115.131-77.4853C116.321-79.5141 115.57-81.9719 113.566-83.1386Z"/>
   <path class="monochrome-4 multicolor-4:tintColor hierarchical-4:primary SFSymbolsPreviewWireframe" d="M124.958-74.0446C123.455-75.5195 120.952-75.6416 119.512-74.1062L112.993-67.4777C111.492-65.941 111.366-63.6681 112.932-62.1315C114.433-60.6565 116.812-60.6565 118.377-62.1315L125.02-68.6367C126.647-70.2351 126.585-72.4463 124.958-74.0446Z"/>
   <path class="monochrome-5 multicolor-5:tintColor hierarchical-5:primary SFSymbolsPreviewWireframe" d="M134.158-62.9218C132.969-64.9493 130.528-65.5635 128.462-64.3968L107.615-52.5228C105.55-51.3561 104.861-48.8982 106.112-46.8695C107.239-44.9037 109.742-44.2279 111.809-45.3945L132.656-57.2686C134.721-58.4365 135.347-60.9548 134.158-62.9218Z"/>
   <path class="monochrome-6 multicolor-6:tintColor hierarchical-6:primary SFSymbolsPreviewWireframe" d="M139.478-49.525C138.915-51.492 136.787-52.8437 134.721-52.2295L125.764-49.6961C123.636-49.082 122.384-47.1766 122.948-45.0875C123.51-43.06 125.638-41.8304 127.767-42.3829L136.662-44.7326C138.978-45.3467 140.103-47.4359 139.478-49.525Z"/>
   <path class="monochrome-7 multicolor-7:tintColor hierarchical-7:primary SFSymbolsPreviewWireframe" d="M141.731-35.2686C141.731-37.6044 139.916-39.3864 137.537-39.3864L113.446-39.3864C111.068-39.3864 109.253-37.6044 109.253-35.2686C109.253-32.934 111.068-31.152 113.446-31.152L137.537-31.152C139.916-31.152 141.731-32.934 141.731-35.2686Z"/>
   <path class="monochrome-8 multicolor-8:tintColor hierarchical-8:primary SFSymbolsPreviewWireframe" d="M139.478-21.0738C139.916-22.9792 138.915-25.3137 136.725-25.8058L126.136-28.4072C123.945-28.898 121.943-27.9151 121.316-25.7643C120.753-23.8602 121.943-21.7094 124.008-21.1556L134.721-18.3089C136.975-17.6934 138.978-18.923 139.478-21.0738Z"/>
   <path class="monochrome-9 multicolor-9:tintColor hierarchical-9:primary SFSymbolsPreviewWireframe" d="M134.22-7.67695C135.409-9.644 134.721-12.1019 132.656-13.2698L111.809-25.1426C109.742-26.3105 107.239-25.6347 106.051-23.6676C104.861-21.6401 105.55-19.1823 107.615-18.0144L128.462-6.14156C130.528-4.97366 133.032-5.64948 134.22-7.67695Z"/>
   <path class="monochrome-10 multicolor-10:tintColor hierarchical-10:primary SFSymbolsPreviewWireframe" d="M125.083 3.50619C126.523 2.03121 126.773-0.364994 125.083-1.90164L118.377-8.22188C116.749-9.75853 114.495-9.81893 112.932-8.28355C111.492-6.87024 111.429-4.41237 112.932-2.93739L119.45 3.56786C121.14 5.22657 123.518 5.1045 125.083 3.50619Z"/>
   <path class="monochrome-11 multicolor-11:tintColor hierarchical-11:primary SFSymbolsPreviewWireframe" d="M113.629 12.5398C115.694 11.4336 116.321 8.97568 115.131 6.94822L103.085-13.6008C101.895-15.6282 99.3918-16.304 97.3896-15.1361C95.3246-13.9695 94.635-11.5116 95.8245-9.48291L107.871 11.0648C109.061 13.0923 111.564 13.7077 113.629 12.5398Z"/>
   <path class="monochrome-12 multicolor-12:tintColor hierarchical-12:primary SFSymbolsPreviewWireframe" d="M99.9225 17.7626C101.925 17.2101 103.427 15.1827 102.739 13.0319L100.175 4.36198C99.4866 2.21118 97.6716 0.859538 95.5425 1.53536C93.5403 2.14951 92.1008 4.17823 92.6636 6.08236L95.1657 15.121C95.7912 17.3335 97.7947 18.378 99.9225 17.7626Z"/>
   <path class="monochrome-13 multicolor-13:tintColor hierarchical-13:primary SFSymbolsPreviewWireframe" d="M85.4636 19.9751C87.8427 19.9751 89.6577 18.193 89.6577 15.8585L89.6577-7.88838C89.6577-10.2229 87.8427-12.005 85.4636-12.005C83.0858-12.005 81.2708-10.2229 81.2708-7.88838L81.2708 15.8585C81.2708 18.193 83.0858 19.9751 85.4636 19.9751Z"/>
   <path class="monochrome-14 multicolor-14:tintColor hierarchical-14:primary SFSymbolsPreviewWireframe" d="M70.9432 17.8859C72.9467 18.5001 75.2001 17.2101 75.7628 15.1827L78.1393 6.26736C78.702 4.17823 77.5753 2.14951 75.3847 1.53536C73.3197 0.981614 71.3175 2.14951 70.6907 4.30031L68.2527 13.1539C67.6259 15.3047 68.8782 17.2718 70.9432 17.8859Z"/>
   <path class="monochrome-15 multicolor-15:tintColor hierarchical-15:primary SFSymbolsPreviewWireframe" d="M57.3624 12.6015C59.3646 13.7694 61.868 13.0923 63.0575 11.0648L75.104-9.48291C76.2922-11.5116 75.6039-13.9695 73.6017-15.1361C71.5354-16.304 69.032-15.6282 67.781-13.6008L55.7973 6.94822C54.6078 8.97568 55.2961 11.4336 57.3624 12.6015Z"/>
   <path class="monochrome-16 multicolor-16:tintColor hierarchical-16:primary SFSymbolsPreviewWireframe" d="M45.9081 3.62952C47.4104 5.1045 49.9766 5.22657 51.4161 3.69119L57.9341-2.93739C59.4364-4.47278 59.562-6.74691 57.9969-8.28355C56.4946-9.75853 54.054-9.81893 52.4889-8.28355L45.9081-1.7783C44.2815-0.179992 44.343 2.09288 45.9081 3.62952Z"/>
   <path class="monochrome-17 multicolor-17:tintColor hierarchical-17:primary SFSymbolsPreviewWireframe" d="M36.7701-7.61654C37.8968-5.58782 40.4002-4.97366 42.4664-6.14156L63.3139-18.0144C65.3789-19.1823 66.0672-21.6401 64.8777-23.6059C63.6894-25.6347 61.1848-26.3105 59.057-25.1426L38.2723-13.2698C36.2073-12.1019 35.5805-9.644 36.7701-7.61654Z"/>
   <path class="monochrome-18 multicolor-18:tintColor hierarchical-18:primary SFSymbolsPreviewWireframe" d="M31.3877-21.0121C31.8889-19.0463 34.1411-17.633 36.1445-18.2472L45.1018-20.7806C47.2925-21.3947 48.5435-23.2384 47.9808-25.3276C47.4181-27.4167 45.289-28.6463 43.1612-28.0925L34.2039-25.6825C31.8889-25.0683 30.8865-23.1013 31.3877-21.0121Z"/>
   <path class="monochrome-19 multicolor-19:tintColor hierarchical-19:primary SFSymbolsPreviewWireframe" d="M29.1971-35.2686C29.1971-32.934 31.0122-31.152 33.3899-31.152L57.4829-31.152C59.8607-31.152 61.6757-32.934 61.6757-35.2686C61.6757-37.6044 59.8607-39.3864 57.4829-39.3864L33.3899-39.3864C31.0122-39.3864 29.1971-37.6044 29.1971-35.2686Z"/>
   <path class="monochrome-20 multicolor-20:tintColor hierarchical-20:primary SFSymbolsPreviewWireframe" d="M31.3877-49.525C30.7622-47.4359 32.0132-45.2234 34.2039-44.7326L44.7929-42.0696C46.9836-41.5775 48.9857-42.5 49.6113-44.6508C50.1753-46.6166 48.9229-48.7674 46.7951-49.3211L36.2073-52.1679C33.9539-52.782 31.9504-51.492 31.3877-49.525Z"/>
   <path class="monochrome-21 multicolor-21:tintColor hierarchical-21:primary SFSymbolsPreviewWireframe" d="M36.7073-62.9218C35.519-60.8944 36.2073-58.4365 38.2723-57.2686L59.1198-45.3945C61.1848-44.2279 63.6894-44.9037 64.8777-46.9312C66.0672-48.8982 65.3789-51.3561 63.3139-52.5228L42.4664-64.3968C40.4002-65.5635 37.8968-64.8876 36.7073-62.9218Z"/>
   <path class="monochrome-22 multicolor-22:tintColor hierarchical-22:primary SFSymbolsPreviewWireframe" d="M45.9081-74.1062C44.343-72.6313 44.2815-70.1117 45.7825-68.6984L52.4889-62.2548C54.1168-60.7799 56.3703-60.5949 57.9969-62.1315C59.562-63.6065 59.4992-66.0643 57.9969-67.5393L51.3533-74.1062C49.7266-75.7033 47.536-75.6416 45.9081-74.1062Z"/>
   <path class="monochrome-23 multicolor-23:tintColor hierarchical-23:primary SFSymbolsPreviewWireframe" d="M57.2996-83.1386C55.2333-81.9719 54.6078-79.5141 55.7973-77.4853L67.8438-56.9376C69.032-54.9089 71.5354-54.2331 73.6017-55.4626C75.6039-56.5689 76.2922-59.0267 75.104-61.0542L63.0575-81.6032C61.868-83.6307 59.3646-84.2448 57.2996-83.1386Z"/>
   <path class="monochrome-24 multicolor-24:tintColor hierarchical-24:primary SFSymbolsPreviewWireframe" d="M71.006-88.3627C68.8154-87.9322 67.5015-85.7198 68.1899-83.569L70.7535-74.8387C71.4418-72.6262 73.1941-71.3967 75.3847-71.9504C77.3882-72.4412 78.7648-74.6537 78.2021-76.6824L75.7628-85.5977C75.1373-87.8089 73.0723-88.7931 71.006-88.3627Z"/>
  </g>
  <g id="Regular-M" transform="matrix(1 0 0 1 1386.64 1126)">
   <path class="monochrome-0 multicolor-0:labelColor hierarchical-0:primary SFSymbolsPreviewWireframe" d="M63.1617-84.7328C94.7149-84.7328 109.659-61.7545 120.513-35.741C120.749-35.1879 120.749-34.5637 120.5-34.0128C109.318-8.34131 94.6887 14.9474 63.1617 14.9474C31.6215 14.9474 16.6773-8.27697 5.80997-34.0365C5.57401-34.5885 5.57401-35.2127 5.80997-35.7624C16.8346-61.3752 31.6215-84.7328 63.1617-84.7328ZM63.1617-80.3272C33.9811-80.3272 20.5051-58.5341 10.2277-34.8842C20.3609-11.1124 33.9942 10.5418 63.1617 10.5418C92.3422 10.5418 105.674-11.2005 116.083-34.9102C105.962-58.9032 92.3291-80.3272 63.1617-80.3272Z"/>
   <path class="monochrome-1 multicolor-1:tintColor hierarchical-1:primary SFSymbolsPreviewWireframe" d="M63.2342-76.181C61.8934-76.181 60.7836-75.0712 60.7836-73.7304L60.7836-55.4258C60.7836-54.0386 61.8934-53.0216 63.2342-53.0216C64.575-53.0216 65.6384-54.0386 65.6384-55.4258L65.6384-73.7304C65.6384-75.0712 64.575-76.181 63.2342-76.181Z"/>
   <path class="monochrome-2 multicolor-2:tintColor hierarchical-2:primary SFSymbolsPreviewWireframe" d="M74.0071-75.1176C72.7581-75.5333 71.4637-74.933 71.048-73.4066L68.5889-64.197C68.2187-62.9026 68.9128-61.5618 70.2536-61.2379C71.548-60.9141 72.8424-61.6082 73.2126-62.9026L75.6718-72.1586C75.9946-73.5458 75.3015-74.7474 74.0071-75.1176Z"/>
   <path class="monochrome-3 multicolor-3:tintColor hierarchical-3:primary SFSymbolsPreviewWireframe" d="M83.8085-70.6331C82.6533-71.2798 81.1733-70.956 80.5265-69.8008L71.351-53.8814C70.657-52.6789 71.0736-51.2453 72.2752-50.5985C73.385-49.9044 74.864-50.2747 75.5117-51.4772L84.6872-67.3502C85.3349-68.5064 84.9647-69.939 83.8085-70.6331Z"/>
   <path class="monochrome-4 multicolor-4:tintColor hierarchical-4:primary SFSymbolsPreviewWireframe" d="M92.6403-64.3911C91.6687-65.3153 90.1897-65.2698 89.2646-64.3911L82.5141-57.5942C81.4971-56.5309 81.4971-55.1437 82.5141-54.1731C83.4847-53.2016 84.9183-53.2016 85.8434-54.1731L92.5939-60.9236C93.5644-61.9869 93.6108-63.4196 92.6403-64.3911Z"/>
   <path class="monochrome-5 multicolor-5:tintColor hierarchical-5:primary SFSymbolsPreviewWireframe" d="M98.9277-55.5603C98.2346-56.7155 96.7546-57.1322 95.5993-56.4381L79.7254-47.309C78.5238-46.6158 78.1536-45.1358 78.8931-43.9806C79.4944-42.8708 80.928-42.4078 82.1296-43.1483L98.0035-52.2774C99.1587-52.9705 99.529-54.4041 98.9277-55.5603Z"/>
   <path class="monochrome-6 multicolor-6:tintColor hierarchical-6:primary SFSymbolsPreviewWireframe" d="M103.412-45.758C103.089-47.0524 101.702-47.8383 100.5-47.469L92.4594-45.2428C91.1186-44.8735 90.3327-43.6246 90.8411-42.0991C91.1186-41.1276 92.2748-40.2498 93.7084-40.6191L101.656-42.7989C102.997-43.1691 103.736-44.4635 103.412-45.758Z"/>
   <path class="monochrome-7 multicolor-7:tintColor hierarchical-7:primary SFSymbolsPreviewWireframe" d="M104.384-34.985C104.384-36.3258 103.32-37.3892 101.98-37.3892L83.675-37.3892C82.2878-37.3892 81.2708-36.3258 81.2708-34.985C81.2708-33.6442 82.2878-32.5808 83.675-32.5808L101.98-32.5808C103.32-32.5808 104.384-33.6442 104.384-34.985Z"/>
   <path class="monochrome-8 multicolor-8:tintColor hierarchical-8:primary SFSymbolsPreviewWireframe" d="M103.412-24.1203C103.782-25.4611 103.181-26.7555 101.749-27.1248L93.7084-29.351C92.3676-29.6748 91.0731-28.9343 90.7493-27.6399C90.4255-26.3455 91.165-24.9583 92.414-24.6344L100.408-22.5475C101.795-22.1782 103.043-22.8713 103.412-24.1203Z"/>
   <path class="monochrome-9 multicolor-9:tintColor hierarchical-9:primary SFSymbolsPreviewWireframe" d="M98.8813-14.4107C99.529-15.5195 99.1587-16.9995 98.0035-17.6927L82.1296-26.8227C80.928-27.5623 79.4944-27.1002 78.8467-25.9904C78.1536-24.8342 78.5238-23.3542 79.7254-22.6611L95.5993-13.532C96.7546-12.8379 98.1882-13.2545 98.8813-14.4107Z"/>
   <path class="monochrome-10 multicolor-10:tintColor hierarchical-10:primary SFSymbolsPreviewWireframe" d="M92.6403-5.57894C93.6108-6.55047 93.5644-8.12233 92.7321-8.95465L86.7335-14.815C85.762-15.7392 84.2829-15.8784 83.265-14.815C82.3872-13.8445 82.4336-12.4572 83.3578-11.4857L89.2182-5.62534C90.2351-4.60837 91.6687-4.56197 92.6403-5.57894Z"/>
   <path class="monochrome-11 multicolor-11:tintColor hierarchical-11:primary SFSymbolsPreviewWireframe" d="M83.8085 0.662097C84.9647 0.0153622 85.3349-1.41825 84.6872-2.61987L75.5117-18.4938C74.864-19.6954 73.385-20.0656 72.2752-19.3715C71.0736-18.7248 70.657-17.2912 71.351-16.0432L80.5265-0.169284C81.1733 0.985938 82.6069 1.35618 83.8085 0.662097Z"/>
   <path class="monochrome-12 multicolor-12:tintColor hierarchical-12:primary SFSymbolsPreviewWireframe" d="M74.0535 5.23943C75.579 4.87014 75.9946 3.52932 75.7172 2.32675L73.5848-5.80525C73.2145-7.14607 71.7809-7.84015 70.5329-7.51631C69.0993-7.09967 68.498-5.75885 68.8683-4.55723L71.1399 3.43652C71.5565 4.73094 72.5735 5.51687 74.0535 5.23943Z"/>
   <path class="monochrome-13 multicolor-13:tintColor hierarchical-13:primary SFSymbolsPreviewWireframe" d="M63.2342 6.21095C64.575 6.21095 65.6384 5.10118 65.6384 3.76037L65.6384-14.5442C65.6384-15.9314 64.575-16.9484 63.2342-16.9484C61.8934-16.9484 60.7836-15.9314 60.7836-14.5442L60.7836 3.76037C60.7836 5.10118 61.8934 6.21095 63.2342 6.21095Z"/>
   <path class="monochrome-14 multicolor-14:tintColor hierarchical-14:primary SFSymbolsPreviewWireframe" d="M52.2302 5.23943C53.7093 5.65607 55.0501 4.82374 55.3739 3.57572L57.8794-5.68026C58.2033-6.97563 57.5092-8.31644 56.2148-8.63934C54.9204-8.96318 53.6259-8.27004 53.2557-6.97563L50.7966 2.32675C50.4264 3.66757 50.8894 4.77734 52.2302 5.23943Z"/>
   <path class="monochrome-15 multicolor-15:tintColor hierarchical-15:primary SFSymbolsPreviewWireframe" d="M42.6589 0.662097C43.7687 1.35618 45.2487 0.985938 45.8954-0.169284L55.0709-16.0432C55.8114-17.2912 55.3484-18.7248 54.2386-19.3715C53.0834-20.0656 51.6034-19.6954 50.9102-18.4938L41.7811-2.61987C41.0871-1.41825 41.5037 0.0153622 42.6589 0.662097Z"/>
   <path class="monochrome-16 multicolor-16:tintColor hierarchical-16:primary SFSymbolsPreviewWireframe" d="M33.8281-5.57894C34.8451-4.60837 36.2787-4.60837 37.1574-5.48709L43.9543-12.284C44.9249-13.3009 44.9712-14.6882 43.9997-15.7051C43.0291-16.6293 41.5037-16.6757 40.5786-15.7051L33.8745-8.90826C32.8575-7.89128 32.8111-6.55047 33.8281-5.57894Z"/>
   <path class="monochrome-17 multicolor-17:tintColor hierarchical-17:primary SFSymbolsPreviewWireframe" d="M27.5861-14.4107C28.1874-13.2545 29.6674-12.8379 30.8226-13.532L46.6965-22.6611C47.8981-23.3542 48.2684-24.8342 47.6207-25.944C46.9276-27.1002 45.4939-27.5623 44.2914-26.8227L28.4184-17.6927C27.2632-16.9995 26.893-15.5659 27.5861-14.4107Z"/>
   <path class="monochrome-18 multicolor-18:tintColor hierarchical-18:primary SFSymbolsPreviewWireframe" d="M23.0088-24.2121C23.3326-22.9177 24.7198-22.2246 25.9678-22.5475L34.008-24.6344C35.3952-25.0047 36.0883-26.2527 35.7191-27.5935C35.3488-28.8425 34.0544-29.6284 32.76-29.3046L24.8126-27.1248C23.379-26.7555 22.6859-25.5065 23.0088-24.2121Z"/>
   <path class="monochrome-19 multicolor-19:tintColor hierarchical-19:primary SFSymbolsPreviewWireframe" d="M22.0382-34.985C22.0382-33.6442 23.1016-32.5808 24.4424-32.5808L42.7934-32.5808C44.1342-32.5808 45.1976-33.6442 45.1976-34.985C45.1976-36.3258 44.1342-37.3892 42.7934-37.3892L24.4424-37.3892C23.1016-37.3892 22.0382-36.3258 22.0382-34.985Z"/>
   <path class="monochrome-20 multicolor-20:tintColor hierarchical-20:primary SFSymbolsPreviewWireframe" d="M22.9633-45.7116C22.6859-44.4635 23.5173-43.1691 24.7198-42.7989L32.76-40.6191C34.1008-40.2498 35.4416-41.0357 35.6727-42.3766C35.9501-43.6246 35.3952-45.0118 34.0544-45.3356L26.0142-47.3762C24.5806-47.7464 23.2398-47.006 22.9633-45.7116Z"/>
   <path class="monochrome-21 multicolor-21:tintColor hierarchical-21:primary SFSymbolsPreviewWireframe" d="M27.5861-55.6057C26.893-54.4505 27.2632-52.9705 28.4184-52.2774L44.2914-43.1483C45.4939-42.4078 46.9276-42.8708 47.6207-43.9806C48.2684-45.1358 47.8981-46.6158 46.6965-47.2626L30.8226-56.4381C29.6674-57.1322 28.2338-56.7155 27.5861-55.6057Z"/>
   <path class="monochrome-22 multicolor-22:tintColor hierarchical-22:primary SFSymbolsPreviewWireframe" d="M33.7817-64.3911C32.8111-63.5124 32.9039-61.9405 33.8281-61.0154L39.6421-55.2014C40.66-54.1844 42.0463-54.138 43.0642-55.155C43.9884-56.0337 44.0812-57.5128 43.0642-58.5307L37.2038-64.3911C36.1859-65.4081 34.7996-65.3617 33.7817-64.3911Z"/>
   <path class="monochrome-23 multicolor-23:tintColor hierarchical-23:primary SFSymbolsPreviewWireframe" d="M42.6589-70.6786C41.5037-69.9854 41.0871-68.5064 41.7811-67.3502L50.9102-51.4772C51.6034-50.2747 53.0834-49.9044 54.1931-50.5985C55.3484-51.2453 55.8114-52.6789 55.0709-53.8814L45.8954-69.8008C45.2487-70.956 43.8151-71.2798 42.6589-70.6786Z"/>
   <path class="monochrome-24 multicolor-24:tintColor hierarchical-24:primary SFSymbolsPreviewWireframe" d="M52.4149-75.2104C51.074-74.933 50.3345-73.7768 50.7502-72.2514L52.93-64.1648C53.2538-62.8704 54.5482-62.1763 56.0737-62.6393C57.4609-63.055 58.0158-64.2112 57.6001-65.5056L55.3739-73.4066C54.9582-74.8866 53.7557-75.4879 52.4149-75.2104Z"/>
  </g>
  <g id="Black-S" transform="matrix(1 0 0 1 2882.67 696)">
   <path class="monochrome-0 multicolor-0:labelColor hierarchical-0:primary SFSymbolsPreviewWireframe" d="M50.7383-75.2513C76.0342-75.2513 88.052-56.8784 96.7686-36.0234C96.9977-35.4575 96.9977-34.82 96.7478-34.2577C87.7917-13.6789 76.0133 4.93796 50.7383 4.93796C25.4529 4.93796 13.4246-13.6304 4.70798-34.2819C4.47887-34.846 4.47887-35.4835 4.7184-36.0458C13.5496-56.578 25.4529-75.2513 50.7383-75.2513ZM50.7383-70.7507C27.8689-70.7507 17.2986-53.6771 9.23812-35.1482C17.1945-16.526 27.8689 0.438218 50.7383 0.438218C73.6077 0.438218 84.0634-16.5986 92.2385-35.1751C84.2821-53.9676 73.5973-70.7507 50.7383-70.7507Z"/>
   <path class="monochrome-1 multicolor-1:tintColor hierarchical-1:primary SFSymbolsPreviewWireframe" d="M50.7321-67.8758C49.3238-67.8758 48.2488-66.8203 48.2488-65.4369L48.2488-51.3732C48.2488-49.9898 49.3238-48.9343 50.7321-48.9343C52.1411-48.9343 53.2161-49.9898 53.2161-51.3732L53.2161-65.4369C53.2161-66.8203 52.1411-67.8758 50.7321-67.8758Z"/>
   <path class="monochrome-2 multicolor-2:tintColor hierarchical-2:primary SFSymbolsPreviewWireframe" d="M59.2956-66.5654C58.109-66.8926 56.8115-66.1651 56.4783-64.9643L55.0708-59.6841C54.7375-58.446 55.4048-57.2452 56.7015-56.8815C57.9252-56.5535 59.1111-57.2452 59.4823-58.5191L60.9263-63.7628C61.2967-65.0366 60.5558-66.2016 59.2956-66.5654Z"/>
   <path class="monochrome-3 multicolor-3:tintColor hierarchical-3:primary SFSymbolsPreviewWireframe" d="M67.3762-63.5079C66.1532-64.1996 64.7077-63.7993 64.0032-62.5985L56.8685-50.428C56.164-49.2272 56.5352-47.7715 57.7954-47.0798C58.9813-46.4246 60.4639-46.7884 61.1684-47.9899L68.3032-60.1596C69.0077-61.3612 68.5628-62.8169 67.3762-63.5079Z"/>
   <path class="monochrome-4 multicolor-4:tintColor hierarchical-4:primary SFSymbolsPreviewWireframe" d="M74.123-58.1218C73.2333-58.9954 71.7506-59.0677 70.898-58.1583L67.0369-54.2324C66.1479-53.3223 66.0735-51.9762 67.0004-51.0661C67.8894-50.1925 69.2984-50.1925 70.2254-51.0661L74.1602-54.9189C75.1236-55.8655 75.0872-57.1752 74.123-58.1218Z"/>
   <path class="monochrome-5 multicolor-5:tintColor hierarchical-5:primary SFSymbolsPreviewWireframe" d="M79.5724-51.5342C78.8679-52.735 77.4224-53.0987 76.1986-52.4077L63.8514-45.3751C62.6283-44.6842 62.2207-43.2285 62.9616-42.0269C63.6289-40.8627 65.1116-40.4624 66.3354-41.1533L78.6826-48.186C79.9056-48.8777 80.2761-50.3692 79.5724-51.5342Z"/>
   <path class="monochrome-6 multicolor-6:tintColor hierarchical-6:primary SFSymbolsPreviewWireframe" d="M82.7229-43.5997C82.3897-44.7647 81.1294-45.5652 79.9056-45.2015L74.6005-43.701C73.3403-43.3373 72.5986-42.2088 72.9326-40.9715C73.2659-39.7707 74.5261-39.0424 75.7871-39.3697L81.055-40.7613C82.4269-41.125 83.0934-42.3623 82.7229-43.5997Z"/>
   <path class="monochrome-7 multicolor-7:tintColor hierarchical-7:primary SFSymbolsPreviewWireframe" d="M84.0576-35.1561C84.0576-36.5395 82.9826-37.5949 81.5736-37.5949L67.3049-37.5949C65.8966-37.5949 64.8216-36.5395 64.8216-35.1561C64.8216-33.7734 65.8966-32.7179 67.3049-32.7179L81.5736-32.7179C82.9826-32.7179 84.0576-33.7734 84.0576-35.1561Z"/>
   <path class="monochrome-8 multicolor-8:tintColor hierarchical-8:primary SFSymbolsPreviewWireframe" d="M82.7229-26.749C82.9826-27.8775 82.3897-29.2602 81.0922-29.5516L74.8207-31.0923C73.5233-31.383 72.3374-30.8008 71.9662-29.527C71.6329-28.3993 72.3374-27.1254 73.5605-26.7974L79.9056-25.1114C81.2403-24.7469 82.4269-25.4752 82.7229-26.749Z"/>
   <path class="monochrome-9 multicolor-9:tintColor hierarchical-9:primary SFSymbolsPreviewWireframe" d="M79.6088-18.8145C80.3133-19.9795 79.9056-21.4352 78.6826-22.1269L66.3354-29.1588C65.1116-29.8505 63.6289-29.4502 62.9252-28.2852C62.2207-27.0844 62.6283-25.6287 63.8514-24.937L76.1986-17.9051C77.4224-17.2134 78.9051-17.6137 79.6088-18.8145Z"/>
   <path class="monochrome-10 multicolor-10:tintColor hierarchical-10:primary SFSymbolsPreviewWireframe" d="M74.1974-12.1911C75.05-13.0647 75.198-14.4839 74.1974-15.394L70.2254-19.1372C69.2613-20.0473 67.9266-20.0831 67.0004-19.1738C66.1479-18.3367 66.1107-16.881 67.0004-16.0074L70.8608-12.1546C71.8622-11.1722 73.2705-11.2445 74.1974-12.1911Z"/>
   <path class="monochrome-11 multicolor-11:tintColor hierarchical-11:primary SFSymbolsPreviewWireframe" d="M67.4134-6.8408C68.6364-7.49598 69.0077-8.9517 68.3032-10.1525L61.1684-22.323C60.4639-23.5238 58.9813-23.924 57.7954-23.2323C56.5724-22.5414 56.164-21.0856 56.8685-19.8841L64.0032-7.71438C64.7077-6.51358 66.1904-6.14909 67.4134-6.8408Z"/>
   <path class="monochrome-12 multicolor-12:tintColor hierarchical-12:primary SFSymbolsPreviewWireframe" d="M59.2956-3.7475C60.4814-4.07472 61.3711-5.27552 60.9635-6.54936L59.4451-11.6842C59.0374-12.9581 57.9624-13.7586 56.7015-13.3584C55.5156-12.9946 54.6631-11.7931 54.9964-10.6653L56.4783-5.31204C56.8487-4.00167 58.0353-3.38301 59.2956-3.7475Z"/>
   <path class="monochrome-13 multicolor-13:tintColor hierarchical-13:primary SFSymbolsPreviewWireframe" d="M50.7321-2.43713C52.1411-2.43713 53.2161-3.49258 53.2161-4.87525L53.2161-18.9397C53.2161-20.3224 52.1411-21.3778 50.7321-21.3778C49.3238-21.3778 48.2488-20.3224 48.2488-18.9397L48.2488-4.87525C48.2488-3.49258 49.3238-2.43713 50.7321-2.43713Z"/>
   <path class="monochrome-14 multicolor-14:tintColor hierarchical-14:primary SFSymbolsPreviewWireframe" d="M42.1321-3.67445C43.3187-3.31071 44.6534-4.07472 44.9866-5.27552L46.3941-10.5557C46.7274-11.7931 46.0601-12.9946 44.7627-13.3584C43.5396-13.6863 42.3538-12.9946 41.9826-11.7208L40.5386-6.47706C40.1674-5.20321 40.9091-4.03819 42.1321-3.67445Z"/>
   <path class="monochrome-15 multicolor-15:tintColor hierarchical-15:primary SFSymbolsPreviewWireframe" d="M34.0887-6.80428C35.2745-6.11257 36.7572-6.51358 37.4617-7.71438L44.5964-19.8841C45.3002-21.0856 44.8925-22.5414 43.7067-23.2323C42.4829-23.924 41.0002-23.5238 40.2592-22.323L33.1617-10.1525C32.4572-8.9517 32.8649-7.49598 34.0887-6.80428Z"/>
   <path class="monochrome-16 multicolor-16:tintColor hierarchical-16:primary SFSymbolsPreviewWireframe" d="M27.3047-12.118C28.1944-11.2445 29.7143-11.1722 30.5669-12.0815L34.4273-16.0074C35.317-16.9168 35.3914-18.2637 34.4645-19.1738C33.5747-20.0473 32.1292-20.0831 31.2023-19.1738L27.3047-15.3209C26.3413-14.3743 26.3777-13.0282 27.3047-12.118Z"/>
   <path class="monochrome-17 multicolor-17:tintColor hierarchical-17:primary SFSymbolsPreviewWireframe" d="M21.8925-18.7787C22.5598-17.5772 24.0425-17.2134 25.2663-17.9051L37.6135-24.937C38.8366-25.6287 39.2442-27.0844 38.5397-28.2487C37.836-29.4502 36.3525-29.8505 35.0923-29.1588L22.7823-22.1269C21.5592-21.4352 21.188-19.9795 21.8925-18.7787Z"/>
   <path class="monochrome-18 multicolor-18:tintColor hierarchical-18:primary SFSymbolsPreviewWireframe" d="M18.7048-26.7125C19.0016-25.5482 20.3355-24.7111 21.522-25.0749L26.8272-26.5753C28.1246-26.9391 28.8655-28.031 28.5323-29.2684C28.199-30.5057 26.938-31.2339 25.6778-30.9059L20.3727-29.4786C19.0016-29.1148 18.4079-27.9498 18.7048-26.7125Z"/>
   <path class="monochrome-19 multicolor-19:tintColor hierarchical-19:primary SFSymbolsPreviewWireframe" d="M17.4073-35.1561C17.4073-33.7734 18.4823-32.7179 19.8906-32.7179L34.16-32.7179C35.5683-32.7179 36.6433-33.7734 36.6433-35.1561C36.6433-36.5395 35.5683-37.5949 34.16-37.5949L19.8906-37.5949C18.4823-37.5949 17.4073-36.5395 17.4073-35.1561Z"/>
   <path class="monochrome-20 multicolor-20:tintColor hierarchical-20:primary SFSymbolsPreviewWireframe" d="M18.7048-43.5997C18.3343-42.3623 19.0752-41.052 20.3727-40.7613L26.6442-39.1841C27.9416-38.8926 29.1275-39.439 29.4979-40.7128C29.832-41.8771 29.0903-43.1509 27.83-43.4789L21.5592-45.165C20.2246-45.5287 19.038-44.7647 18.7048-43.5997Z"/>
   <path class="monochrome-21 multicolor-21:tintColor hierarchical-21:primary SFSymbolsPreviewWireframe" d="M21.8553-51.5342C21.1516-50.3334 21.5592-48.8777 22.7823-48.186L35.1295-41.1533C36.3525-40.4624 37.836-40.8627 38.5397-42.0634C39.2442-43.2285 38.8366-44.6842 37.6135-45.3751L25.2663-52.4077C24.0425-53.0987 22.5598-52.6984 21.8553-51.5342Z"/>
   <path class="monochrome-22 multicolor-22:tintColor hierarchical-22:primary SFSymbolsPreviewWireframe" d="M27.3047-58.1583C26.3777-57.2847 26.3413-55.7925 27.2303-54.9554L31.2023-51.1391C32.1664-50.2655 33.5011-50.156 34.4645-51.0661C35.3914-51.9397 35.3542-53.3954 34.4645-54.2689L30.5297-58.1583C29.5663-59.1042 28.2688-59.0677 27.3047-58.1583Z"/>
   <path class="monochrome-23 multicolor-23:tintColor hierarchical-23:primary SFSymbolsPreviewWireframe" d="M34.0515-63.5079C32.8277-62.8169 32.4572-61.3612 33.1617-60.1596L40.2964-47.9899C41.0002-46.7884 42.4829-46.3881 43.7067-47.1163C44.8925-47.7715 45.3002-49.2272 44.5964-50.428L37.4617-62.5985C36.7572-63.7993 35.2745-64.163 34.0515-63.5079Z"/>
   <path class="monochrome-24 multicolor-24:tintColor hierarchical-24:primary SFSymbolsPreviewWireframe" d="M42.1693-66.6019C40.8719-66.347 40.0937-65.0366 40.5014-63.7628L42.0198-58.5921C42.4275-57.2818 43.4652-56.5535 44.7627-56.8815C45.9493-57.1722 46.7646-58.4825 46.4313-59.6841L44.9866-64.9643C44.6162-66.2739 43.3931-66.8568 42.1693-66.6019Z"/>
  </g>
  <g id="Regular-S" transform="matrix(1 0 0 1 1399.53 696)">
   <path class="monochrome-0 multicolor-0:labelColor hierarchical-0:primary SFSymbolsPreviewWireframe" d="M50.2783-74.7259C75.345-74.7259 87.2171-56.4714 95.84-35.8056C96.0274-35.3662 96.0274-34.8703 95.8296-34.4327C86.9464-14.0386 75.3242 4.46259 50.2783 4.46259C25.222 4.46259 13.3499-13.9874 4.71662-34.4515C4.52916-34.89 4.52916-35.3859 4.71662-35.8226C13.4749-56.1701 25.222-74.7259 50.2783-74.7259ZM50.2783-71.226C27.0965-71.226 16.3908-53.913 8.22617-35.1249C16.2763-16.24 27.1069 0.962691 50.2783 0.962691C73.4601 0.962691 84.0512-16.3099 92.32-35.1456C84.2803-54.2063 73.4497-71.226 50.2783-71.226Z"/>
   <path class="monochrome-1 multicolor-1:tintColor hierarchical-1:primary SFSymbolsPreviewWireframe" d="M50.3359-67.9322C49.2707-67.9322 48.3891-67.0506 48.3891-65.9854L48.3891-51.4437C48.3891-50.3417 49.2707-49.5338 50.3359-49.5338C51.4011-49.5338 52.2459-50.3417 52.2459-51.4437L52.2459-65.9854C52.2459-67.0506 51.4011-67.9322 50.3359-67.9322Z"/>
   <path class="monochrome-2 multicolor-2:tintColor hierarchical-2:primary SFSymbolsPreviewWireframe" d="M58.8942-67.0874C57.902-67.4177 56.8737-66.9407 56.5434-65.7281L54.5899-58.4118C54.2957-57.3835 54.8471-56.3183 55.9123-56.061C56.9406-55.8038 57.9689-56.3551 58.2631-57.3835L60.2167-64.7367C60.4732-65.8387 59.9225-66.7933 58.8942-67.0874Z"/>
   <path class="monochrome-3 multicolor-3:tintColor hierarchical-3:primary SFSymbolsPreviewWireframe" d="M66.6807-63.5248C65.763-64.0386 64.5872-63.7813 64.0734-62.8636L56.7842-50.2168C56.2328-49.2615 56.5638-48.1226 57.5184-47.6088C58.4-47.0574 59.575-47.3515 60.0895-48.3069L67.3788-60.9168C67.8933-61.8353 67.5992-62.9734 66.6807-63.5248Z"/>
   <path class="monochrome-4 multicolor-4:tintColor hierarchical-4:primary SFSymbolsPreviewWireframe" d="M73.6969-58.566C72.9251-59.3002 71.7501-59.2641 71.0151-58.566L65.6524-53.1664C64.8445-52.3216 64.8445-51.2196 65.6524-50.4485C66.4234-49.6767 67.5623-49.6767 68.2973-50.4485L73.66-55.8113C74.4311-56.656 74.4679-57.7942 73.6969-58.566Z"/>
   <path class="monochrome-5 multicolor-5:tintColor hierarchical-5:primary SFSymbolsPreviewWireframe" d="M78.6918-51.5506C78.1411-52.4683 76.9654-52.7993 76.0477-52.2479L63.437-44.9955C62.4824-44.4449 62.1883-43.2691 62.7758-42.3514C63.2535-41.4697 64.3924-41.1019 65.347-41.6901L77.9576-48.9425C78.8753-49.4932 79.1695-50.6321 78.6918-51.5506Z"/>
   <path class="monochrome-6 multicolor-6:tintColor hierarchical-6:primary SFSymbolsPreviewWireframe" d="M82.2544-43.7633C81.9979-44.7916 80.8959-45.416 79.9405-45.1226L73.5532-43.3541C72.488-43.0607 71.8637-42.0685 72.2676-40.8566C72.488-40.0848 73.4065-39.3875 74.5454-39.6809L80.859-41.4126C81.9242-41.7067 82.5117-42.735 82.2544-43.7633Z"/>
   <path class="monochrome-7 multicolor-7:tintColor hierarchical-7:primary SFSymbolsPreviewWireframe" d="M83.0262-35.205C83.0262-36.2702 82.1815-37.115 81.1163-37.115L66.5746-37.115C65.4726-37.115 64.6647-36.2702 64.6647-35.205C64.6647-34.1398 65.4726-33.2951 66.5746-33.2951L81.1163-33.2951C82.1815-33.2951 83.0262-34.1398 83.0262-35.205Z"/>
   <path class="monochrome-8 multicolor-8:tintColor hierarchical-8:primary SFSymbolsPreviewWireframe" d="M82.2544-26.5738C82.5486-27.6389 82.0709-28.6673 80.9327-28.9606L74.5454-30.7292C73.4802-30.9864 72.4519-30.3982 72.1947-29.3699C71.9374-28.3415 72.5249-27.2395 73.5171-26.9822L79.8676-25.3243C80.9696-25.0309 81.961-25.5816 82.2544-26.5738Z"/>
   <path class="monochrome-9 multicolor-9:tintColor hierarchical-9:primary SFSymbolsPreviewWireframe" d="M78.6549-18.8602C79.1695-19.7411 78.8753-20.9169 77.9576-21.4675L65.347-28.7207C64.3924-29.3082 63.2535-28.9411 62.7389-28.0594C62.1883-27.141 62.4824-25.9652 63.437-25.4146L76.0477-18.1622C76.9654-17.6108 78.1043-17.9418 78.6549-18.8602Z"/>
   <path class="monochrome-10 multicolor-10:tintColor hierarchical-10:primary SFSymbolsPreviewWireframe" d="M73.6969-11.8441C74.4679-12.6159 74.4311-13.8646 73.7699-14.5258L69.0044-19.1815C68.2326-19.9156 67.0576-20.0262 66.2489-19.1815C65.5516-18.4104 65.5884-17.3084 66.3226-16.5366L70.9783-11.8809C71.7862-11.073 72.9251-11.0361 73.6969-11.8441Z"/>
   <path class="monochrome-11 multicolor-11:tintColor hierarchical-11:primary SFSymbolsPreviewWireframe" d="M66.6807-6.88601C67.5992-7.39979 67.8933-8.53869 67.3788-9.49329L60.0895-22.1039C59.575-23.0585 58.4-23.3527 57.5184-22.8013C56.5638-22.2875 56.2328-21.1486 56.7842-20.1571L64.0734-7.54648C64.5872-6.62874 65.7261-6.33461 66.6807-6.88601Z"/>
   <path class="monochrome-12 multicolor-12:tintColor hierarchical-12:primary SFSymbolsPreviewWireframe" d="M58.9311-3.24966C60.1429-3.54303 60.4732-4.60821 60.2528-5.56356L58.5587-12.0238C58.2646-13.089 57.1257-13.6404 56.1342-13.3832C54.9953-13.0522 54.5176-11.987 54.8118-11.0324L56.6164-4.68193C56.9474-3.65361 57.7553-3.02925 58.9311-3.24966Z"/>
   <path class="monochrome-13 multicolor-13:tintColor hierarchical-13:primary SFSymbolsPreviewWireframe" d="M50.3359-2.47785C51.4011-2.47785 52.2459-3.35949 52.2459-4.42466L52.2459-18.9663C52.2459-20.0684 51.4011-20.8763 50.3359-20.8763C49.2707-20.8763 48.3891-20.0684 48.3891-18.9663L48.3891-4.42466C48.3891-3.35949 49.2707-2.47785 50.3359-2.47785Z"/>
   <path class="monochrome-14 multicolor-14:tintColor hierarchical-14:primary SFSymbolsPreviewWireframe" d="M41.5941-3.24966C42.7691-2.91867 43.8343-3.57989 44.0915-4.57135L46.082-11.9245C46.3392-12.9536 45.7878-14.0188 44.7595-14.2753C43.7312-14.5326 42.7029-13.9819 42.4088-12.9536L40.4552-5.56356C40.1611-4.49838 40.5289-3.61675 41.5941-3.24966Z"/>
   <path class="monochrome-15 multicolor-15:tintColor hierarchical-15:primary SFSymbolsPreviewWireframe" d="M33.9904-6.88601C34.872-6.33461 36.0478-6.62874 36.5616-7.54648L43.8508-20.1571C44.4391-21.1486 44.0712-22.2875 43.1896-22.8013C42.2719-23.3527 41.0961-23.0585 40.5454-22.1039L33.2931-9.49329C32.7417-8.53869 33.0726-7.39979 33.9904-6.88601Z"/>
   <path class="monochrome-16 multicolor-16:tintColor hierarchical-16:primary SFSymbolsPreviewWireframe" d="M26.9749-11.8441C27.7829-11.073 28.9218-11.073 29.6198-11.7711L35.0195-17.1707C35.7905-17.9786 35.8274-19.0807 35.0556-19.8886C34.2845-20.6228 33.0726-20.6596 32.3377-19.8886L27.0118-14.489C26.2039-13.681 26.167-12.6159 26.9749-11.8441Z"/>
   <path class="monochrome-17 multicolor-17:tintColor hierarchical-17:primary SFSymbolsPreviewWireframe" d="M22.0162-18.8602C22.4938-17.9418 23.6696-17.6108 24.5873-18.1622L37.198-25.4146C38.1526-25.9652 38.4467-27.141 37.9321-28.0226C37.3815-28.9411 36.2426-29.3082 35.2873-28.7207L22.6774-21.4675C21.7596-20.9169 21.4655-19.778 22.0162-18.8602Z"/>
   <path class="monochrome-18 multicolor-18:tintColor hierarchical-18:primary SFSymbolsPreviewWireframe" d="M18.3798-26.6467C18.6371-25.6184 19.7391-25.0678 20.7306-25.3243L27.1179-26.9822C28.2199-27.2764 28.7706-28.2678 28.4772-29.333C28.1831-30.3252 27.1547-30.9496 26.1264-30.6923L19.8128-28.9606C18.6739-28.6673 18.1233-27.6751 18.3798-26.6467Z"/>
   <path class="monochrome-19 multicolor-19:tintColor hierarchical-19:primary SFSymbolsPreviewWireframe" d="M17.6087-35.205C17.6087-34.1398 18.4535-33.2951 19.5187-33.2951L34.0972-33.2951C35.1624-33.2951 36.0072-34.1398 36.0072-35.205C36.0072-36.2702 35.1624-37.115 34.0972-37.115L19.5187-37.115C18.4535-37.115 17.6087-36.2702 17.6087-35.205Z"/>
   <path class="monochrome-20 multicolor-20:tintColor hierarchical-20:primary SFSymbolsPreviewWireframe" d="M18.3437-43.7265C18.1233-42.735 18.7838-41.7067 19.7391-41.4126L26.1264-39.6809C27.1916-39.3875 28.2568-40.0119 28.4403-41.077C28.6607-42.0685 28.2199-43.1705 27.1547-43.4278L20.7674-45.0489C19.6285-45.343 18.5633-44.7548 18.3437-43.7265Z"/>
   <path class="monochrome-21 multicolor-21:tintColor hierarchical-21:primary SFSymbolsPreviewWireframe" d="M22.0162-51.5867C21.4655-50.6689 21.7596-49.4932 22.6774-48.9425L35.2873-41.6901C36.2426-41.1019 37.3815-41.4697 37.9321-42.3514C38.4467-43.2691 38.1526-44.4449 37.198-44.9586L24.5873-52.2479C23.6696-52.7993 22.5307-52.4683 22.0162-51.5867Z"/>
   <path class="monochrome-22 multicolor-22:tintColor hierarchical-22:primary SFSymbolsPreviewWireframe" d="M26.9381-58.566C26.167-57.8679 26.2408-56.6192 26.9749-55.8842L31.5937-51.2655C32.4024-50.4575 33.5037-50.4207 34.3123-51.2286C35.0465-51.9267 35.1203-53.1017 34.3123-53.9103L29.6567-58.566C28.848-59.3739 27.7468-59.337 26.9381-58.566Z"/>
   <path class="monochrome-23 multicolor-23:tintColor hierarchical-23:primary SFSymbolsPreviewWireframe" d="M33.9904-63.5609C33.0726-63.0103 32.7417-61.8353 33.2931-60.9168L40.5454-48.3069C41.0961-47.3515 42.2719-47.0574 43.1535-47.6088C44.0712-48.1226 44.4391-49.2615 43.8508-50.2168L36.5616-62.8636C36.0478-63.7813 34.9089-64.0386 33.9904-63.5609Z"/>
   <path class="monochrome-24 multicolor-24:tintColor hierarchical-24:primary SFSymbolsPreviewWireframe" d="M41.7408-67.1611C40.6756-66.9407 40.0881-66.0222 40.4183-64.8104L42.15-58.3862C42.4073-57.3579 43.4356-56.8065 44.6474-57.1743C45.7495-57.5046 46.1903-58.4231 45.8601-59.4514L44.0915-65.7281C43.7613-66.9039 42.8059-67.3816 41.7408-67.1611Z"/>
  </g>
  <g id="Ultralight-S" transform="matrix(1 0 0 1 511.324 696)">
   <path class="monochrome-0 multicolor-0:labelColor hierarchical-0:primary SFSymbolsPreviewWireframe" d="M48.3893-73.7541C72.9874-73.7541 84.5575-55.7345 93.0346-35.4489C93.1075-35.2597 93.1075-35.0471 93.0241-34.8597C84.3075-14.8359 72.9874 3.43475 48.3893 3.43475C23.7912 3.43475 12.2211-14.7786 3.74406-34.8678C3.67116-35.0561 3.67116-35.2686 3.74406-35.456C12.3461-55.4323 23.7912-73.7541 48.3893-73.7541ZM48.3893-72.2539C24.5931-72.2539 13.5958-54.4638 5.2541-35.1565C13.4812-15.7443 24.5931 1.93454 48.3893 1.93454C72.1855 1.93454 83.0578-15.8098 91.5245-35.1655C83.2974-54.7633 72.1855-72.2539 48.3893-72.2539Z"/>
   <path class="monochrome-1 multicolor-1:tintColor hierarchical-1:primary SFSymbolsPreviewWireframe" d="M48.3532-68.0655C47.8788-68.0655 47.5621-67.6411 47.5621-67.2032L47.5621-51.2425C47.5621-50.8014 47.8788-50.3825 48.3532-50.3825C48.8988-50.3825 49.2132-50.8014 49.2132-51.2425L49.2132-67.2032C49.2132-67.6411 48.8988-68.0655 48.3532-68.0655Z"/>
   <path class="monochrome-2 multicolor-2:tintColor hierarchical-2:primary SFSymbolsPreviewWireframe" d="M57.003-66.9965C56.4265-67.1644 56.0631-66.8056 55.9308-66.321L53.9352-59.4291C53.7697-58.9572 53.9907-58.5192 54.4642-58.3925C55.0439-58.2294 55.4794-58.486 55.6085-59.0292L57.46-65.9242C57.6223-66.473 57.4022-66.8666 57.003-66.9965Z"/>
   <path class="monochrome-3 multicolor-3:tintColor hierarchical-3:primary SFSymbolsPreviewWireframe" d="M64.8404-63.6768C64.4136-63.8946 63.8949-63.7323 63.7136-63.3047L55.7138-49.5265C55.4937-49.0965 55.5539-48.581 55.9839-48.364C56.444-48.071 56.9262-48.2729 57.144-48.7029L65.1073-62.4779C65.3615-62.9055 65.268-63.3846 64.8404-63.6768Z"/>
   <path class="monochrome-4 multicolor-4:tintColor hierarchical-4:primary SFSymbolsPreviewWireframe" d="M71.7941-58.3854C71.4139-58.8352 70.8596-58.7243 70.5183-58.3854L65.333-53.4131C64.9497-53.0274 64.9497-52.5864 65.2973-52.2062C65.7139-51.7897 66.2286-51.7897 66.6071-52.1706L71.6476-57.211C72.1005-57.6695 72.1029-58.0766 71.7941-58.3854Z"/>
   <path class="monochrome-5 multicolor-5:tintColor hierarchical-5:primary SFSymbolsPreviewWireframe" d="M76.8733-51.6828C76.6167-52.0384 76.1344-52.135 75.7076-51.8784L61.9318-43.9539C61.5018-43.6973 61.3007-43.2151 61.5596-42.7875C61.8106-42.3274 62.3262-42.2284 62.7197-42.4873L76.5676-50.4482C76.9588-50.704 77.1243-51.1839 76.8733-51.6828Z"/>
   <path class="monochrome-6 multicolor-6:tintColor hierarchical-6:primary SFSymbolsPreviewWireframe" d="M80.3362-43.558C80.1731-44.1368 79.6964-44.3269 79.2307-44.197L72.228-42.4849C71.718-42.3194 71.4923-41.9583 71.5937-41.4373C71.7537-40.8774 72.2169-40.6462 72.6968-40.7396L79.6219-42.6291C80.204-42.7589 80.4273-43.1581 80.3362-43.558Z"/>
   <path class="monochrome-7 multicolor-7:tintColor hierarchical-7:primary SFSymbolsPreviewWireframe" d="M81.292-35.1956C81.292-35.6699 80.87-35.9835 80.432-35.9835L64.4714-35.9835C64.0311-35.9835 63.6114-35.6699 63.6114-35.1956C63.6114-34.6499 64.0311-34.3356 64.4714-34.3356L80.432-34.3356C80.87-34.3356 81.292-34.6499 81.292-35.1956Z"/>
   <path class="monochrome-8 multicolor-8:tintColor hierarchical-8:primary SFSymbolsPreviewWireframe" d="M80.3006-26.4324C80.4661-27.0501 80.1066-27.4136 79.6275-27.5435L72.6968-29.5794C72.2225-29.6705 71.8234-29.4836 71.6602-28.976C71.4979-28.3971 71.7925-27.9917 72.2977-27.8293L79.1896-25.9811C79.8096-25.8156 80.1707-26.0721 80.3006-26.4324Z"/>
   <path class="monochrome-9 multicolor-9:tintColor hierarchical-9:primary SFSymbolsPreviewWireframe" d="M76.9065-18.7083C77.1243-19.1328 76.9588-19.6507 76.5676-19.8352L62.7562-27.8317C62.3262-28.0915 61.8106-27.9925 61.5929-27.5672C61.3007-27.104 61.5018-26.6225 61.9318-26.4016L75.7076-18.4406C76.1344-18.1849 76.6143-18.2807 76.9065-18.7083Z"/>
   <path class="monochrome-10 multicolor-10:tintColor hierarchical-10:primary SFSymbolsPreviewWireframe" d="M71.6864-11.6462C72.1385-12.0627 72.0285-12.5862 71.6919-12.9591L66.6784-18.1793C66.2983-18.4858 65.8881-18.4937 65.4684-18.1437C65.0574-17.7271 65.0962-17.2504 65.4383-16.8339L70.4795-11.7927C70.9341-11.3381 71.4139-11.3714 71.6864-11.6462Z"/>
   <path class="monochrome-11 multicolor-11:tintColor hierarchical-11:primary SFSymbolsPreviewWireframe" d="M64.8769-6.67783C65.268-6.93203 65.3615-7.41113 65.1073-7.84112L57.144-21.6169C56.9262-22.0469 56.444-22.2481 56.0195-21.9915C55.5539-21.7381 55.4937-21.2226 55.7138-20.8258L63.7136-7.01439C63.8949-6.58755 64.4104-6.42205 64.8769-6.67783Z"/>
   <path class="monochrome-12 multicolor-12:tintColor hierarchical-12:primary SFSymbolsPreviewWireframe" d="M56.8613-3.10163C57.4544-3.26714 57.5867-3.74148 57.4988-4.24355L55.755-11.2875C55.5895-11.7254 55.2545-11.9455 54.7137-11.8552C54.1625-11.723 53.9471-11.2486 54.0406-10.7466L55.8999-3.81909C56.0322-3.23942 56.4511-3.04937 56.8613-3.10163Z"/>
   <path class="monochrome-13 multicolor-13:tintColor hierarchical-13:primary SFSymbolsPreviewWireframe" d="M48.3532-2.25351C48.8988-2.25351 49.2132-2.67876 49.2132-3.11668L49.2132-19.0765C49.2132-19.5176 48.8988-19.9365 48.3532-19.9365C47.8788-19.9365 47.5621-19.5176 47.5621-19.0765L47.5621-3.11668C47.5621-2.67876 47.8788-2.25351 48.3532-2.25351Z"/>
   <path class="monochrome-14 multicolor-14:tintColor hierarchical-14:primary SFSymbolsPreviewWireframe" d="M39.7255-3.1737C40.3154-3.00581 40.7177-3.378 40.8088-3.84681L42.8424-10.741C43.0047-11.213 42.7489-11.6509 42.277-11.7776C41.6981-11.94 41.2625-11.6842 41.1335-11.141L39.282-4.24355C39.1165-3.6615 39.3232-3.30832 39.7255-3.1737Z"/>
   <path class="monochrome-15 multicolor-15:tintColor hierarchical-15:primary SFSymbolsPreviewWireframe" d="M31.9372-6.67783C32.3616-6.42205 32.8803-6.58755 33.0981-7.01439L41.0614-20.7902C41.3204-21.2226 41.2214-21.7381 40.7613-21.9915C40.3337-22.2481 39.8514-22.0469 39.6312-21.6169L31.6703-7.84112C31.4137-7.41113 31.5104-6.93203 31.9372-6.67783Z"/>
   <path class="monochrome-16 multicolor-16:tintColor hierarchical-16:primary SFSymbolsPreviewWireframe" d="M24.9479-11.7903C25.3312-11.3381 25.8824-11.4458 26.2213-11.7848L31.409-16.7563C31.7891-17.1396 31.7923-17.5806 31.4478-17.9639C31.0313-18.3773 30.5102-18.3805 30.1325-17.9996L25.0944-12.956C24.6391-12.5006 24.6367-12.0627 24.9479-11.7903Z"/>
   <path class="monochrome-17 multicolor-17:tintColor hierarchical-17:primary SFSymbolsPreviewWireframe" d="M19.8711-18.7083C20.1585-18.2807 20.6408-18.1849 21.0676-18.4406L34.8434-26.4016C35.2734-26.6225 35.4746-27.1404 35.1847-27.5649C34.9646-27.9925 34.4491-28.0915 34.0191-27.8317L20.2441-19.8352C19.8164-19.6507 19.6509-19.1351 19.8711-18.7083Z"/>
   <path class="monochrome-18 multicolor-18:tintColor hierarchical-18:primary SFSymbolsPreviewWireframe" d="M16.4034-26.6177C16.5657-26.0389 17.0789-25.8544 17.5112-25.9811L24.5496-27.6852C25.0263-27.8507 25.2473-28.2118 25.153-28.7218C24.9875-29.2983 24.5163-29.524 24.0452-29.3973L17.1557-27.5435C16.5325-27.378 16.3123-27.0169 16.4034-26.6177Z"/>
   <path class="monochrome-19 multicolor-19:tintColor hierarchical-19:primary SFSymbolsPreviewWireframe" d="M15.4832-35.1956C15.4832-34.6499 15.9053-34.3356 16.3432-34.3356L32.3062-34.3356C32.7441-34.3356 33.1662-34.6499 33.1662-35.1956C33.1662-35.6699 32.7441-35.9835 32.3062-35.9835L16.3432-35.9835C15.9053-35.9835 15.4832-35.6699 15.4832-35.1956Z"/>
   <path class="monochrome-20 multicolor-20:tintColor hierarchical-20:primary SFSymbolsPreviewWireframe" d="M16.4366-43.7346C16.2759-43.1224 16.6489-42.7225 17.1145-42.6291L24.0452-40.5599C24.5195-40.502 24.921-40.6921 25.0786-41.2021C25.2385-41.7786 24.9543-42.1832 24.4443-42.3464L17.55-44.1915C16.9625-44.357 16.5602-44.098 16.4366-43.7346Z"/>
   <path class="monochrome-21 multicolor-21:tintColor hierarchical-21:primary SFSymbolsPreviewWireframe" d="M19.9075-51.6495C19.6509-51.1863 19.8164-50.6684 20.2441-50.4482L34.0191-42.4873C34.4491-42.2284 34.9646-42.3274 35.2212-42.7875C35.4746-43.2151 35.2734-43.6973 34.8434-43.9151L21.0676-51.8784C20.6408-52.135 20.1609-52.0384 19.9075-51.6495Z"/>
   <path class="monochrome-22 multicolor-22:tintColor hierarchical-22:primary SFSymbolsPreviewWireframe" d="M25.0525-58.5287C24.6003-58.0821 24.7135-57.5943 25.0556-57.2166L30.058-51.9988C30.4413-51.6876 30.846-51.6844 31.2649-52.032C31.679-52.443 31.6481-52.9253 31.3013-53.3442L26.2601-58.3854C25.8048-58.8407 25.3645-58.8019 25.0525-58.5287Z"/>
   <path class="monochrome-23 multicolor-23:tintColor hierarchical-23:primary SFSymbolsPreviewWireframe" d="M31.9736-63.68C31.5104-63.3878 31.4137-62.9055 31.6703-62.4779L39.5948-48.7029C39.8514-48.2729 40.3337-48.071 40.7945-48.364C41.2214-48.581 41.3204-49.0965 41.0614-49.5265L33.0981-63.3047C32.8439-63.7323 32.3648-63.8946 31.9736-63.68Z"/>
   <path class="monochrome-24 multicolor-24:tintColor hierarchical-24:primary SFSymbolsPreviewWireframe" d="M39.8807-67.0741C39.2986-66.9133 39.1474-66.4144 39.2432-65.9298L40.9893-58.8526C41.1525-58.4527 41.4795-58.2326 42.0362-58.3316C42.6214-58.4638 42.7972-58.8906 42.7371-59.4339L40.8444-66.321C40.7122-66.9466 40.2822-67.1256 39.8807-67.0741Z"/>
  </g>
 </g>
</svg>
