<?xml version="1.0" encoding="UTF-8" standalone="no"?>
<!DOCTYPE svg PUBLIC "-//W3C//DTD SVG 1.1//EN" "http://www.w3.org/Graphics/SVG/1.1/DTD/svg11.dtd">
<svg width="100%" height="100%" viewBox="0 0 4266 4266" version="1.1" xmlns="http://www.w3.org/2000/svg" xmlns:xlink="http://www.w3.org/1999/xlink" xml:space="preserve" xmlns:serif="http://www.serif.com/" style="fill-rule:evenodd;clip-rule:evenodd;stroke-linejoin:round;stroke-miterlimit:2;">
    <g transform="matrix(35.8755,0,0,35.6682,312.981,3387.34)">
        <g id="Look-Away-Icon" serif:id="Look Away Icon">
            <path d="M50.742,-78.55C78.118,-78.55 91.124,-58.666 100.558,-36.095C100.806,-35.483 100.806,-34.793 100.535,-34.184C90.843,-11.913 78.095,8.235 50.742,8.235C23.376,8.235 10.359,-11.861 0.925,-34.211C0.677,-34.821 0.677,-35.511 0.936,-36.12C10.494,-58.341 23.376,-78.55 50.742,-78.55ZM50.742,-73.679C25.991,-73.679 14.551,-55.201 5.828,-35.148C14.439,-14.994 25.991,3.365 50.742,3.365C75.492,3.365 86.808,-15.073 95.655,-35.177C87.044,-55.516 75.481,-73.679 50.742,-73.679Z" style="fill:white;fill-opacity:0.33;fill-rule:nonzero;"/>
        </g>
    </g>
</svg>
