<?xml version="1.0" encoding="UTF-8" standalone="no"?>
<!DOCTYPE svg PUBLIC "-//W3C//DTD SVG 1.1//EN" "http://www.w3.org/Graphics/SVG/1.1/DTD/svg11.dtd">
<svg width="100%" height="100%" viewBox="0 0 4266 4266" version="1.1" xmlns="http://www.w3.org/2000/svg" xmlns:xlink="http://www.w3.org/1999/xlink" xml:space="preserve" xmlns:serif="http://www.serif.com/" style="fill-rule:evenodd;clip-rule:evenodd;stroke-linejoin:round;stroke-miterlimit:2;">
    <g transform="matrix(35.8755,0,0,35.6682,312.981,3387.34)">
        <g id="Look-Away-Icon" serif:id="Look Away Icon">
            <path d="M41.468,-69.189C40.064,-68.913 39.222,-67.495 39.663,-66.116L41.306,-60.52C41.747,-59.102 42.87,-58.314 44.274,-58.669C45.559,-58.984 46.441,-60.402 46.08,-61.702L44.517,-67.417C44.116,-68.834 42.792,-69.465 41.468,-69.189ZM32.682,-65.84C31.358,-65.093 30.957,-63.517 31.719,-62.217L39.441,-49.046C40.203,-47.746 41.807,-47.313 43.132,-48.101C44.415,-48.81 44.856,-50.385 44.094,-51.685L36.373,-64.856C35.611,-66.156 34.006,-66.55 32.682,-65.84ZM25.381,-60.051C24.377,-59.105 24.338,-57.49 25.3,-56.585L29.599,-52.454C30.642,-51.509 32.087,-51.39 33.129,-52.375C34.132,-53.321 34.092,-54.896 33.129,-55.842L28.871,-60.051C27.828,-61.075 26.424,-61.035 25.381,-60.051ZM19.483,-52.882C18.721,-51.582 19.163,-50.007 20.486,-49.258L33.849,-41.647C35.173,-40.899 36.778,-41.333 37.54,-42.632C38.302,-43.893 37.861,-45.469 36.537,-46.216L23.174,-53.827C21.85,-54.575 20.245,-54.142 19.483,-52.882ZM16.073,-44.295C15.672,-42.956 16.474,-41.538 17.878,-41.223L24.666,-39.516C26.07,-39.201 27.353,-39.792 27.754,-41.17C28.116,-42.431 27.313,-43.809 25.949,-44.164L19.163,-45.989C17.718,-46.382 16.434,-45.556 16.073,-44.295ZM14.669,-35.157C14.669,-33.66 15.833,-32.518 17.357,-32.518L32.8,-32.518C34.324,-32.518 35.487,-33.66 35.487,-35.157C35.487,-36.654 34.324,-37.796 32.8,-37.796L17.357,-37.796C15.833,-37.796 14.669,-36.654 14.669,-35.157ZM16.073,-26.019C16.395,-24.759 17.838,-23.853 19.122,-24.246L24.864,-25.87C26.268,-26.264 27.07,-27.446 26.709,-28.785C26.348,-30.124 24.984,-30.912 23.62,-30.557L17.878,-29.012C16.395,-28.619 15.752,-27.358 16.073,-26.019ZM19.523,-17.432C20.245,-16.132 21.85,-15.738 23.174,-16.487L36.537,-24.097C37.861,-24.846 38.302,-26.421 37.54,-27.681C36.778,-28.982 35.173,-29.415 33.809,-28.666L20.486,-21.056C19.163,-20.307 18.761,-18.732 19.523,-17.432ZM25.381,-10.224C26.343,-9.278 27.988,-9.2 28.911,-10.184L33.089,-14.433C34.052,-15.417 34.132,-16.875 33.129,-17.86C32.166,-18.805 30.602,-18.844 29.599,-17.86L25.381,-13.69C24.338,-12.666 24.377,-11.209 25.381,-10.224ZM32.722,-4.473C34.006,-3.724 35.611,-4.158 36.373,-5.458L44.094,-18.629C44.856,-19.929 44.415,-21.504 43.132,-22.252C41.807,-23.001 40.203,-22.568 39.401,-21.268L31.719,-8.097C30.957,-6.797 31.398,-5.222 32.722,-4.473ZM41.428,-1.086C42.712,-0.692 44.156,-1.519 44.517,-2.818L46.04,-8.533C46.401,-9.872 45.679,-11.172 44.274,-11.566C42.951,-11.921 41.667,-11.172 41.266,-9.794L39.703,-4.119C39.301,-2.74 40.104,-1.479 41.428,-1.086ZM50.735,0.253C52.26,0.253 53.423,-0.889 53.423,-2.385L53.423,-17.607C53.423,-19.103 52.26,-20.245 50.735,-20.245C49.211,-20.245 48.047,-19.103 48.047,-17.607L48.047,-2.385C48.047,-0.889 49.211,0.253 50.735,0.253ZM60.003,-1.165C61.286,-1.519 62.249,-2.818 61.808,-4.197L60.164,-9.754C59.723,-11.133 58.56,-11.999 57.195,-11.566C55.912,-11.172 54.989,-9.872 55.35,-8.652L56.954,-2.858C57.355,-1.44 58.639,-0.77 60.003,-1.165ZM68.788,-4.512C70.112,-5.222 70.514,-6.797 69.751,-8.097L62.03,-21.268C61.267,-22.568 59.663,-23.001 58.379,-22.252C57.056,-21.504 56.613,-19.929 57.376,-18.629L65.097,-5.458C65.86,-4.158 67.465,-3.764 68.788,-4.512ZM76.13,-10.303C77.053,-11.248 77.213,-12.784 76.13,-13.769L71.831,-17.82C70.788,-18.805 69.344,-18.844 68.341,-17.86C67.419,-16.954 67.378,-15.378 68.341,-14.433L72.519,-10.263C73.603,-9.2 75.127,-9.278 76.13,-10.303ZM81.987,-17.471C82.749,-18.732 82.308,-20.307 80.984,-21.056L67.622,-28.666C66.297,-29.415 64.692,-28.982 63.931,-27.721C63.168,-26.421 63.609,-24.846 64.933,-24.097L78.296,-16.487C79.62,-15.738 81.225,-16.171 81.987,-17.471ZM85.357,-26.058C85.638,-27.279 84.996,-28.776 83.592,-29.091L76.805,-30.759C75.4,-31.073 74.117,-30.443 73.715,-29.065C73.355,-27.844 74.117,-26.465 75.441,-26.11L82.308,-24.286C83.752,-23.891 85.037,-24.68 85.357,-26.058ZM86.801,-35.157C86.801,-36.654 85.638,-37.796 84.113,-37.796L68.671,-37.796C67.147,-37.796 65.983,-36.654 65.983,-35.157C65.983,-33.66 67.147,-32.518 68.671,-32.518L84.113,-32.518C85.638,-32.518 86.801,-33.66 86.801,-35.157ZM85.357,-44.295C84.996,-45.556 83.632,-46.422 82.308,-46.028L76.566,-44.404C75.203,-44.011 74.4,-42.789 74.761,-41.45C75.122,-40.151 76.486,-39.363 77.851,-39.717L83.552,-41.223C85.037,-41.617 85.758,-42.956 85.357,-44.295ZM81.947,-52.882C81.185,-54.181 79.62,-54.575 78.296,-53.827L64.933,-46.216C63.609,-45.469 63.168,-43.893 63.97,-42.593C64.692,-41.333 66.297,-40.899 67.622,-41.647L80.984,-49.258C82.308,-50.007 82.709,-51.621 81.947,-52.882ZM76.05,-60.011C75.087,-60.957 73.482,-61.035 72.559,-60.051L68.381,-55.802C67.419,-54.817 67.338,-53.36 68.341,-52.375C69.303,-51.43 70.828,-51.43 71.831,-52.375L76.09,-56.545C77.132,-57.57 77.093,-58.987 76.05,-60.011ZM68.748,-65.84C67.424,-66.589 65.86,-66.156 65.097,-64.856L57.376,-51.685C56.613,-50.385 57.015,-48.81 58.379,-48.061C59.663,-47.352 61.267,-47.746 62.03,-49.046L69.751,-62.217C70.514,-63.517 70.032,-65.093 68.748,-65.84ZM60.003,-69.149C58.718,-69.504 57.314,-68.716 56.954,-67.417L55.43,-61.702C55.07,-60.362 55.792,-59.063 57.195,-58.669C58.52,-58.314 59.803,-59.063 60.205,-60.441L61.768,-66.116C62.168,-67.495 61.367,-68.756 60.003,-69.149ZM50.735,-70.568C49.211,-70.568 48.047,-69.425 48.047,-67.928L48.047,-52.708C48.047,-51.21 49.211,-50.068 50.735,-50.068C52.26,-50.068 53.423,-51.21 53.423,-52.708L53.423,-67.928C53.423,-69.425 52.26,-70.568 50.735,-70.568Z" style="fill-rule:nonzero;stroke:white;stroke-width:0.03px;"/>
        </g>
    </g>
</svg>
