<?xml version="1.0" encoding="UTF-8"?>
<!--Generator: Apple Native CoreSVG 341-->
<!DOCTYPE svg
PUBLIC "-//W3C//DTD SVG 1.1//EN"
       "http://www.w3.org/Graphics/SVG/1.1/DTD/svg11.dtd">
<svg version="1.1" xmlns="http://www.w3.org/2000/svg" xmlns:xlink="http://www.w3.org/1999/xlink" viewBox="0 0 3300 2200">
 <!--glyph: "", point size: 100.0, font version: "21.0d5e1", template writer version: "138.0.0"-->
 <style>.SFSymbolsPreviewWireframe {fill:none;opacity:1.0;stroke:black;stroke-width:0.5}
</style>
 <g id="Notes">
  <rect height="2200" id="artboard" style="fill:white;opacity:1" width="3300" x="0" y="0"/>
  <line style="fill:none;stroke:black;opacity:1;stroke-width:0.5;" x1="263" x2="3036" y1="292" y2="292"/>
  <text style="stroke:none;fill:black;font-family:sans-serif;font-size:13;font-weight:bold;" transform="matrix(1 0 0 1 263 322)">Weight/Scale Variations</text>
  <text style="stroke:none;fill:black;font-family:sans-serif;font-size:13;text-anchor:middle;" transform="matrix(1 0 0 1 559.711 322)">Ultralight</text>
  <text style="stroke:none;fill:black;font-family:sans-serif;font-size:13;text-anchor:middle;" transform="matrix(1 0 0 1 856.422 322)">Thin</text>
  <text style="stroke:none;fill:black;font-family:sans-serif;font-size:13;text-anchor:middle;" transform="matrix(1 0 0 1 1153.13 322)">Light</text>
  <text style="stroke:none;fill:black;font-family:sans-serif;font-size:13;text-anchor:middle;" transform="matrix(1 0 0 1 1449.84 322)">Regular</text>
  <text style="stroke:none;fill:black;font-family:sans-serif;font-size:13;text-anchor:middle;" transform="matrix(1 0 0 1 1746.56 322)">Medium</text>
  <text style="stroke:none;fill:black;font-family:sans-serif;font-size:13;text-anchor:middle;" transform="matrix(1 0 0 1 2043.27 322)">Semibold</text>
  <text style="stroke:none;fill:black;font-family:sans-serif;font-size:13;text-anchor:middle;" transform="matrix(1 0 0 1 2339.98 322)">Bold</text>
  <text style="stroke:none;fill:black;font-family:sans-serif;font-size:13;text-anchor:middle;" transform="matrix(1 0 0 1 2636.69 322)">Heavy</text>
  <text style="stroke:none;fill:black;font-family:sans-serif;font-size:13;text-anchor:middle;" transform="matrix(1 0 0 1 2933.4 322)">Black</text>
  <line style="fill:none;stroke:black;opacity:1;stroke-width:0.5;" x1="263" x2="3036" y1="1903" y2="1903"/>
  <g transform="matrix(0.2 0 0 0.2 263 1933)">
   <path d="m46.2402 4.15039c21.7773 0 39.4531-17.627 39.4531-39.4043s-17.6758-39.4043-39.4531-39.4043c-21.7285 0-39.4043 17.627-39.4043 39.4043s17.6758 39.4043 39.4043 39.4043Zm0-7.42188c-17.6758 0-31.9336-14.3066-31.9336-31.9824s14.2578-31.9824 31.9336-31.9824 31.9824 14.3066 31.9824 31.9824-14.3066 31.9824-31.9824 31.9824Zm3.61328-17.7734v-28.4668c0-2.24609-1.46484-3.75977-3.71094-3.75977-2.14844 0-3.61328 1.51367-3.61328 3.75977v28.4668c0 2.19727 1.46484 3.71094 3.61328 3.71094 2.24609 0 3.71094-1.51367 3.71094-3.71094Zm-17.8223-10.5957h28.418c2.19727 0 3.71094-1.46484 3.71094-3.61328 0-2.19727-1.51367-3.71094-3.71094-3.71094h-28.418c-2.24609 0-3.75977 1.51367-3.75977 3.71094 0 2.14844 1.51367 3.61328 3.75977 3.61328Z"/>
  </g>
  <g transform="matrix(0.2 0 0 0.2 281.506 1933)">
   <path d="m58.5449 14.5508c27.4902 0 49.8047-22.3145 49.8047-49.8047s-22.3145-49.8047-49.8047-49.8047-49.8047 22.3145-49.8047 49.8047 22.3145 49.8047 49.8047 49.8047Zm0-8.30078c-22.9492 0-41.5039-18.5547-41.5039-41.5039s18.5547-41.5039 41.5039-41.5039 41.5039 18.5547 41.5039 41.5039-18.5547 41.5039-41.5039 41.5039Zm4.05273-23.0957v-36.9141c0-2.49023-1.70898-4.19922-4.15039-4.19922-2.39258 0-4.05273 1.70898-4.05273 4.19922v36.9141c0 2.44141 1.66016 4.15039 4.05273 4.15039 2.44141 0 4.15039-1.66016 4.15039-4.15039Zm-22.5586-14.4043h36.9629c2.44141 0 4.15039-1.61133 4.15039-4.00391 0-2.44141-1.70898-4.15039-4.15039-4.15039h-36.9629c-2.49023 0-4.15039 1.70898-4.15039 4.15039 0 2.39258 1.66016 4.00391 4.15039 4.00391Z"/>
  </g>
  <g transform="matrix(0.2 0 0 0.2 304.924 1933)">
   <path d="m74.8535 28.3203c35.1074 0 63.623-28.4668 63.623-63.5742s-28.5156-63.623-63.623-63.623-63.5742 28.5156-63.5742 63.623 28.4668 63.5742 63.5742 63.5742Zm0-9.08203c-30.127 0-54.4922-24.3652-54.4922-54.4922s24.3652-54.4922 54.4922-54.4922 54.4922 24.3652 54.4922 54.4922-24.3652 54.4922-54.4922 54.4922Zm4.44336-30.3223v-48.4863c0-2.73438-1.85547-4.63867-4.54102-4.63867-2.58789 0-4.44336 1.9043-4.44336 4.63867v48.4863c0 2.68555 1.85547 4.58984 4.44336 4.58984 2.68555 0 4.54102-1.85547 4.54102-4.58984Zm-28.7109-19.7754h48.4863c2.68555 0 4.58984-1.80664 4.58984-4.39453 0-2.73438-1.85547-4.58984-4.58984-4.58984h-48.4863c-2.73438 0-4.58984 1.85547-4.58984 4.58984 0 2.58789 1.85547 4.39453 4.58984 4.39453Z"/>
  </g>
  <text style="stroke:none;fill:black;font-family:sans-serif;font-size:13;font-weight:bold;" transform="matrix(1 0 0 1 263 1953)">Design Variations</text>
  <text style="stroke:none;fill:black;font-family:sans-serif;font-size:13;" transform="matrix(1 0 0 1 263 1971)">Symbols are supported in up to nine weights and three scales.</text>
  <text style="stroke:none;fill:black;font-family:sans-serif;font-size:13;" transform="matrix(1 0 0 1 263 1989)">For optimal layout with text and other symbols, vertically align</text>
  <text style="stroke:none;fill:black;font-family:sans-serif;font-size:13;" transform="matrix(1 0 0 1 263 2007)">symbols with the adjacent text.</text>
  <line style="fill:none;stroke:#00AEEF;stroke-width:0.5;opacity:1.0;" x1="776" x2="776" y1="1919" y2="1933"/>
  <g transform="matrix(0.2 0 0 0.2 776 1933)">
   <path d="m16.5527 0.78125c2.58789 0 3.85742-0.976562 4.78516-3.71094l20.5566-57.5195h0.244141l20.6055 57.5195c0.927734 2.73438 2.19727 3.71094 4.73633 3.71094 2.58789 0 4.24805-1.5625 4.24805-4.00391 0-0.830078-0.146484-1.61133-0.537109-2.63672l-22.9004-60.9863c-1.12305-2.97852-3.125-4.49219-6.25-4.49219-3.02734 0-5.07812 1.46484-6.15234 4.44336l-22.9004 61.084c-0.390625 1.02539-0.537109 1.80664-0.537109 2.63672 0 2.44141 1.5625 3.95508 4.10156 3.95508Zm10.2051-20.9473h30.6641c2.00195 0 3.66211-1.66016 3.66211-3.66211 0-2.05078-1.66016-3.66211-3.66211-3.66211h-30.6641c-2.00195 0-3.66211 1.61133-3.66211 3.66211 0 2.00195 1.66016 3.66211 3.66211 3.66211Z"/>
  </g>
  <line style="fill:none;stroke:#00AEEF;stroke-width:0.5;opacity:1.0;" x1="792.836" x2="792.836" y1="1919" y2="1933"/>
  <text style="stroke:none;fill:black;font-family:sans-serif;font-size:13;font-weight:bold;" transform="matrix(1 0 0 1 776 1953)">Margins</text>
  <text style="stroke:none;fill:black;font-family:sans-serif;font-size:13;" transform="matrix(1 0 0 1 776 1971)">Leading and trailing margins on the left and right side of each symbol</text>
  <text style="stroke:none;fill:black;font-family:sans-serif;font-size:13;" transform="matrix(1 0 0 1 776 1989)">can be adjusted by modifying the x-location of the margin guidelines.</text>
  <text style="stroke:none;fill:black;font-family:sans-serif;font-size:13;" transform="matrix(1 0 0 1 776 2007)">Modifications are automatically applied proportionally to all</text>
  <text style="stroke:none;fill:black;font-family:sans-serif;font-size:13;" transform="matrix(1 0 0 1 776 2025)">scales and weights.</text>
  <g transform="matrix(0.2 0 0 0.2 1289 1933)">
   <path d="m14.209 13.1348 7.86133 7.86133c4.29688 4.39453 9.32617 4.10156 13.8672-1.02539l60.6934-68.2129-4.88281-4.88281-60.2539 67.6758c-1.80664 1.95312-3.4668 2.44141-5.81055 0.0976562l-5.17578-5.12695c-2.29492-2.29492-1.80664-3.95508 0.195312-5.81055l67.4805-62.1582-4.88281-4.83398-68.0664 62.5977c-4.98047 4.58984-5.32227 9.47266-1.02539 13.8184Zm44.873-97.4609c-2.05078 2.00195-2.24609 4.88281-1.07422 6.78711 1.12305 1.80664 3.4668 3.02734 6.5918 2.24609 5.85938-1.66016 12.5977-2.39258 18.8965 0.927734l-2.68555 7.12891c-1.61133 4.00391-0.732422 6.88477 1.70898 9.42383l10.2539 10.3027c2.34375 2.39258 4.54102 2.44141 7.08008 1.95312l4.44336-0.732422 2.58789 2.53906-0.195312 2.24609c-0.0976562 2.29492 0.537109 4.29688 2.7832 6.49414l3.36914 3.32031c2.29492 2.29492 5.51758 2.49023 7.8125 0.195312l12.9883-13.0371c2.29492-2.34375 2.14844-5.37109-0.195312-7.66602l-3.41797-3.41797c-2.19727-2.19727-4.05273-3.02734-6.34766-2.88086l-2.34375 0.244141-2.44141-2.44141 1.02539-4.6875c0.634766-2.73438-0.244141-4.98047-2.88086-7.61719l-11.2793-11.1816c-12.9395-12.8418-35.5957-11.0352-46.6797-0.146484Zm7.08008 2.05078c8.78906-6.39648 25.9766-5.66406 33.6914 1.95312l12.3047 12.207c1.02539 1.02539 1.2207 1.80664 0.927734 3.32031l-1.46484 6.64062 6.73828 6.68945 4.39453-0.244141c1.12305-0.0488281 1.51367 0.0488281 2.34375 0.878906l2.53906 2.49023-10.8398 10.8398-2.49023-2.49023c-0.830078-0.878906-0.976562-1.2207-0.927734-2.39258l0.292969-4.3457-6.68945-6.73828-6.83594 1.17188c-1.41602 0.292969-2.05078 0.195312-3.17383-0.878906l-8.93555-8.88672c-1.07422-1.02539-1.17188-1.70898-0.488281-3.36914l4.58984-11.4746c-6.10352-6.34766-17.041-7.51953-25.5859-4.58984-0.683594 0.244141-0.927734-0.390625-0.390625-0.78125Z"/>
  </g>
  <text style="stroke:none;fill:black;font-family:sans-serif;font-size:13;font-weight:bold;" transform="matrix(1 0 0 1 1289 1953)">Exporting</text>
  <text style="stroke:none;fill:black;font-family:sans-serif;font-size:13;" transform="matrix(1 0 0 1 1289 1971)">Symbols should be outlined when exporting to ensure the</text>
  <text style="stroke:none;fill:black;font-family:sans-serif;font-size:13;" transform="matrix(1 0 0 1 1289 1989)">design is preserved when submitting to Xcode.</text>
  <text id="template-version" style="stroke:none;fill:black;font-family:sans-serif;font-size:13;text-anchor:end;" transform="matrix(1 0 0 1 3036 1933)">Template v.7.0</text>
  <text style="stroke:none;fill:black;font-family:sans-serif;font-size:13;text-anchor:end;" transform="matrix(1 0 0 1 3036 1951)">Requires Xcode 17 or greater</text>
  <text id="descriptive-name" style="stroke:none;fill:black;font-family:sans-serif;font-size:13;text-anchor:end;" transform="matrix(1 0 0 1 3036 1969)">Generated from custom.timelapse</text>
  <text style="stroke:none;fill:black;font-family:sans-serif;font-size:13;text-anchor:end;" transform="matrix(1 0 0 1 3036 1987)">Typeset at 100.0 points</text>
  <text style="stroke:none;fill:black;font-family:sans-serif;font-size:13;" transform="matrix(1 0 0 1 263 726)">Small</text>
  <text style="stroke:none;fill:black;font-family:sans-serif;font-size:13;" transform="matrix(1 0 0 1 263 1156)">Medium</text>
  <text style="stroke:none;fill:black;font-family:sans-serif;font-size:13;" transform="matrix(1 0 0 1 263 1586)">Large</text>
 </g>
 <g id="Guides">
  <g id="H-reference" style="fill:#27AAE1;stroke:none;" transform="matrix(1 0 0 1 339 696)">
   <path d="M0.993654 0L3.63775 0L29.3281-67.1323L30.0303-67.1323L30.0303-70.459L28.1226-70.459ZM11.6885-24.4799L46.9815-24.4799L46.2315-26.7285L12.4385-26.7285ZM55.1196 0L57.7637 0L30.6382-70.459L29.4326-70.459L29.4326-67.1323Z"/>
  </g>
  <line id="Baseline-S" style="fill:none;stroke:#27AAE1;opacity:1;stroke-width:0.5;" x1="263" x2="3036" y1="696" y2="696"/>
  <line id="Capline-S" style="fill:none;stroke:#27AAE1;opacity:1;stroke-width:0.5;" x1="263" x2="3036" y1="625.541" y2="625.541"/>
  <g id="H-reference" style="fill:#27AAE1;stroke:none;" transform="matrix(1 0 0 1 339 1126)">
   <path d="M0.993654 0L3.63775 0L29.3281-67.1323L30.0303-67.1323L30.0303-70.459L28.1226-70.459ZM11.6885-24.4799L46.9815-24.4799L46.2315-26.7285L12.4385-26.7285ZM55.1196 0L57.7637 0L30.6382-70.459L29.4326-70.459L29.4326-67.1323Z"/>
  </g>
  <line id="Baseline-M" style="fill:none;stroke:#27AAE1;opacity:1;stroke-width:0.5;" x1="263" x2="3036" y1="1126" y2="1126"/>
  <line id="Capline-M" style="fill:none;stroke:#27AAE1;opacity:1;stroke-width:0.5;" x1="263" x2="3036" y1="1055.54" y2="1055.54"/>
  <g id="H-reference" style="fill:#27AAE1;stroke:none;" transform="matrix(1 0 0 1 339 1556)">
   <path d="M0.993654 0L3.63775 0L29.3281-67.1323L30.0303-67.1323L30.0303-70.459L28.1226-70.459ZM11.6885-24.4799L46.9815-24.4799L46.2315-26.7285L12.4385-26.7285ZM55.1196 0L57.7637 0L30.6382-70.459L29.4326-70.459L29.4326-67.1323Z"/>
  </g>
  <line id="Baseline-L" style="fill:none;stroke:#27AAE1;opacity:1;stroke-width:0.5;" x1="263" x2="3036" y1="1556" y2="1556"/>
  <line id="Capline-L" style="fill:none;stroke:#27AAE1;opacity:1;stroke-width:0.5;" x1="263" x2="3036" y1="1485.54" y2="1485.54"/>
  <line id="right-margin-Black-S" style="fill:none;stroke:#00AEEF;stroke-width:0.5;opacity:1.0;" x1="2984.13" x2="2984.13" y1="600.785" y2="720.121"/>
  <line id="left-margin-Black-S" style="fill:none;stroke:#00AEEF;stroke-width:0.5;opacity:1.0;" x1="2882.67" x2="2882.67" y1="600.785" y2="720.121"/>
  <line id="right-margin-Regular-S" style="fill:none;stroke:#00AEEF;stroke-width:0.5;opacity:1.0;" x1="1500.16" x2="1500.16" y1="600.785" y2="720.121"/>
  <line id="left-margin-Regular-S" style="fill:none;stroke:#00AEEF;stroke-width:0.5;opacity:1.0;" x1="1399.53" x2="1399.53" y1="600.785" y2="720.121"/>
  <line id="right-margin-Ultralight-S" style="fill:none;stroke:#00AEEF;stroke-width:0.5;opacity:1.0;" x1="608.099" x2="608.099" y1="600.785" y2="720.121"/>
  <line id="left-margin-Ultralight-S" style="fill:none;stroke:#00AEEF;stroke-width:0.5;opacity:1.0;" x1="511.324" x2="511.324" y1="600.785" y2="720.121"/>
 </g>
 <g id="Symbols">
  <g id="Black-S" transform="matrix(1 0 0 1 2882.67 696)">
   <path class="SFSymbolsPreviewWireframe" d="M50.7324-79.0527C48.877-79.0527 47.4609-77.6367 47.4609-75.7812L47.4609-60.9375C47.4609-59.082 48.877-57.666 50.7324-57.666C52.5879-57.666 54.0039-59.082 54.0039-60.9375L54.0039-75.7812C54.0039-77.6367 52.5879-79.0527 50.7324-79.0527ZM62.0117-77.2949C60.4492-77.7344 58.7402-76.7578 58.3008-75.1465L57.1289-70.6543C56.6895-68.9941 57.5684-67.3828 59.2773-66.8945C60.8887-66.4551 62.4512-67.3828 62.9395-69.0918L64.1602-73.5352C64.6484-75.2441 63.6719-76.8066 62.0117-77.2949ZM72.6562-73.1934C71.0449-74.1211 69.1406-73.584 68.2129-71.9727L60.791-59.1309C59.8633-57.5195 60.3516-55.5664 62.0117-54.6387C63.5742-53.7598 65.5273-54.248 66.4551-55.8594L73.877-68.7012C74.8047-70.3125 74.2188-72.2656 72.6562-73.1934ZM81.543-65.9668C80.3711-67.1387 78.418-67.2363 77.2949-66.0156L74.0723-62.6465C72.9004-61.4258 72.8027-59.6191 74.0234-58.3984C75.1953-57.2266 77.0508-57.2266 78.2715-58.3984L81.5918-61.6699C82.8613-62.9395 82.8125-64.6973 81.543-65.9668ZM88.7207-57.1289C87.793-58.7402 85.8887-59.2285 84.2773-58.3008L71.4355-50.8789C69.8242-49.9512 69.2871-47.998 70.2637-46.3867C71.1426-44.8242 73.0957-44.2871 74.707-45.2148L87.5488-52.6367C89.1602-53.5645 89.6484-55.5664 88.7207-57.1289ZM92.8711-46.4844C92.4316-48.0469 90.7715-49.1211 89.1602-48.6328L84.7168-47.3145C83.0566-46.8262 82.0801-45.3125 82.5195-43.6523C82.959-42.041 84.6191-41.0645 86.2793-41.5039L90.6738-42.6758C92.4805-43.1641 93.3594-44.8242 92.8711-46.4844ZM94.6289-35.1562C94.6289-37.0117 93.2129-38.4277 91.3574-38.4277L76.5137-38.4277C74.6582-38.4277 73.2422-37.0117 73.2422-35.1562C73.2422-33.3008 74.6582-31.8848 76.5137-31.8848L91.3574-31.8848C93.2129-31.8848 94.6289-33.3008 94.6289-35.1562ZM92.8711-23.877C93.2129-25.3906 92.4316-27.2461 90.7227-27.6367L86.2793-28.6621C84.5703-29.0527 83.0078-28.2715 82.5195-26.5625C82.0801-25.0488 83.0078-23.3398 84.6191-22.9004L89.1602-21.6797C90.918-21.1914 92.4805-22.168 92.8711-23.877ZM88.7695-13.2324C89.6973-14.7949 89.1602-16.748 87.5488-17.6758L74.707-25.0977C73.0957-26.0254 71.1426-25.4883 70.2148-23.9258C69.2871-22.3145 69.8242-20.3613 71.4355-19.4336L84.2773-12.0117C85.8887-11.084 87.8418-11.6211 88.7695-13.2324ZM81.6406-4.3457C82.7637-5.51758 82.959-7.42188 81.6406-8.64258L78.2715-11.7676C77.002-12.9883 75.2441-13.0371 74.0234-11.8164C72.9004-10.6934 72.8516-8.74023 74.0234-7.56836L77.2461-4.29688C78.5645-2.97852 80.4199-3.07617 81.6406-4.3457ZM72.7051 2.83203C74.3164 1.95312 74.8047 0 73.877-1.61133L66.4551-14.4531C65.5273-16.0645 63.5742-16.6016 62.0117-15.6738C60.4004-14.7461 59.8633-12.793 60.791-11.1816L68.2129 1.66016C69.1406 3.27148 71.0938 3.75977 72.7051 2.83203ZM62.0117 6.98242C63.5742 6.54297 64.7461 4.93164 64.209 3.22266L62.8906-1.07422C62.3535-2.7832 60.9375-3.85742 59.2773-3.32031C57.7148-2.83203 56.5918-1.2207 57.0312 0.292969L58.3008 4.88281C58.7891 6.64062 60.3516 7.4707 62.0117 6.98242ZM50.7324 8.74023C52.5879 8.74023 54.0039 7.32422 54.0039 5.46875L54.0039-9.375C54.0039-11.2305 52.5879-12.6465 50.7324-12.6465C48.877-12.6465 47.4609-11.2305 47.4609-9.375L47.4609 5.46875C47.4609 7.32422 48.877 8.74023 50.7324 8.74023ZM39.4043 7.08008C40.9668 7.56836 42.7246 6.54297 43.1641 4.93164L44.3359 0.439453C44.7754-1.2207 43.8965-2.83203 42.1875-3.32031C40.5762-3.75977 39.0137-2.83203 38.5254-1.12305L37.3047 3.32031C36.8164 5.0293 37.793 6.5918 39.4043 7.08008ZM28.8086 2.88086C30.3711 3.80859 32.3242 3.27148 33.252 1.66016L40.6738-11.1816C41.6016-12.793 41.0645-14.7461 39.502-15.6738C37.8906-16.6016 35.9375-16.0645 34.9609-14.4531L27.5879-1.61133C26.6602 0 27.1973 1.95312 28.8086 2.88086ZM19.873-4.24805C21.0449-3.07617 23.0469-2.97852 24.1699-4.19922L27.3926-7.56836C28.5645-8.78906 28.6621-10.5957 27.4414-11.8164C26.2695-12.9883 24.3652-13.0371 23.1445-11.8164L19.873-8.54492C18.6035-7.27539 18.6523-5.46875 19.873-4.24805ZM12.7441-13.1836C13.623-11.5723 15.5762-11.084 17.1875-12.0117L30.0293-19.4336C31.6406-20.3613 32.1777-22.3145 31.25-23.877C30.3223-25.4883 28.3691-26.0254 26.709-25.0977L13.916-17.6758C12.3047-16.748 11.8164-14.7949 12.7441-13.1836ZM8.54492-23.8281C8.93555-22.2656 10.6934-21.1426 12.2559-21.6309L16.6992-22.9492C18.4082-23.4375 19.3848-24.9023 18.9453-26.5625C18.5059-28.2227 16.8457-29.1992 15.1855-28.7598L10.7422-27.5391C8.93555-27.0508 8.1543-25.4883 8.54492-23.8281ZM6.83594-35.1562C6.83594-33.3008 8.25195-31.8848 10.1074-31.8848L24.9512-31.8848C26.8066-31.8848 28.2227-33.3008 28.2227-35.1562C28.2227-37.0117 26.8066-38.4277 24.9512-38.4277L10.1074-38.4277C8.25195-38.4277 6.83594-37.0117 6.83594-35.1562ZM8.54492-46.4844C8.05664-44.8242 9.0332-43.0664 10.7422-42.6758L15.1855-41.6016C16.8945-41.2109 18.457-41.9434 18.9453-43.6523C19.3848-45.2148 18.4082-46.9238 16.748-47.3633L12.3047-48.584C10.5469-49.0723 8.98438-48.0469 8.54492-46.4844ZM12.6953-57.1289C11.7676-55.5176 12.3047-53.5645 13.916-52.6367L26.7578-45.2148C28.3691-44.2871 30.3223-44.8242 31.25-46.4355C32.1777-47.998 31.6406-49.9512 30.0293-50.8789L17.1875-58.3008C15.5762-59.2285 13.623-58.6914 12.6953-57.1289ZM19.873-66.0156C18.6523-64.8438 18.6035-62.8418 19.7754-61.7188L23.1445-58.4961C24.4141-57.3242 26.1719-57.1777 27.4414-58.3984C28.6621-59.5703 28.6133-61.5234 27.4414-62.6953L24.1211-66.0156C22.8516-67.2852 21.1426-67.2363 19.873-66.0156ZM28.7598-73.1934C27.1484-72.2656 26.6602-70.3125 27.5879-68.7012L35.0098-55.8594C35.9375-54.248 37.8906-53.7109 39.502-54.6875C41.0645-55.5664 41.6016-57.5195 40.6738-59.1309L33.252-71.9727C32.3242-73.584 30.3711-74.0723 28.7598-73.1934ZM39.4531-77.3438C37.7441-77.002 36.7188-75.2441 37.2559-73.5352L38.5742-69.1895C39.1113-67.4316 40.4785-66.4551 42.1875-66.8945C43.75-67.2852 44.8242-69.043 44.3848-70.6543L43.1641-75.1465C42.6758-76.9043 41.0645-77.6855 39.4531-77.3438Z"/>
  </g>
  <g id="Regular-S" transform="matrix(1 0 0 1 1399.53 696)">
   <path class="SFSymbolsPreviewWireframe" d="M50.3418-78.7109C48.9258-78.7109 47.7539-77.5391 47.7539-76.123L47.7539-62.1094C47.7539-60.6445 48.9258-59.5703 50.3418-59.5703C51.7578-59.5703 52.8809-60.6445 52.8809-62.1094L52.8809-76.123C52.8809-77.5391 51.7578-78.7109 50.3418-78.7109ZM61.7188-77.5879C60.4004-78.0273 59.0332-77.3926 58.5938-75.7812L57.373-71.1914C56.9824-69.8242 57.7148-68.4082 59.1309-68.0664C60.498-67.7246 61.8652-68.457 62.2559-69.8242L63.4766-74.4629C63.8184-75.9277 63.0859-77.1973 61.7188-77.5879ZM72.0703-72.8516C70.8496-73.5352 69.2871-73.1934 68.6035-71.9727L61.5723-59.7656C60.8398-58.4961 61.2793-56.9824 62.5488-56.2988C63.7207-55.5664 65.2832-55.957 65.9668-57.2266L72.998-69.3848C73.6816-70.6055 73.291-72.1191 72.0703-72.8516ZM81.3965-66.2598C80.3711-67.2363 78.8086-67.1875 77.832-66.2598L74.4629-62.8418C73.3887-61.7188 73.3887-60.2539 74.4629-59.2285C75.4883-58.2031 77.002-58.2031 77.9785-59.2285L81.3477-62.5977C82.373-63.7207 82.4219-65.2344 81.3965-66.2598ZM88.0371-56.9336C87.3047-58.1543 85.7422-58.5938 84.5215-57.8613L72.3633-50.8789C71.0938-50.1465 70.7031-48.584 71.4844-47.3633C72.1191-46.1914 73.6328-45.7031 74.9023-46.4844L87.0605-53.4668C88.2812-54.1992 88.6719-55.7129 88.0371-56.9336ZM92.7734-46.582C92.4316-47.9492 90.9668-48.7793 89.6973-48.3887L85.0586-47.0703C83.6426-46.6797 82.8125-45.3613 83.3496-43.75C83.6426-42.7246 84.8633-41.7969 86.377-42.1875L90.918-43.457C92.334-43.8477 93.1152-45.2148 92.7734-46.582ZM93.7988-35.2051C93.7988-36.6211 92.6758-37.7441 91.2598-37.7441L77.2461-37.7441C75.7812-37.7441 74.707-36.6211 74.707-35.2051C74.707-33.7891 75.7812-32.666 77.2461-32.666L91.2598-32.666C92.6758-32.666 93.7988-33.7891 93.7988-35.2051ZM92.7734-23.7305C93.1641-25.1465 92.5293-26.5137 91.0156-26.9043L86.377-28.2227C84.9609-28.5645 83.5938-27.7832 83.252-26.416C82.9102-25.0488 83.6914-23.584 85.0098-23.2422L89.5996-22.0703C91.0645-21.6797 92.3828-22.4121 92.7734-23.7305ZM87.9883-13.4766C88.6719-14.6484 88.2812-16.2109 87.0605-16.9434L74.9023-23.9258C73.6328-24.707 72.1191-24.2188 71.4355-23.0469C70.7031-21.8262 71.0938-20.2637 72.3633-19.5312L84.5215-12.5488C85.7422-11.8164 87.2559-12.2559 87.9883-13.4766ZM81.3965-4.15039C82.4219-5.17578 82.373-6.83594 81.4941-7.71484L77.9785-11.084C76.9531-12.0605 75.3906-12.207 74.3164-11.084C73.3887-10.0586 73.4375-8.59375 74.4141-7.56836L77.7832-4.19922C78.8574-3.125 80.3711-3.07617 81.3965-4.15039ZM72.0703 2.44141C73.291 1.75781 73.6816 0.244141 72.998-1.02539L65.9668-13.1836C65.2832-14.4531 63.7207-14.8438 62.5488-14.1113C61.2793-13.4277 60.8398-11.9141 61.5723-10.5957L68.6035 1.5625C69.2871 2.7832 70.8008 3.17383 72.0703 2.44141ZM61.7676 7.27539C63.3789 6.88477 63.8184 5.46875 63.5254 4.19922L62.3047-0.537109C61.9141-1.95312 60.4004-2.68555 59.082-2.34375C57.5684-1.9043 56.9336-0.488281 57.3242 0.78125L58.6914 5.37109C59.1309 6.73828 60.2051 7.56836 61.7676 7.27539ZM50.3418 8.30078C51.7578 8.30078 52.8809 7.12891 52.8809 5.71289L52.8809-8.30078C52.8809-9.76562 51.7578-10.8398 50.3418-10.8398C48.9258-10.8398 47.7539-9.76562 47.7539-8.30078L47.7539 5.71289C47.7539 7.12891 48.9258 8.30078 50.3418 8.30078ZM38.7207 7.27539C40.2832 7.71484 41.6992 6.83594 42.041 5.51758L43.3105 0.878906C43.6523-0.488281 42.9199-1.9043 41.5527-2.24609C40.1855-2.58789 38.8184-1.85547 38.4277-0.488281L37.207 4.19922C36.8164 5.61523 37.3047 6.78711 38.7207 7.27539ZM28.6133 2.44141C29.7852 3.17383 31.3477 2.7832 32.0312 1.5625L39.0625-10.5957C39.8438-11.9141 39.3555-13.4277 38.1836-14.1113C36.9629-14.8438 35.4004-14.4531 34.668-13.1836L27.6855-1.02539C26.9531 0.244141 27.3926 1.75781 28.6133 2.44141ZM19.2871-4.15039C20.3613-3.125 21.875-3.125 22.8027-4.05273L26.2207-7.4707C27.2461-8.54492 27.2949-10.0098 26.2695-11.084C25.2441-12.0605 23.6328-12.1094 22.6562-11.084L19.3359-7.66602C18.2617-6.5918 18.2129-5.17578 19.2871-4.15039ZM12.6953-13.4766C13.3301-12.2559 14.8926-11.8164 16.1133-12.5488L28.2715-19.5312C29.541-20.2637 29.9316-21.8262 29.248-22.998C28.5156-24.2188 27.002-24.707 25.7324-23.9258L13.5742-16.9434C12.3535-16.2109 11.9629-14.6973 12.6953-13.4766ZM7.86133-23.8281C8.20312-22.4609 9.66797-21.7285 10.9863-22.0703L15.625-23.2422C17.0898-23.6328 17.8223-24.9512 17.4316-26.3672C17.041-27.6855 15.6738-28.5156 14.3066-28.1738L9.76562-26.9043C8.25195-26.5137 7.51953-25.1953 7.86133-23.8281ZM6.83594-35.2051C6.83594-33.7891 7.95898-32.666 9.375-32.666L23.4375-32.666C24.8535-32.666 25.9766-33.7891 25.9766-35.2051C25.9766-36.6211 24.8535-37.7441 23.4375-37.7441L9.375-37.7441C7.95898-37.7441 6.83594-36.6211 6.83594-35.2051ZM7.8125-46.5332C7.51953-45.2148 8.39844-43.8477 9.66797-43.457L14.3066-42.1875C15.7227-41.7969 17.1387-42.627 17.3828-44.043C17.6758-45.3613 17.0898-46.8262 15.6738-47.168L11.0352-48.291C9.52148-48.6816 8.10547-47.9004 7.8125-46.5332ZM12.6953-56.9824C11.9629-55.7617 12.3535-54.1992 13.5742-53.4668L25.7324-46.4844C27.002-45.7031 28.5156-46.1914 29.248-47.3633C29.9316-48.584 29.541-50.1465 28.2715-50.8301L16.1133-57.8613C14.8926-58.5938 13.3789-58.1543 12.6953-56.9824ZM19.2383-66.2598C18.2129-65.332 18.3105-63.6719 19.2871-62.6953L22.6074-59.375C23.6816-58.3008 25.1465-58.252 26.2207-59.3262C27.1973-60.2539 27.2949-61.8164 26.2207-62.8906L22.8516-66.2598C21.7773-67.334 20.3125-67.2852 19.2383-66.2598ZM28.6133-72.9004C27.3926-72.168 26.9531-70.6055 27.6855-69.3848L34.668-57.2266C35.4004-55.957 36.9629-55.5664 38.1348-56.2988C39.3555-56.9824 39.8438-58.4961 39.0625-59.7656L32.0312-71.9727C31.3477-73.1934 29.834-73.5352 28.6133-72.9004ZM38.916-77.6855C37.5-77.3926 36.7188-76.1719 37.1582-74.5605L38.4277-69.873C38.7695-68.5059 40.1367-67.7734 41.748-68.2617C43.2129-68.7012 43.7988-69.9219 43.3594-71.2891L42.041-75.7812C41.6016-77.3438 40.332-77.9785 38.916-77.6855Z"/>
  </g>
  <g id="Ultralight-S" transform="matrix(1 0 0 1 511.324 696)">
   <path class="SFSymbolsPreviewWireframe" d="M48.3438-76.7129C47.7451-76.7129 47.3452-76.1768 47.3452-75.6235L47.3452-60.52C47.3452-59.9634 47.7451-59.4341 48.3438-59.4341C49.0332-59.4341 49.4297-59.9634 49.4297-60.52L49.4297-75.6235C49.4297-76.1768 49.0332-76.7129 48.3438-76.7129ZM59.2666-75.3628C58.5386-75.5752 58.0796-75.1221 57.9126-74.5098L56.374-69.4658C56.165-68.8706 56.4434-68.3174 57.042-68.1572C57.7735-67.9517 58.3233-68.2754 58.4868-68.9614L59.8438-74.0088C60.0493-74.7017 59.771-75.1992 59.2666-75.3628ZM69.1641-71.1714C68.6245-71.4463 67.9702-71.2407 67.7407-70.7012L60.1646-57.6768C59.8862-57.1338 59.9624-56.4829 60.5054-56.208C61.0869-55.8389 61.6958-56.0933 61.9707-56.6362L69.5015-69.6572C69.8218-70.1968 69.7036-70.8023 69.1641-71.1714ZM77.9453-64.4888C77.4649-65.0567 76.7652-64.917 76.3335-64.4888L72.4649-60.8892C71.981-60.4019 71.981-59.8452 72.4194-59.3647C72.9453-58.8389 73.5962-58.8389 74.0733-59.3193L77.7603-63.0063C78.3316-63.5845 78.335-64.0991 77.9453-64.4888ZM84.3589-56.0254C84.0352-56.4741 83.4263-56.5957 82.8867-56.272L69.8657-48.7901C69.3228-48.4663 69.0684-47.8574 69.3955-47.3179C69.7124-46.7363 70.3633-46.6113 70.8609-46.9385L83.9727-54.4658C84.4668-54.7895 84.6758-55.395 84.3589-56.0254ZM88.732-45.7647C88.5264-46.4961 87.9243-46.7359 87.336-46.5723L82.1524-45.3901C81.5083-45.1812 81.2232-44.7256 81.3516-44.0679C81.5537-43.3603 82.1387-43.0683 82.7442-43.1865L87.8301-44.5923C88.565-44.7559 88.8467-45.2603 88.732-45.7647ZM89.939-35.2051C89.939-35.8037 89.4063-36.2002 88.853-36.2002L73.7495-36.2002C73.1929-36.2002 72.6636-35.8037 72.6636-35.2051C72.6636-34.5156 73.1929-34.1191 73.7495-34.1191L88.853-34.1191C89.4063-34.1191 89.939-34.5156 89.939-35.2051ZM88.6866-24.1392C88.8955-24.9194 88.4424-25.3784 87.8369-25.542L82.7442-27.1328C82.1455-27.2476 81.6411-27.0112 81.4356-26.3706C81.23-25.6392 81.6026-25.1279 82.2398-24.9224L87.2837-23.5688C88.0674-23.3599 88.523-23.6836 88.6866-24.1392ZM84.4009-14.3848C84.6758-14.9209 84.4668-15.5752 83.9727-15.8081L70.9063-23.3809C70.3633-23.708 69.7124-23.583 69.4375-23.0469C69.0684-22.4619 69.3228-21.853 69.8657-21.5747L82.8867-14.0474C83.4263-13.7236 84.0318-13.8452 84.4009-14.3848ZM77.8091-5.46727C78.3804-5.99316 78.2408-6.6543 77.8159-7.12452L74.1641-11.0386C73.6836-11.4248 73.1655-11.4351 72.6362-10.9932C72.1172-10.4673 72.166-9.86522 72.5977-9.33934L76.2847-5.65233C76.8594-5.07762 77.4649-5.11961 77.8091-5.46727ZM69.2095 0.806653C69.7036 0.486338 69.8218-0.119138 69.5015-0.662112L61.9707-13.6831C61.6958-14.2261 61.0869-14.4805 60.5508-14.1567C59.9624-13.8364 59.8862-13.1855 60.1646-12.6846L67.7407 0.381845C67.9702 0.921401 68.6211 1.13039 69.2095 0.806653ZM59.0884 5.32277C59.8369 5.11378 60.0039 4.51514 59.8926 3.88135L58.6719-1.35449C58.4629-1.90772 58.0391-2.18604 57.3565-2.07129C56.6602-1.9043 56.3887-1.30566 56.5068-0.671864L57.874 4.41749C58.041 5.14894 58.5703 5.38869 59.0884 5.32277ZM48.3438 6.39357C49.0332 6.39357 49.4297 5.85743 49.4297 5.3042L49.4297-9.7993C49.4297-10.356 49.0332-10.8853 48.3438-10.8853C47.7451-10.8853 47.3452-10.356 47.3452-9.7993L47.3452 5.3042C47.3452 5.85743 47.7451 6.39357 48.3438 6.39357ZM37.4492 5.23195C38.1944 5.44435 38.7022 4.97414 38.8169 4.38233L40.4043-0.665027C40.6099-1.26025 40.2862-1.81348 39.6909-1.97363C38.9595-2.1792 38.4097-1.85547 38.2461-1.16943L36.8892 3.88135C36.6802 4.61622 36.9414 5.06154 37.4492 5.23195ZM27.6143 0.806653C28.1504 1.13039 28.8047 0.921401 29.0796 0.381845L36.6104-12.6391C36.9375-13.1855 36.8125-13.8364 36.231-14.1567C35.6914-14.4805 35.0825-14.2261 34.8042-13.6831L27.2769-0.662112C26.9531-0.119138 27.0747 0.486338 27.6143 0.806653ZM18.7876-5.64891C19.2715-5.07762 19.9678-5.21385 20.396-5.64208L24.2681-9.24169C24.7486-9.72558 24.752-10.2822 24.3169-10.7661C23.791-11.2886 23.1333-11.292 22.6562-10.8115L18.9727-7.1211C18.3979-6.54639 18.3945-5.99316 18.7876-5.64891ZM12.3774-14.3848C12.7398-13.8452 13.3486-13.7236 13.8882-14.0474L26.9092-21.5747C27.4522-21.853 27.7066-22.5073 27.3408-23.0435C27.0625-23.583 26.4116-23.708 25.8687-23.3809L12.8477-15.8081C12.3081-15.5752 12.0991-14.9243 12.3774-14.3848ZM7.99756-24.373C8.20312-23.6416 8.85059-23.4087 9.39699-23.5688L14.626-24.7407C15.228-24.9497 15.5064-25.4053 15.3882-26.0493C15.1792-26.7774 14.584-27.0625 13.9888-26.9024L8.94825-25.542C8.16113-25.333 7.88281-24.8774 7.99756-24.373ZM6.83594-35.2051C6.83594-34.5156 7.36866-34.1191 7.92189-34.1191L23.0288-34.1191C23.582-34.1191 24.1148-34.5156 24.1148-35.2051C24.1148-35.8037 23.582-36.2002 23.0288-36.2002L7.92189-36.2002C7.36866-36.2002 6.83594-35.8037 6.83594-35.2051ZM8.03955-45.9883C7.8374-45.2148 8.30762-44.7104 8.896-44.5923L13.9888-42.9595C14.5874-42.8867 15.0952-43.1265 15.294-43.7705C15.4961-44.4985 15.1372-45.0098 14.4932-45.2153L9.44581-46.5654C8.70411-46.7744 8.19629-46.4473 8.03955-45.9883ZM12.4229-55.9834C12.0991-55.3984 12.3081-54.7441 12.8477-54.4658L25.8687-46.9385C26.4116-46.6113 27.0625-46.7363 27.3862-47.3179C27.7066-47.8574 27.4522-48.4663 26.9092-48.7412L13.8882-56.272C13.3486-56.5957 12.7432-56.4741 12.4229-55.9834ZM18.9204-64.6704C18.3491-64.106 18.4922-63.4902 18.9238-63.0132L22.562-59.1025C23.0459-58.7095 23.5571-58.7061 24.0864-59.1445C24.6089-59.6636 24.5703-60.2725 24.1319-60.8018L20.4448-64.4888C19.8701-65.0635 19.3135-65.0147 18.9204-64.6704ZM27.6597-71.1748C27.0747-70.8057 26.9531-70.1968 27.2769-69.6572L34.7588-56.6362C35.0825-56.0933 35.6914-55.8389 36.273-56.208C36.8125-56.4829 36.9375-57.1338 36.6104-57.6768L29.0796-70.7012C28.7593-71.2407 28.1538-71.4463 27.6597-71.1748ZM37.6445-75.4605C36.9097-75.2583 36.7188-74.6279 36.8403-74.0156L38.0645-68.7378C38.27-68.2334 38.6836-67.9551 39.3867-68.0801C40.125-68.2471 40.3477-68.7866 40.2715-69.4727L38.8623-74.5098C38.6953-75.3003 38.1524-75.5264 37.6445-75.4605Z"/>
  </g>
 </g>
</svg>
