<?xml version="1.0" encoding="UTF-8"?>
<!--Generator: Apple Native CoreSVG 341-->
<!DOCTYPE svg
PUBLIC "-//W3C//DTD SVG 1.1//EN"
       "http://www.w3.org/Graphics/SVG/1.1/DTD/svg11.dtd">
<svg version="1.1" xmlns="http://www.w3.org/2000/svg" xmlns:xlink="http://www.w3.org/1999/xlink" viewBox="0 0 3300 2200">
 <!--glyph: "1009F2", point size: 100.0, font version: "21.0d5e1", template writer version: "138.0.0"-->
 <style>.SFSymbolsPreviewWireframe {fill:none;opacity:1.0;stroke:black;stroke-width:0.5}
</style>
 <g id="Notes">
  <rect height="2200" id="artboard" style="fill:white;opacity:1" width="3300" x="0" y="0"/>
  <line style="fill:none;stroke:black;opacity:1;stroke-width:0.5;" x1="263" x2="3036" y1="292" y2="292"/>
  <text style="stroke:none;fill:black;font-family:sans-serif;font-size:13;font-weight:bold;" transform="matrix(1 0 0 1 263 322)">Weight/Scale Variations</text>
  <text style="stroke:none;fill:black;font-family:sans-serif;font-size:13;text-anchor:middle;" transform="matrix(1 0 0 1 559.711 322)">Ultralight</text>
  <text style="stroke:none;fill:black;font-family:sans-serif;font-size:13;text-anchor:middle;" transform="matrix(1 0 0 1 856.422 322)">Thin</text>
  <text style="stroke:none;fill:black;font-family:sans-serif;font-size:13;text-anchor:middle;" transform="matrix(1 0 0 1 1153.13 322)">Light</text>
  <text style="stroke:none;fill:black;font-family:sans-serif;font-size:13;text-anchor:middle;" transform="matrix(1 0 0 1 1449.84 322)">Regular</text>
  <text style="stroke:none;fill:black;font-family:sans-serif;font-size:13;text-anchor:middle;" transform="matrix(1 0 0 1 1746.56 322)">Medium</text>
  <text style="stroke:none;fill:black;font-family:sans-serif;font-size:13;text-anchor:middle;" transform="matrix(1 0 0 1 2043.27 322)">Semibold</text>
  <text style="stroke:none;fill:black;font-family:sans-serif;font-size:13;text-anchor:middle;" transform="matrix(1 0 0 1 2339.98 322)">Bold</text>
  <text style="stroke:none;fill:black;font-family:sans-serif;font-size:13;text-anchor:middle;" transform="matrix(1 0 0 1 2636.69 322)">Heavy</text>
  <text style="stroke:none;fill:black;font-family:sans-serif;font-size:13;text-anchor:middle;" transform="matrix(1 0 0 1 2933.4 322)">Black</text>
  <line style="fill:none;stroke:black;opacity:1;stroke-width:0.5;" x1="263" x2="3036" y1="1903" y2="1903"/>
  <g transform="matrix(0.2 0 0 0.2 263 1933)">
   <path d="m46.2402 4.15039c21.7773 0 39.4531-17.627 39.4531-39.4043s-17.6758-39.4043-39.4531-39.4043c-21.7285 0-39.4043 17.627-39.4043 39.4043s17.6758 39.4043 39.4043 39.4043Zm0-7.42188c-17.6758 0-31.9336-14.3066-31.9336-31.9824s14.2578-31.9824 31.9336-31.9824 31.9824 14.3066 31.9824 31.9824-14.3066 31.9824-31.9824 31.9824Zm3.61328-17.7734v-28.4668c0-2.24609-1.46484-3.75977-3.71094-3.75977-2.14844 0-3.61328 1.51367-3.61328 3.75977v28.4668c0 2.19727 1.46484 3.71094 3.61328 3.71094 2.24609 0 3.71094-1.51367 3.71094-3.71094Zm-17.8223-10.5957h28.418c2.19727 0 3.71094-1.46484 3.71094-3.61328 0-2.19727-1.51367-3.71094-3.71094-3.71094h-28.418c-2.24609 0-3.75977 1.51367-3.75977 3.71094 0 2.14844 1.51367 3.61328 3.75977 3.61328Z"/>
  </g>
  <g transform="matrix(0.2 0 0 0.2 281.506 1933)">
   <path d="m58.5449 14.5508c27.4902 0 49.8047-22.3145 49.8047-49.8047s-22.3145-49.8047-49.8047-49.8047-49.8047 22.3145-49.8047 49.8047 22.3145 49.8047 49.8047 49.8047Zm0-8.30078c-22.9492 0-41.5039-18.5547-41.5039-41.5039s18.5547-41.5039 41.5039-41.5039 41.5039 18.5547 41.5039 41.5039-18.5547 41.5039-41.5039 41.5039Zm4.05273-23.0957v-36.9141c0-2.49023-1.70898-4.19922-4.15039-4.19922-2.39258 0-4.05273 1.70898-4.05273 4.19922v36.9141c0 2.44141 1.66016 4.15039 4.05273 4.15039 2.44141 0 4.15039-1.66016 4.15039-4.15039Zm-22.5586-14.4043h36.9629c2.44141 0 4.15039-1.61133 4.15039-4.00391 0-2.44141-1.70898-4.15039-4.15039-4.15039h-36.9629c-2.49023 0-4.15039 1.70898-4.15039 4.15039 0 2.39258 1.66016 4.00391 4.15039 4.00391Z"/>
  </g>
  <g transform="matrix(0.2 0 0 0.2 304.924 1933)">
   <path d="m74.8535 28.3203c35.1074 0 63.623-28.4668 63.623-63.5742s-28.5156-63.623-63.623-63.623-63.5742 28.5156-63.5742 63.623 28.4668 63.5742 63.5742 63.5742Zm0-9.08203c-30.127 0-54.4922-24.3652-54.4922-54.4922s24.3652-54.4922 54.4922-54.4922 54.4922 24.3652 54.4922 54.4922-24.3652 54.4922-54.4922 54.4922Zm4.44336-30.3223v-48.4863c0-2.73438-1.85547-4.63867-4.54102-4.63867-2.58789 0-4.44336 1.9043-4.44336 4.63867v48.4863c0 2.68555 1.85547 4.58984 4.44336 4.58984 2.68555 0 4.54102-1.85547 4.54102-4.58984Zm-28.7109-19.7754h48.4863c2.68555 0 4.58984-1.80664 4.58984-4.39453 0-2.73438-1.85547-4.58984-4.58984-4.58984h-48.4863c-2.73438 0-4.58984 1.85547-4.58984 4.58984 0 2.58789 1.85547 4.39453 4.58984 4.39453Z"/>
  </g>
  <text style="stroke:none;fill:black;font-family:sans-serif;font-size:13;font-weight:bold;" transform="matrix(1 0 0 1 263 1953)">Design Variations</text>
  <text style="stroke:none;fill:black;font-family:sans-serif;font-size:13;" transform="matrix(1 0 0 1 263 1971)">Symbols are supported in up to nine weights and three scales.</text>
  <text style="stroke:none;fill:black;font-family:sans-serif;font-size:13;" transform="matrix(1 0 0 1 263 1989)">For optimal layout with text and other symbols, vertically align</text>
  <text style="stroke:none;fill:black;font-family:sans-serif;font-size:13;" transform="matrix(1 0 0 1 263 2007)">symbols with the adjacent text.</text>
  <line style="fill:none;stroke:#00AEEF;stroke-width:0.5;opacity:1.0;" x1="776" x2="776" y1="1919" y2="1933"/>
  <g transform="matrix(0.2 0 0 0.2 776 1933)">
   <path d="m16.5527 0.78125c2.58789 0 3.85742-0.976562 4.78516-3.71094l20.5566-57.5195h0.244141l20.6055 57.5195c0.927734 2.73438 2.19727 3.71094 4.73633 3.71094 2.58789 0 4.24805-1.5625 4.24805-4.00391 0-0.830078-0.146484-1.61133-0.537109-2.63672l-22.9004-60.9863c-1.12305-2.97852-3.125-4.49219-6.25-4.49219-3.02734 0-5.07812 1.46484-6.15234 4.44336l-22.9004 61.084c-0.390625 1.02539-0.537109 1.80664-0.537109 2.63672 0 2.44141 1.5625 3.95508 4.10156 3.95508Zm10.2051-20.9473h30.6641c2.00195 0 3.66211-1.66016 3.66211-3.66211 0-2.05078-1.66016-3.66211-3.66211-3.66211h-30.6641c-2.00195 0-3.66211 1.61133-3.66211 3.66211 0 2.00195 1.66016 3.66211 3.66211 3.66211Z"/>
  </g>
  <line style="fill:none;stroke:#00AEEF;stroke-width:0.5;opacity:1.0;" x1="792.836" x2="792.836" y1="1919" y2="1933"/>
  <text style="stroke:none;fill:black;font-family:sans-serif;font-size:13;font-weight:bold;" transform="matrix(1 0 0 1 776 1953)">Margins</text>
  <text style="stroke:none;fill:black;font-family:sans-serif;font-size:13;" transform="matrix(1 0 0 1 776 1971)">Leading and trailing margins on the left and right side of each symbol</text>
  <text style="stroke:none;fill:black;font-family:sans-serif;font-size:13;" transform="matrix(1 0 0 1 776 1989)">can be adjusted by modifying the x-location of the margin guidelines.</text>
  <text style="stroke:none;fill:black;font-family:sans-serif;font-size:13;" transform="matrix(1 0 0 1 776 2007)">Modifications are automatically applied proportionally to all</text>
  <text style="stroke:none;fill:black;font-family:sans-serif;font-size:13;" transform="matrix(1 0 0 1 776 2025)">scales and weights.</text>
  <g transform="matrix(0.2 0 0 0.2 1289 1933)">
   <path d="m14.209 13.1348 7.86133 7.86133c4.29688 4.39453 9.32617 4.10156 13.8672-1.02539l60.6934-68.2129-4.88281-4.88281-60.2539 67.6758c-1.80664 1.95312-3.4668 2.44141-5.81055 0.0976562l-5.17578-5.12695c-2.29492-2.29492-1.80664-3.95508 0.195312-5.81055l67.4805-62.1582-4.88281-4.83398-68.0664 62.5977c-4.98047 4.58984-5.32227 9.47266-1.02539 13.8184Zm44.873-97.4609c-2.05078 2.00195-2.24609 4.88281-1.07422 6.78711 1.12305 1.80664 3.4668 3.02734 6.5918 2.24609 5.85938-1.66016 12.5977-2.39258 18.8965 0.927734l-2.68555 7.12891c-1.61133 4.00391-0.732422 6.88477 1.70898 9.42383l10.2539 10.3027c2.34375 2.39258 4.54102 2.44141 7.08008 1.95312l4.44336-0.732422 2.58789 2.53906-0.195312 2.24609c-0.0976562 2.29492 0.537109 4.29688 2.7832 6.49414l3.36914 3.32031c2.29492 2.29492 5.51758 2.49023 7.8125 0.195312l12.9883-13.0371c2.29492-2.34375 2.14844-5.37109-0.195312-7.66602l-3.41797-3.41797c-2.19727-2.19727-4.05273-3.02734-6.34766-2.88086l-2.34375 0.244141-2.44141-2.44141 1.02539-4.6875c0.634766-2.73438-0.244141-4.98047-2.88086-7.61719l-11.2793-11.1816c-12.9395-12.8418-35.5957-11.0352-46.6797-0.146484Zm7.08008 2.05078c8.78906-6.39648 25.9766-5.66406 33.6914 1.95312l12.3047 12.207c1.02539 1.02539 1.2207 1.80664 0.927734 3.32031l-1.46484 6.64062 6.73828 6.68945 4.39453-0.244141c1.12305-0.0488281 1.51367 0.0488281 2.34375 0.878906l2.53906 2.49023-10.8398 10.8398-2.49023-2.49023c-0.830078-0.878906-0.976562-1.2207-0.927734-2.39258l0.292969-4.3457-6.68945-6.73828-6.83594 1.17188c-1.41602 0.292969-2.05078 0.195312-3.17383-0.878906l-8.93555-8.88672c-1.07422-1.02539-1.17188-1.70898-0.488281-3.36914l4.58984-11.4746c-6.10352-6.34766-17.041-7.51953-25.5859-4.58984-0.683594 0.244141-0.927734-0.390625-0.390625-0.78125Z"/>
  </g>
  <text style="stroke:none;fill:black;font-family:sans-serif;font-size:13;font-weight:bold;" transform="matrix(1 0 0 1 1289 1953)">Exporting</text>
  <text style="stroke:none;fill:black;font-family:sans-serif;font-size:13;" transform="matrix(1 0 0 1 1289 1971)">Symbols should be outlined when exporting to ensure the</text>
  <text style="stroke:none;fill:black;font-family:sans-serif;font-size:13;" transform="matrix(1 0 0 1 1289 1989)">design is preserved when submitting to Xcode.</text>
  <text id="template-version" style="stroke:none;fill:black;font-family:sans-serif;font-size:13;text-anchor:end;" transform="matrix(1 0 0 1 3036 1933)">Template v.7.0</text>
  <text style="stroke:none;fill:black;font-family:sans-serif;font-size:13;text-anchor:end;" transform="matrix(1 0 0 1 3036 1951)">Requires Xcode 17 or greater</text>
  <text id="descriptive-name" style="stroke:none;fill:black;font-family:sans-serif;font-size:13;text-anchor:end;" transform="matrix(1 0 0 1 3036 1969)">Generated from line.3.horizontal.circle.fill</text>
  <text style="stroke:none;fill:black;font-family:sans-serif;font-size:13;text-anchor:end;" transform="matrix(1 0 0 1 3036 1987)">Typeset at 100.0 points</text>
  <text style="stroke:none;fill:black;font-family:sans-serif;font-size:13;" transform="matrix(1 0 0 1 263 726)">Small</text>
  <text style="stroke:none;fill:black;font-family:sans-serif;font-size:13;" transform="matrix(1 0 0 1 263 1156)">Medium</text>
  <text style="stroke:none;fill:black;font-family:sans-serif;font-size:13;" transform="matrix(1 0 0 1 263 1586)">Large</text>
 </g>
 <g id="Guides">
  <g id="H-reference" style="fill:#27AAE1;stroke:none;" transform="matrix(1 0 0 1 339 696)">
   <path d="M0.993654 0L3.63775 0L29.3281-67.1323L30.0303-67.1323L30.0303-70.459L28.1226-70.459ZM11.6885-24.4799L46.9815-24.4799L46.2315-26.7285L12.4385-26.7285ZM55.1196 0L57.7637 0L30.6382-70.459L29.4326-70.459L29.4326-67.1323Z"/>
  </g>
  <line id="Baseline-S" style="fill:none;stroke:#27AAE1;opacity:1;stroke-width:0.5;" x1="263" x2="3036" y1="696" y2="696"/>
  <line id="Capline-S" style="fill:none;stroke:#27AAE1;opacity:1;stroke-width:0.5;" x1="263" x2="3036" y1="625.541" y2="625.541"/>
  <g id="H-reference" style="fill:#27AAE1;stroke:none;" transform="matrix(1 0 0 1 339 1126)">
   <path d="M0.993654 0L3.63775 0L29.3281-67.1323L30.0303-67.1323L30.0303-70.459L28.1226-70.459ZM11.6885-24.4799L46.9815-24.4799L46.2315-26.7285L12.4385-26.7285ZM55.1196 0L57.7637 0L30.6382-70.459L29.4326-70.459L29.4326-67.1323Z"/>
  </g>
  <line id="Baseline-M" style="fill:none;stroke:#27AAE1;opacity:1;stroke-width:0.5;" x1="263" x2="3036" y1="1126" y2="1126"/>
  <line id="Capline-M" style="fill:none;stroke:#27AAE1;opacity:1;stroke-width:0.5;" x1="263" x2="3036" y1="1055.54" y2="1055.54"/>
  <g id="H-reference" style="fill:#27AAE1;stroke:none;" transform="matrix(1 0 0 1 339 1556)">
   <path d="M0.993654 0L3.63775 0L29.3281-67.1323L30.0303-67.1323L30.0303-70.459L28.1226-70.459ZM11.6885-24.4799L46.9815-24.4799L46.2315-26.7285L12.4385-26.7285ZM55.1196 0L57.7637 0L30.6382-70.459L29.4326-70.459L29.4326-67.1323Z"/>
  </g>
  <line id="Baseline-L" style="fill:none;stroke:#27AAE1;opacity:1;stroke-width:0.5;" x1="263" x2="3036" y1="1556" y2="1556"/>
  <line id="Capline-L" style="fill:none;stroke:#27AAE1;opacity:1;stroke-width:0.5;" x1="263" x2="3036" y1="1485.54" y2="1485.54"/>
  <line id="right-margin-Regular-M" style="fill:none;stroke:#00AEEF;stroke-width:0.5;opacity:1.0;" x1="1508.37" x2="1508.37" y1="1030.79" y2="1150.12"/>
  <line id="left-margin-Regular-M" style="fill:none;stroke:#00AEEF;stroke-width:0.5;opacity:1.0;" x1="1391.32" x2="1391.32" y1="1030.79" y2="1150.12"/>
 </g>
 <g id="Symbols">
  <g id="Black-L" transform="matrix(1 0 0 1 2854.19 1556)">
   <path class="SFSymbolsPreviewWireframe" d="M79.1958 32.6673C116.722 32.6673 147.154 2.23586 147.154-35.2697C147.154-72.7753 116.722-103.207 79.1958-103.207C41.6902-103.207 11.2588-72.7753 11.2588-35.2697C11.2588 2.23586 41.6902 32.6673 79.1958 32.6673ZM54.1-50.1039C49.4745-50.1039 46.2902-52.9897 46.2902-57.2995C46.2902-61.5914 49.4745-64.5369 54.1-64.5369L104.377-64.5369C108.981-64.5369 112.165-61.5914 112.165-57.2995C112.165-52.9897 108.981-50.1039 104.377-50.1039ZM54.1-28.0556C49.4745-28.0556 46.2902-30.9427 46.2902-35.2721C46.2902-39.5639 49.4745-42.5678 54.1-42.5678L104.377-42.5678C108.981-42.5678 112.165-39.5639 112.165-35.2721C112.165-30.9427 108.981-28.0556 104.377-28.0556ZM54.1-6.06215C49.4745-6.06215 46.2902-8.94923 46.2902-13.2411C46.2902-17.5509 49.4745-20.4951 54.1-20.4951L104.377-20.4951C108.981-20.4951 112.165-17.5509 112.165-13.2411C112.165-8.94923 108.981-6.06215 104.377-6.06215Z"/>
  </g>
  <g id="Heavy-L" transform="matrix(1 0 0 1 2558.42 1556)">
   <path class="SFSymbolsPreviewWireframe" d="M78.2532 31.7248C115.252 31.7248 145.278 1.69868 145.278-35.2697C145.278-72.2381 115.252-102.264 78.2532-102.264C41.2849-102.264 11.2588-72.2381 11.2588-35.2697C11.2588 1.69868 41.2849 31.7248 78.2532 31.7248ZM51.3057-50.6582C47.1204-50.6582 44.2312-53.2672 44.2312-57.1589C44.2312-61.0607 47.1204-63.72 51.3057-63.72L105.333-63.72C109.482-63.72 112.372-61.0607 112.372-57.1589C112.372-53.2672 109.482-50.6582 105.333-50.6582ZM51.3057-28.75C47.1204-28.75 44.2312-31.3646 44.2312-35.2809C44.2312-39.1828 47.1204-41.8866 51.3057-41.8866L105.333-41.8866C109.482-41.8866 112.372-39.1828 112.372-35.2809C112.372-31.3646 109.482-28.75 105.333-28.75ZM51.3057-6.86967C47.1204-6.86967 44.2312-9.48428 44.2312-13.3861C44.2312-17.2778 47.1204-19.9315 51.3057-19.9315L105.333-19.9315C109.482-19.9315 112.372-17.2778 112.372-13.3861C112.372-9.48428 109.482-6.86967 105.333-6.86967Z"/>
  </g>
  <g id="Bold-L" transform="matrix(1 0 0 1 2262.89 1556)">
   <path class="SFSymbolsPreviewWireframe" d="M77.0704 30.5419C113.401 30.5419 142.92 1.02282 142.92-35.2697C142.92-71.5622 113.401-101.081 77.0704-101.081C40.7779-101.081 11.2588-71.5622 11.2588-35.2697C11.2588 1.02282 40.7779 30.5419 77.0704 30.5419ZM47.9149-51.3719C44.305-51.3719 41.7993-53.6203 41.7993-56.9748C41.7993-60.3628 44.305-62.6536 47.9149-62.6536L106.404-62.6536C109.963-62.6536 112.469-60.3628 112.469-56.9748C112.469-53.6203 109.963-51.3719 106.404-51.3719ZM47.9149-29.6553C44.305-29.6553 41.7993-31.917 41.7993-35.2962C41.7993-38.6841 44.305-41.0042 47.9149-41.0042L106.404-41.0042C109.963-41.0042 112.469-38.6841 112.469-35.2962C112.469-31.917 109.963-29.6553 106.404-29.6553ZM47.9149-7.92825C44.305-7.92825 41.7993-10.1899 41.7993-13.5779C41.7993-16.9323 44.305-19.2099 47.9149-19.2099L106.404-19.2099C109.963-19.2099 112.469-16.9323 112.469-13.5779C112.469-10.1899 109.963-7.92825 106.404-7.92825Z"/>
  </g>
  <g id="Semibold-L" transform="matrix(1 0 0 1 1966.99 1556)">
   <path class="SFSymbolsPreviewWireframe" d="M76.2549 29.7265C112.125 29.7265 141.294 0.556883 141.294-35.2697C141.294-71.0963 112.125-100.266 76.2549-100.266C40.4284-100.266 11.2588-71.0963 11.2588-35.2697C11.2588 0.556883 40.4284 29.7265 76.2549 29.7265ZM45.5773-51.864C42.364-51.864 40.1229-53.8638 40.1229-56.8479C40.1229-59.8816 42.364-61.9184 45.5773-61.9184L107.143-61.9184C110.294-61.9184 112.536-59.8816 112.536-56.8479C112.536-53.8638 110.294-51.864 107.143-51.864ZM45.5773-30.2794C42.364-30.2794 40.1229-32.2977 40.1229-35.3067C40.1229-38.3404 42.364-40.3958 45.5773-40.3958L107.143-40.3958C110.294-40.3958 112.536-38.3404 112.536-35.3067C112.536-32.2977 110.294-30.2794 107.143-30.2794ZM45.5773-8.65802C42.364-8.65802 40.1229-10.6763 40.1229-13.71C40.1229-16.6941 42.364-18.7124 45.5773-18.7124L107.143-18.7124C110.294-18.7124 112.536-16.6941 112.536-13.71C112.536-10.6763 110.294-8.65802 107.143-8.65802Z"/>
  </g>
  <g id="Medium-L" transform="matrix(1 0 0 1 1670.9 1556)">
   <path class="SFSymbolsPreviewWireframe" d="M75.6366 29.1081C111.157 29.1081 140.062 0.203591 140.062-35.2697C140.062-70.743 111.157-99.6475 75.6366-99.6475C40.1633-99.6475 11.2588-70.743 11.2588-35.2697C11.2588 0.203591 40.1633 29.1081 75.6366 29.1081ZM43.8049-52.2371C40.8923-52.2371 38.8517-54.0484 38.8517-56.7516C38.8517-59.5167 40.8923-61.361 43.8049-61.361L107.703-61.361C110.546-61.361 112.586-59.5167 112.586-56.7516C112.586-54.0484 110.546-52.2371 107.703-52.2371ZM43.8049-30.7527C40.8923-30.7527 38.8517-32.5864 38.8517-35.3146C38.8517-38.0797 40.8923-39.9345 43.8049-39.9345L107.703-39.9345C110.546-39.9345 112.586-38.0797 112.586-35.3146C112.586-32.5864 110.546-30.7527 107.703-30.7527ZM43.8049-9.21136C40.8923-9.21136 38.8517-11.0451 38.8517-13.8102C38.8517-16.5135 40.8923-18.3353 43.8049-18.3353L107.703-18.3353C110.546-18.3353 112.586-16.5135 112.586-13.8102C112.586-11.0451 110.546-9.21136 107.703-9.21136Z"/>
  </g>
  <g id="Regular-L" transform="matrix(1 0 0 1 1374.99 1556)">
   <path class="SFSymbolsPreviewWireframe" d="M74.8301 28.3017C109.895 28.3017 138.454-0.257224 138.454-35.2697C138.454-70.2822 109.895-98.8411 74.8301-98.8411C39.8177-98.8411 11.2588-70.2822 11.2588-35.2697C11.2588-0.257224 39.8177 28.3017 74.8301 28.3017ZM41.4929-52.7238C38.9727-52.7238 37.1936-54.2892 37.1936-56.6261C37.1936-59.0408 38.9727-60.6339 41.4929-60.6339L108.434-60.6339C110.874-60.6339 112.653-59.0408 112.653-56.6261C112.653-54.2892 110.874-52.7238 108.434-52.7238ZM41.4929-31.3699C38.9727-31.3699 37.1936-32.963 37.1936-35.325C37.1936-37.7398 38.9727-39.3329 41.4929-39.3329L108.434-39.3329C110.874-39.3329 112.653-37.7398 112.653-35.325C112.653-32.963 110.874-31.3699 108.434-31.3699ZM41.4929-9.93312C38.9727-9.93312 37.1936-11.5262 37.1936-13.941C37.1936-16.2779 38.9727-17.8433 41.4929-17.8433L108.434-17.8433C110.874-17.8433 112.653-16.2779 112.653-13.941C112.653-11.5262 110.874-9.93312 108.434-9.93312Z"/>
  </g>
  <g id="Light-L" transform="matrix(1 0 0 1 1079.2 1556)">
   <path class="SFSymbolsPreviewWireframe" d="M73.9141 27.3856C108.426 27.3856 136.603-0.791611 136.603-35.2697C136.603-69.7478 108.426-97.925 73.9141-97.925C39.436-97.925 11.2588-69.7478 11.2588-35.2697C11.2588-0.791611 39.436 27.3856 73.9141 27.3856ZM39.6035-53.3918C37.6749-53.3918 36.2775-54.5946 36.2775-56.4352C36.2775-58.2965 37.6749-59.5461 39.6035-59.5461L108.453-59.5461C110.301-59.5461 111.698-58.2965 111.698-56.4352C111.698-54.5946 110.301-53.3918 108.453-53.3918ZM39.6035-32.286C37.6749-32.286 36.2775-33.5356 36.2775-35.3632C36.2775-37.2245 37.6749-38.474 39.6035-38.474L108.453-38.474C110.301-38.474 111.698-37.2245 111.698-35.3632C111.698-33.5356 110.301-32.286 108.453-32.286ZM39.6035-11.0401C37.6749-11.0401 36.2775-12.2896 36.2775-14.1509C36.2775-15.9916 37.6749-17.1944 39.6035-17.1944L108.453-17.1944C110.301-17.1944 111.698-15.9916 111.698-14.1509C111.698-12.2896 110.301-11.0401 108.453-11.0401Z"/>
  </g>
  <g id="Thin-L" transform="matrix(1 0 0 1 783.716 1556)">
   <path class="SFSymbolsPreviewWireframe" d="M72.7024 26.174C106.482 26.174 134.155-1.49838 134.155-35.2697C134.155-69.041 106.482-96.7134 72.7024-96.7134C38.9311-96.7134 11.2588-69.041 11.2588-35.2697C11.2588-1.49838 38.9311 26.174 72.7024 26.174ZM37.1046-54.2752C35.9584-54.2752 35.0659-54.9984 35.0659-56.1828C35.0659-57.3121 35.9584-58.1073 37.1046-58.1073L108.478-58.1073C109.544-58.1073 110.436-57.3121 110.436-56.1828C110.436-54.9984 109.544-54.2752 108.478-54.2752ZM37.1046-33.4976C35.9584-33.4976 35.0659-34.2928 35.0659-35.4137C35.0659-36.5429 35.9584-37.3381 37.1046-37.3381L108.478-37.3381C109.544-37.3381 110.436-36.5429 110.436-35.4137C110.436-34.2928 109.544-33.4976 108.478-33.4976ZM37.1046-12.5041C35.9584-12.5041 35.0659-13.2993 35.0659-14.4286C35.0659-15.6129 35.9584-16.3362 37.1046-16.3362L108.478-16.3362C109.544-16.3362 110.436-15.6129 110.436-14.4286C110.436-13.2993 109.544-12.5041 108.478-12.5041Z"/>
  </g>
  <g id="Ultralight-L" transform="matrix(1 0 0 1 487.631 1556)">
   <path class="SFSymbolsPreviewWireframe" d="M72.0819 25.5534C105.487 25.5534 132.9-1.86039 132.9-35.2697C132.9-68.679 105.487-96.0928 72.0819-96.0928C38.6726-96.0928 11.2588-68.679 11.2588-35.2697C11.2588-1.86039 38.6726 25.5534 72.0819 25.5534ZM35.8246-54.7277C35.0793-54.7277 34.4453-55.2053 34.4453-56.0535C34.4453-56.8079 35.0793-57.3704 35.8246-57.3704L108.491-57.3704C109.156-57.3704 109.79-56.8079 109.79-56.0535C109.79-55.2053 109.156-54.7277 108.491-54.7277ZM35.8246-34.1182C35.0793-34.1182 34.4453-34.6807 34.4453-35.4395C34.4453-36.1939 35.0793-36.7564 35.8246-36.7564L108.491-36.7564C109.156-36.7564 109.79-36.1939 109.79-35.4395C109.79-34.6807 109.156-34.1182 108.491-34.1182ZM35.8246-13.254C35.0793-13.254 34.4453-13.8164 34.4453-14.5708C34.4453-15.419 35.0793-15.8966 35.8246-15.8966L108.491-15.8966C109.156-15.8966 109.79-15.419 109.79-14.5708C109.79-13.8164 109.156-13.254 108.491-13.254Z"/>
  </g>
  <g id="Black-M" transform="matrix(1 0 0 1 2871.36 1126)">
   <path class="SFSymbolsPreviewWireframe" d="M62.0422 18.0589C91.4941 18.0589 115.367-5.81424 115.367-35.2606C115.367-64.707 91.4941-88.5802 62.0422-88.5802C32.5958-88.5802 8.72266-64.707 8.72266-35.2606C8.72266-5.81424 32.5958 18.0589 62.0422 18.0589ZM44.0591-46.3674C40.1774-46.3674 37.5084-48.7921 37.5084-52.4231C37.5084-56.0083 40.1774-58.4898 44.0591-58.4898L80.0468-58.4898C83.9233-58.4898 86.5922-56.0083 86.5922-52.4231C86.5922-48.7921 83.9233-46.3674 80.0468-46.3674ZM44.0591-29.1989C40.1774-29.1989 37.5084-31.6232 37.5084-35.2601C37.5084-38.8453 40.1774-41.3839 44.0591-41.3839L80.0468-41.3839C83.9233-41.3839 86.5922-38.8453 86.5922-35.2601C86.5922-31.6232 83.9233-29.1989 80.0468-29.1989ZM44.0591-12.0883C40.1774-12.0883 37.5084-14.5127 37.5084-18.0979C37.5084-21.729 40.1774-24.2107 44.0591-24.2107L80.0468-24.2107C83.9233-24.2107 86.5922-21.729 86.5922-18.0979C86.5922-14.5127 83.9233-12.0883 80.0468-12.0883Z"/>
  </g>
  <g id="Heavy-M" transform="matrix(1 0 0 1 2575.48 1126)">
   <path class="SFSymbolsPreviewWireframe" d="M61.2053 17.222C90.1923 17.222 113.704-6.29008 113.704-35.2606C113.704-64.2312 90.1923-87.7433 61.2053-87.7433C32.2348-87.7433 8.72266-64.2312 8.72266-35.2606C8.72266-6.29008 32.2348 17.222 61.2053 17.222ZM41.5018-46.8477C37.9958-46.8477 35.5801-49.0351 35.5801-52.3032C35.5801-55.5583 37.9958-57.7916 41.5018-57.7916L80.9791-57.7916C84.4664-57.7916 86.8821-55.5583 86.8821-52.3032C86.8821-49.0351 84.4664-46.8477 80.9791-46.8477ZM41.5018-29.7932C37.9958-29.7932 35.5801-31.9829 35.5801-35.2652C35.5801-38.5203 37.9958-40.7972 41.5018-40.7972L80.9791-40.7972C84.4664-40.7972 86.8821-38.5203 86.8821-35.2652C86.8821-31.9829 84.4664-29.7932 80.9791-29.7932ZM41.5018-12.7756C37.9958-12.7756 35.5801-14.9653 35.5801-18.2203C35.5801-21.4885 37.9958-23.7195 41.5018-23.7195L80.9791-23.7195C84.4664-23.7195 86.8821-21.4885 86.8821-18.2203C86.8821-14.9653 84.4664-12.7756 80.9791-12.7756Z"/>
  </g>
  <g id="Bold-M" transform="matrix(1 0 0 1 2279.69 1126)">
   <path class="SFSymbolsPreviewWireframe" d="M60.2692 16.2859C88.7361 16.2859 111.844-6.82236 111.844-35.2606C111.844-63.6989 88.7361-86.8071 60.2692-86.8071C31.8309-86.8071 8.72266-63.6989 8.72266-35.2606C8.72266-6.82236 31.8309 16.2859 60.2692 16.2859ZM38.6411-47.3849C35.5553-47.3849 33.423-49.3069 33.423-52.1691C33.423-55.0548 35.5553-57.0106 38.6411-57.0106L82.022-57.0106C85.074-57.0106 87.2064-55.0548 87.2064-52.1691C87.2064-49.3069 85.074-47.3849 82.022-47.3849ZM38.6411-30.4581C35.5553-30.4581 33.423-32.3853 33.423-35.2709C33.423-38.1566 35.5553-40.1409 38.6411-40.1409L82.022-40.1409C85.074-40.1409 87.2064-38.1566 87.2064-35.2709C87.2064-32.3853 85.074-30.4581 82.022-30.4581ZM38.6411-13.5444C35.5553-13.5444 33.423-15.4716 33.423-18.3573C33.423-21.2195 35.5553-23.1701 38.6411-23.1701L82.022-23.1701C85.074-23.1701 87.2064-21.2195 87.2064-18.3573C87.2064-15.4716 85.074-13.5444 82.022-13.5444Z"/>
  </g>
  <g id="Semibold-M" transform="matrix(1 0 0 1 1983.62 1126)">
   <path class="SFSymbolsPreviewWireframe" d="M59.6238 15.6405C87.7321 15.6405 110.562-7.18932 110.562-35.2606C110.562-63.332 87.7321-86.1618 59.6238-86.1618C31.5524-86.1618 8.72266-63.332 8.72266-35.2606C8.72266-7.18932 31.5524 15.6405 59.6238 15.6405ZM36.6689-47.7553C33.8729-47.7553 31.9359-49.4944 31.9359-52.0766C31.9359-54.7077 33.8729-56.4721 36.6689-56.4721L82.741-56.4721C85.4928-56.4721 87.4299-54.7077 87.4299-52.0766C87.4299-49.4944 85.4928-47.7553 82.741-47.7553ZM36.6689-30.9164C33.8729-30.9164 31.9359-32.6626 31.9359-35.2749C31.9359-37.906 33.8729-39.6885 36.6689-39.6885L82.741-39.6885C85.4928-39.6885 87.4299-37.906 87.4299-35.2749C87.4299-32.6626 85.4928-30.9164 82.741-30.9164ZM36.6689-14.0744C33.8729-14.0744 31.9359-15.8207 31.9359-18.4518C31.9359-21.034 33.8729-22.7913 36.6689-22.7913L82.741-22.7913C85.4928-22.7913 87.4299-21.034 87.4299-18.4518C87.4299-15.8207 85.4928-14.0744 82.741-14.0744Z"/>
  </g>
  <g id="Medium-M" transform="matrix(1 0 0 1 1687.4 1126)">
   <path class="SFSymbolsPreviewWireframe" d="M59.1344 15.1511C86.9709 15.1511 109.59-7.46756 109.59-35.2606C109.59-63.0537 86.9709-85.6724 59.1344-85.6724C31.3413-85.6724 8.72266-63.0537 8.72266-35.2606C8.72266-7.46756 31.3413 15.1511 59.1344 15.1511ZM35.1735-48.0361C32.5972-48.0361 30.8083-49.6365 30.8083-52.0065C30.8083-54.4446 32.5972-56.0638 35.1735-56.0638L83.2862-56.0638C85.8104-56.0638 87.5994-54.4446 87.5994-52.0065C87.5994-49.6365 85.8104-48.0361 83.2862-48.0361ZM35.1735-31.264C32.5972-31.264 30.8083-32.873 30.8083-35.2778C30.8083-37.7159 32.5972-39.3454 35.1735-39.3454L83.2862-39.3454C85.8104-39.3454 87.5994-37.7159 87.5994-35.2778C87.5994-32.873 85.8104-31.264 83.2862-31.264ZM35.1735-14.4763C32.5972-14.4763 30.8083-16.0853 30.8083-18.5234C30.8083-20.8934 32.5972-22.5041 35.1735-22.5041L83.2862-22.5041C85.8104-22.5041 87.5994-20.8934 87.5994-18.5234C87.5994-16.0853 85.8104-14.4763 83.2862-14.4763Z"/>
  </g>
  <g id="Regular-M" transform="matrix(1 0 0 1 1391.32 1126)">
   <path class="SFSymbolsPreviewWireframe" d="M58.4961 14.5128C85.978 14.5128 108.321-7.83049 108.321-35.2606C108.321-62.6908 85.978-85.0341 58.4961-85.0341C31.0659-85.0341 8.72266-62.6908 8.72266-35.2606C8.72266-7.83049 31.0659 14.5128 58.4961 14.5128ZM33.223-48.4024C30.9333-48.4024 29.3375-49.8218 29.3375-51.9151C29.3375-54.1013 30.9333-55.5313 33.223-55.5313L83.9973-55.5313C86.2247-55.5313 87.8205-54.1013 87.8205-51.9151C87.8205-49.8218 86.2247-48.4024 83.9973-48.4024ZM33.223-31.7173C30.9333-31.7173 29.3375-33.1473 29.3375-35.2817C29.3375-37.468 30.9333-38.898 33.223-38.898L83.9973-38.898C86.2247-38.898 87.8205-37.468 87.8205-35.2817C87.8205-33.1473 86.2247-31.7173 83.9973-31.7173ZM33.223-15.0005C30.9333-15.0005 29.3375-16.4305 29.3375-18.6167C29.3375-20.71 30.9333-22.1294 33.223-22.1294L83.9973-22.1294C86.2247-22.1294 87.8205-20.71 87.8205-18.6167C87.8205-16.4305 86.2247-15.0005 83.9973-15.0005Z"/>
  </g>
  <g id="Light-M" transform="matrix(1 0 0 1 1095.44 1126)">
   <path class="SFSymbolsPreviewWireframe" d="M57.6748 13.6915C84.6605 13.6915 106.662-8.30959 106.662-35.2606C106.662-62.2117 84.6605-84.2128 57.6748-84.2128C30.7237-84.2128 8.72266-62.2117 8.72266-35.2606C8.72266-8.30959 30.7237 13.6915 57.6748 13.6915ZM31.529-49.0013C29.7698-49.0013 28.5162-50.0956 28.5162-51.744C28.5162-53.434 29.7698-54.556 31.529-54.556L84.0144-54.556C85.7114-54.556 86.9649-53.434 86.9649-51.744C86.9649-50.0956 85.7114-49.0013 84.0144-49.0013ZM31.529-32.5386C29.7698-32.5386 28.5162-33.6606 28.5162-35.316C28.5162-37.006 29.7698-38.128 31.529-38.128L84.0144-38.128C85.7114-38.128 86.9649-37.006 86.9649-35.316C86.9649-33.6606 85.7114-32.5386 84.0144-32.5386ZM31.529-15.993C29.7698-15.993 28.5162-17.115 28.5162-18.805C28.5162-20.4533 29.7698-21.5477 31.529-21.5477L84.0144-21.5477C85.7114-21.5477 86.9649-20.4533 86.9649-18.805C86.9649-17.115 85.7114-15.993 84.0144-15.993Z"/>
  </g>
  <g id="Thin-M" transform="matrix(1 0 0 1 799.828 1126)">
   <path class="SFSymbolsPreviewWireframe" d="M56.5885 12.6052C82.9179 12.6052 104.466-8.94325 104.466-35.2606C104.466-61.578 82.9179-83.1265 56.5885-83.1265C30.2711-83.1265 8.72266-61.578 8.72266-35.2606C8.72266-8.94325 30.2711 12.6052 56.5885 12.6052ZM29.2886-49.7933C28.2309-49.7933 27.4299-50.4577 27.4299-51.5177C27.4299-52.5514 28.2309-53.266 29.2886-53.266L84.037-53.266C85.0324-53.266 85.8334-52.5514 85.8334-51.5177C85.8334-50.4577 85.0324-49.7933 84.037-49.7933ZM29.2886-33.6249C28.2309-33.6249 27.4299-34.3395 27.4299-35.3612C27.4299-36.3949 28.2309-37.1096 29.2886-37.1096L84.037-37.1096C85.0324-37.1096 85.8334-36.3949 85.8334-35.3612C85.8334-34.3395 85.0324-33.6249 84.037-33.6249ZM29.2886-17.3055C28.2309-17.3055 27.4299-18.0202 27.4299-19.0539C27.4299-20.1139 28.2309-20.7782 29.2886-20.7782L84.037-20.7782C85.0324-20.7782 85.8334-20.1139 85.8334-19.0539C85.8334-18.0202 85.0324-17.3055 84.037-17.3055Z"/>
  </g>
  <g id="Ultralight-M" transform="matrix(1 0 0 1 503.679 1126)">
   <path class="SFSymbolsPreviewWireframe" d="M56.0321 12.0488C82.0254 12.0488 103.342-9.26781 103.342-35.2606C103.342-61.2535 82.0254-82.5701 56.0321-82.5701C30.0393-82.5701 8.72266-61.2535 8.72266-35.2606C8.72266-9.26781 30.0393 12.0488 56.0321 12.0488ZM28.1411-50.199C27.4427-50.199 26.8735-50.6432 26.8735-51.4018C26.8735-52.0993 27.4427-52.6053 28.1411-52.6053L84.0486-52.6053C84.6847-52.6053 85.2539-52.0993 85.2539-51.4018C85.2539-50.6432 84.6847-50.199 84.0486-50.199ZM28.1411-34.1813C27.4427-34.1813 26.8735-34.6873 26.8735-35.3844C26.8735-36.082 27.4427-36.588 28.1411-36.588L84.0486-36.588C84.6847-36.588 85.2539-36.082 85.2539-35.3844C85.2539-34.6873 84.6847-34.1813 84.0486-34.1813ZM28.1411-17.9778C27.4427-17.9778 26.8735-18.4839 26.8735-19.1814C26.8735-19.94 27.4427-20.3841 28.1411-20.3841L84.0486-20.3841C84.6847-20.3841 85.2539-19.94 85.2539-19.1814C85.2539-18.4839 84.6847-17.9778 84.0486-17.9778Z"/>
  </g>
  <g id="Black-S" transform="matrix(1 0 0 1 2884.57 696)">
   <path class="SFSymbolsPreviewWireframe" d="M48.8281 6.73828C72.0215 6.73828 90.8203-12.0605 90.8203-35.2539C90.8203-58.4473 72.0215-77.2461 48.8281-77.2461C25.6348-77.2461 6.83594-58.4473 6.83594-35.2539C6.83594-12.0605 25.6348 6.73828 48.8281 6.73828ZM35.2051-43.8477C32.0801-43.8477 29.9316-45.8008 29.9316-48.7305C29.9316-51.6113 32.0801-53.6133 35.2051-53.6133L62.4512-53.6133C65.5762-53.6133 67.7246-51.6113 67.7246-48.7305C67.7246-45.8008 65.5762-43.8477 62.4512-43.8477ZM35.2051-30.3711C32.0801-30.3711 29.9316-32.3242 29.9316-35.2539C29.9316-38.1348 32.0801-40.1855 35.2051-40.1855L62.4512-40.1855C65.5762-40.1855 67.7246-38.1348 67.7246-35.2539C67.7246-32.3242 65.5762-30.3711 62.4512-30.3711ZM35.2051-16.9434C32.0801-16.9434 29.9316-18.8965 29.9316-21.7773C29.9316-24.707 32.0801-26.709 35.2051-26.709L62.4512-26.709C65.5762-26.709 67.7246-24.707 67.7246-21.7773C67.7246-18.8965 65.5762-16.9434 62.4512-16.9434Z"/>
  </g>
  <g id="Heavy-S" transform="matrix(1 0 0 1 2588.47 696)">
   <path class="SFSymbolsPreviewWireframe" d="M48.2173 6.12748C71.0765 6.12748 89.6102-12.4063 89.6102-35.2539C89.6102-58.1015 71.0765-76.6353 48.2173-76.6353C25.3697-76.6353 6.83594-58.1015 6.83594-35.2539C6.83594-12.4063 25.3697 6.12748 48.2173 6.12748ZM33.2344-44.1819C30.3629-44.1819 28.3874-45.9736 28.3874-48.6498C28.3874-51.3117 30.3629-53.1408 33.2344-53.1408L63.2464-53.1408C66.1063-53.1408 68.0819-51.3117 68.0819-48.6498C68.0819-45.9736 66.1063-44.1819 63.2464-44.1819ZM33.2344-30.7745C30.3629-30.7745 28.3874-32.5662 28.3874-35.2539C28.3874-37.9158 30.3629-39.7822 33.2344-39.7822L63.2464-39.7822C66.1063-39.7822 68.0819-37.9158 68.0819-35.2539C68.0819-32.5662 66.1063-30.7745 63.2464-30.7745ZM33.2344-17.4043C30.3629-17.4043 28.3874-19.1961 28.3874-21.858C28.3874-24.5342 30.3629-26.3633 33.2344-26.3633L63.2464-26.3633C66.1063-26.3633 68.0819-24.5342 68.0819-21.858C68.0819-19.1961 66.1063-17.4043 63.2464-17.4043Z"/>
  </g>
  <g id="Bold-S" transform="matrix(1 0 0 1 2292.43 696)">
   <path class="SFSymbolsPreviewWireframe" d="M47.5342 5.44434C70.0195 5.44434 88.2568-12.793 88.2568-35.2539C88.2568-57.7148 70.0195-75.9521 47.5342-75.9521C25.0732-75.9521 6.83594-57.7148 6.83594-35.2539C6.83594-12.793 25.0732 5.44434 47.5342 5.44434ZM31.0303-44.5557C28.4424-44.5557 26.6602-46.167 26.6602-48.5596C26.6602-50.9766 28.4424-52.6123 31.0303-52.6123L64.1357-52.6123C66.6992-52.6123 68.4814-50.9766 68.4814-48.5596C68.4814-46.167 66.6992-44.5557 64.1357-44.5557ZM31.0303-31.2256C28.4424-31.2256 26.6602-32.8369 26.6602-35.2539C26.6602-37.6709 28.4424-39.3311 31.0303-39.3311L64.1357-39.3311C66.6992-39.3311 68.4814-37.6709 68.4814-35.2539C68.4814-32.8369 66.6992-31.2256 64.1357-31.2256ZM31.0303-17.9199C28.4424-17.9199 26.6602-19.5312 26.6602-21.9482C26.6602-24.3408 28.4424-25.9766 31.0303-25.9766L64.1357-25.9766C66.6992-25.9766 68.4814-24.3408 68.4814-21.9482C68.4814-19.5312 66.6992-17.9199 64.1357-17.9199Z"/>
  </g>
  <g id="Semibold-S" transform="matrix(1 0 0 1 1996.19 696)">
   <path class="SFSymbolsPreviewWireframe" d="M47.0632 4.97334C69.2908 4.97334 87.3237-13.0596 87.3237-35.2539C87.3237-57.4482 69.2908-75.4812 47.0632-75.4812C24.8688-75.4812 6.83594-57.4482 6.83594-35.2539C6.83594-13.0596 24.8688 4.97334 47.0632 4.97334ZM29.5106-44.8134C27.1183-44.8134 25.4693-46.3003 25.4693-48.4974C25.4693-50.7455 27.1183-52.2479 29.5106-52.2479L64.7489-52.2479C67.108-52.2479 68.7569-50.7455 68.7569-48.4974C68.7569-46.3003 67.108-44.8134 64.7489-44.8134ZM29.5106-31.5366C27.1183-31.5366 25.4693-33.0235 25.4693-35.2539C25.4693-37.5021 27.1183-39.02 29.5106-39.02L64.7489-39.02C67.108-39.02 68.7569-37.5021 68.7569-35.2539C68.7569-33.0235 67.108-31.5366 64.7489-31.5366ZM29.5106-18.2754C27.1183-18.2754 25.4693-19.7623 25.4693-22.0104C25.4693-24.2075 27.1183-25.71 29.5106-25.71L64.7489-25.71C67.108-25.71 68.7569-24.2075 68.7569-22.0104C68.7569-19.7623 67.108-18.2754 64.7489-18.2754Z"/>
  </g>
  <g id="Medium-S" transform="matrix(1 0 0 1 1699.83 696)">
   <path class="SFSymbolsPreviewWireframe" d="M46.7061 4.61621C68.7383 4.61621 86.6162-13.2617 86.6162-35.2539C86.6162-57.2461 68.7383-75.124 46.7061-75.124C24.7139-75.124 6.83594-57.2461 6.83594-35.2539C6.83594-13.2617 24.7139 4.61621 46.7061 4.61621ZM28.3584-45.0088C26.1143-45.0088 24.5664-46.4014 24.5664-48.4502C24.5664-50.5703 26.1143-51.9717 28.3584-51.9717L65.2139-51.9717C67.418-51.9717 68.9658-50.5703 68.9658-48.4502C68.9658-46.4014 67.418-45.0088 65.2139-45.0088ZM28.3584-31.7725C26.1143-31.7725 24.5664-33.165 24.5664-35.2539C24.5664-37.374 26.1143-38.7842 28.3584-38.7842L65.2139-38.7842C67.418-38.7842 68.9658-37.374 68.9658-35.2539C68.9658-33.165 67.418-31.7725 65.2139-31.7725ZM28.3584-18.5449C26.1143-18.5449 24.5664-19.9375 24.5664-22.0576C24.5664-24.1064 26.1143-25.5078 28.3584-25.5078L65.2139-25.5078C67.418-25.5078 68.9658-24.1064 68.9658-22.0576C68.9658-19.9375 67.418-18.5449 65.2139-18.5449Z"/>
  </g>
  <g id="Regular-S" transform="matrix(1 0 0 1 1403.58 696)">
   <path class="SFSymbolsPreviewWireframe" d="M46.2402 4.15039C68.0176 4.15039 85.6934-13.5254 85.6934-35.2539C85.6934-56.9824 68.0176-74.6582 46.2402-74.6582C24.5117-74.6582 6.83594-56.9824 6.83594-35.2539C6.83594-13.5254 24.5117 4.15039 46.2402 4.15039ZM26.8555-45.2637C24.8047-45.2637 23.3887-46.5332 23.3887-48.3887C23.3887-50.3418 24.8047-51.6113 26.8555-51.6113L65.8203-51.6113C67.8223-51.6113 69.2383-50.3418 69.2383-48.3887C69.2383-46.5332 67.8223-45.2637 65.8203-45.2637ZM26.8555-32.0801C24.8047-32.0801 23.3887-33.3496 23.3887-35.2539C23.3887-37.207 24.8047-38.4766 26.8555-38.4766L65.8203-38.4766C67.8223-38.4766 69.2383-37.207 69.2383-35.2539C69.2383-33.3496 67.8223-32.0801 65.8203-32.0801ZM26.8555-18.8965C24.8047-18.8965 23.3887-20.166 23.3887-22.1191C23.3887-23.9746 24.8047-25.2441 26.8555-25.2441L65.8203-25.2441C67.8223-25.2441 69.2383-23.9746 69.2383-22.1191C69.2383-20.166 67.8223-18.8965 65.8203-18.8965Z"/>
  </g>
  <g id="Light-S" transform="matrix(1 0 0 1 1107.6 696)">
   <path class="SFSymbolsPreviewWireframe" d="M45.5137 3.42383C66.8521 3.42383 84.2251-13.9492 84.2251-35.2539C84.2251-56.5586 66.8521-73.9316 45.5137-73.9316C24.209-73.9316 6.83594-56.5586 6.83594-35.2539C6.83594-13.9492 24.209 3.42383 45.5137 3.42383ZM25.3569-45.7935C23.7754-45.7935 22.6621-46.7754 22.6621-48.2373C22.6621-49.7515 23.7754-50.7485 25.3569-50.7485L65.8354-50.7485C67.3682-50.7485 68.4815-49.7515 68.4815-48.2373C68.4815-46.7754 67.3682-45.7935 65.8354-45.7935ZM25.3569-32.8066C23.7754-32.8066 22.6621-33.8037 22.6621-35.2842C22.6621-36.7983 23.7754-37.7954 25.3569-37.7954L65.8354-37.7954C67.3682-37.7954 68.4815-36.7983 68.4815-35.2842C68.4815-33.8037 67.3682-32.8066 65.8354-32.8066ZM25.3569-19.7744C23.7754-19.7744 22.6621-20.7715 22.6621-22.2856C22.6621-23.7476 23.7754-24.7295 25.3569-24.7295L65.8354-24.7295C67.3682-24.7295 68.4815-23.7476 68.4815-22.2856C68.4815-20.7715 67.3682-19.7744 65.8354-19.7744Z"/>
  </g>
  <g id="Thin-S" transform="matrix(1 0 0 1 811.863 696)">
   <path class="SFSymbolsPreviewWireframe" d="M44.5527 2.4629C65.3106 2.4629 82.2832-14.5098 82.2832-35.2539C82.2832-55.9981 65.3106-72.9707 44.5527-72.9707C23.8086-72.9707 6.83594-55.9981 6.83594-35.2539C6.83594-14.5098 23.8086 2.4629 44.5527 2.4629ZM23.375-46.4941C22.4141-46.4941 21.7012-47.0957 21.7012-48.0371C21.7012-48.9707 22.4141-49.6074 23.375-49.6074L65.8555-49.6074C66.7676-49.6074 67.4805-48.9707 67.4805-48.0371C67.4805-47.0957 66.7676-46.4941 65.8555-46.4941ZM23.375-33.7676C22.4141-33.7676 21.7012-34.4043 21.7012-35.3242C21.7012-36.2578 22.4141-36.8945 23.375-36.8945L65.8555-36.8945C66.7676-36.8945 67.4805-36.2578 67.4805-35.3242C67.4805-34.4043 66.7676-33.7676 65.8555-33.7676ZM23.375-20.9355C22.4141-20.9355 21.7012-21.5723 21.7012-22.5059C21.7012-23.4473 22.4141-24.0488 23.375-24.0488L65.8555-24.0488C66.7676-24.0488 67.4805-23.4473 67.4805-22.5059C67.4805-21.5723 66.7676-20.9355 65.8555-20.9355Z"/>
  </g>
  <g id="Ultralight-S" transform="matrix(1 0 0 1 515.649 696)">
   <path class="SFSymbolsPreviewWireframe" d="M44.0606 1.97072C64.521 1.97072 81.2886-14.7969 81.2886-35.2539C81.2886-55.7109 64.521-72.4785 44.0606-72.4785C23.6035-72.4785 6.83594-55.7109 6.83594-35.2539C6.83594-14.7969 23.6035 1.97072 44.0606 1.97072ZM22.3599-46.853C21.7168-46.853 21.209-47.2598 21.209-47.9346C21.209-48.5708 21.7168-49.023 22.3599-49.023L65.8657-49.023C66.46-49.023 66.9678-48.5708 66.9678-47.9346C66.9678-47.2598 66.46-46.853 65.8657-46.853ZM22.3599-34.2597C21.7168-34.2597 21.209-34.7119 21.209-35.3447C21.209-35.981 21.7168-36.4331 22.3599-36.4331L65.8657-36.4331C66.46-36.4331 66.9678-35.981 66.9678-35.3447C66.9678-34.7119 66.46-34.2597 65.8657-34.2597ZM22.3599-21.5303C21.7168-21.5303 21.209-21.9824 21.209-22.6186C21.209-23.2935 21.7168-23.7002 22.3599-23.7002L65.8657-23.7002C66.46-23.7002 66.9678-23.2935 66.9678-22.6186C66.9678-21.9824 66.46-21.5303 65.8657-21.5303Z"/>
  </g>
 </g>
</svg>
