<?xml version="1.0" encoding="UTF-8" standalone="no"?>
<!DOCTYPE svg PUBLIC "-//W3C//DTD SVG 1.1//EN" "http://www.w3.org/Graphics/SVG/1.1/DTD/svg11.dtd">
<svg width="100%" height="100%" viewBox="0 0 3300 2200" version="1.1" xmlns="http://www.w3.org/2000/svg" xmlns:xlink="http://www.w3.org/1999/xlink" xml:space="preserve" xmlns:serif="http://www.serif.com/" style="fill-rule:evenodd;clip-rule:evenodd;">
    <g id="Notes">
        <rect id="artboard" x="0" y="0" width="3300" height="2200" style="fill:white;"/>
        <path d="M263,292L3036,292" style="fill:none;fill-rule:nonzero;stroke:black;stroke-width:0.5px;"/>
        <g transform="matrix(1,0,0,1,263,322)">
            <text x="0px" y="0px" style="font-family:'Helvetica-Bold', 'Helvetica';font-weight:700;font-size:13px;">W<tspan x="12.042px 19.271px " y="0px 0px ">ei</tspan>ght/Scale V<tspan x="92.25px 99.48px " y="0px 0px ">ar</tspan>iations</text>
        </g>
        <g transform="matrix(1,0,0,1,559.711,322)">
            <text x="-25.648px" y="0px" style="font-family:'Helvetica';font-size:13px;">Ultralight</text>
        </g>
        <g transform="matrix(1,0,0,1,856.422,322)">
            <text x="-12.645px" y="0px" style="font-family:'Helvetica';font-size:13px;">Thin</text>
        </g>
        <g transform="matrix(1,0,0,1,1153.13,322)">
            <text x="-14.095px" y="0px" style="font-family:'Helvetica';font-size:13px;">Light</text>
        </g>
        <g transform="matrix(1,0,0,1,1449.84,322)">
            <text x="-22.763px" y="0px" style="font-family:'Helvetica';font-size:13px;">Regular</text>
        </g>
        <g transform="matrix(1,0,0,1,1746.56,322)">
            <text x="-23.118px" y="0px" style="font-family:'Helvetica';font-size:13px;">Medium</text>
        </g>
        <g transform="matrix(1,0,0,1,2043.27,322)">
            <text x="-27.098px" y="0px" style="font-family:'Helvetica';font-size:13px;">Semibold</text>
        </g>
        <g transform="matrix(1,0,0,1,2339.98,322)">
            <text x="-13.01px" y="0px" style="font-family:'Helvetica';font-size:13px;">Bold</text>
        </g>
        <g transform="matrix(1,0,0,1,2636.69,322)">
            <text x="-18.424px" y="0px" style="font-family:'Helvetica';font-size:13px;">Heavy</text>
        </g>
        <g transform="matrix(1,0,0,1,2933.4,322)">
            <text x="-15.895px" y="0px" style="font-family:'Helvetica';font-size:13px;">Black</text>
        </g>
        <path d="M263,1903L3036,1903" style="fill:none;fill-rule:nonzero;stroke:black;stroke-width:0.5px;"/>
        <g transform="matrix(0.2,0,0,0.2,263,1933)">
            <path d="M46.24,4.15C68.018,4.15 85.693,-13.477 85.693,-35.254C85.693,-57.031 68.018,-74.658 46.24,-74.658C24.512,-74.658 6.836,-57.031 6.836,-35.254C6.836,-13.477 24.512,4.15 46.24,4.15ZM46.24,-3.271C28.564,-3.271 14.307,-17.578 14.307,-35.254C14.307,-52.93 28.564,-67.236 46.24,-67.236C63.916,-67.236 78.223,-52.93 78.223,-35.254C78.223,-17.578 63.916,-3.271 46.24,-3.271ZM49.853,-21.045L49.853,-49.512C49.853,-51.758 48.389,-53.271 46.143,-53.271C43.994,-53.271 42.529,-51.758 42.529,-49.512L42.529,-21.045C42.529,-18.848 43.994,-17.334 46.143,-17.334C48.389,-17.334 49.853,-18.848 49.853,-21.045ZM32.031,-31.641L60.449,-31.641C62.646,-31.641 64.16,-33.105 64.16,-35.254C64.16,-37.451 62.646,-38.965 60.449,-38.965L32.031,-38.965C29.785,-38.965 28.271,-37.451 28.271,-35.254C28.271,-33.105 29.785,-31.641 32.031,-31.641Z" style="fill-rule:nonzero;"/>
        </g>
        <g transform="matrix(0.2,0,0,0.2,281.506,1933)">
            <path d="M58.545,14.551C86.035,14.551 108.35,-7.764 108.35,-35.254C108.35,-62.744 86.035,-85.059 58.545,-85.059C31.055,-85.059 8.74,-62.744 8.74,-35.254C8.74,-7.764 31.055,14.551 58.545,14.551ZM58.545,6.25C35.596,6.25 17.041,-12.305 17.041,-35.254C17.041,-58.203 35.596,-76.758 58.545,-76.758C81.494,-76.758 100.049,-58.203 100.049,-35.254C100.049,-12.305 81.494,6.25 58.545,6.25ZM62.598,-16.846L62.598,-53.76C62.598,-56.25 60.889,-57.959 58.447,-57.959C56.055,-57.959 54.395,-56.25 54.395,-53.76L54.395,-16.846C54.395,-14.404 56.055,-12.695 58.447,-12.695C60.889,-12.695 62.598,-14.355 62.598,-16.846ZM40.039,-31.25L77.002,-31.25C79.443,-31.25 81.152,-32.861 81.152,-35.254C81.152,-37.695 79.443,-39.404 77.002,-39.404L40.039,-39.404C37.549,-39.404 35.889,-37.695 35.889,-35.254C35.889,-32.861 37.549,-31.25 40.039,-31.25Z" style="fill-rule:nonzero;"/>
        </g>
        <g transform="matrix(0.2,0,0,0.2,304.924,1933)">
            <path d="M74.854,28.32C109.961,28.32 138.476,-0.146 138.476,-35.254C138.476,-70.361 109.961,-98.877 74.854,-98.877C39.746,-98.877 11.279,-70.361 11.279,-35.254C11.279,-0.147 39.746,28.32 74.854,28.32ZM74.854,19.238C44.727,19.238 20.361,-5.127 20.361,-35.254C20.361,-65.381 44.727,-89.746 74.854,-89.746C104.98,-89.746 129.346,-65.381 129.346,-35.254C129.346,-5.127 104.98,19.238 74.854,19.238ZM79.297,-11.084L79.297,-59.57C79.297,-62.305 77.441,-64.209 74.756,-64.209C72.168,-64.209 70.312,-62.305 70.312,-59.57L70.312,-11.084C70.312,-8.398 72.168,-6.494 74.756,-6.494C77.441,-6.494 79.297,-8.35 79.297,-11.084ZM50.586,-30.859L99.072,-30.859C101.758,-30.859 103.662,-32.666 103.662,-35.254C103.662,-37.988 101.807,-39.844 99.072,-39.844L50.586,-39.844C47.852,-39.844 45.996,-37.988 45.996,-35.254C45.996,-32.666 47.852,-30.859 50.586,-30.859Z" style="fill-rule:nonzero;"/>
        </g>
        <g transform="matrix(1,0,0,1,263,1953)">
            <text x="0px" y="0px" style="font-family:'Helvetica-Bold', 'Helvetica';font-weight:700;font-size:13px;">Design V<tspan x="54.914px 62.144px " y="0px 0px ">ar</tspan>iations</text>
        </g>
        <g transform="matrix(1,0,0,1,263,1971)">
            <text x="0px" y="0px" style="font-family:'Helvetica';font-size:13px;">Symbols are supported in up to nine weights and three scales.</text>
        </g>
        <g transform="matrix(1,0,0,1,263,1989)">
            <text x="0px" y="0px" style="font-family:'Helvetica';font-size:13px;">For optimal layout with text and other symbols, vertically align</text>
        </g>
        <g transform="matrix(1,0,0,1,263,2007)">
            <text x="0px" y="0px" style="font-family:'Helvetica';font-size:13px;">symbols with the adjacent text.</text>
        </g>
        <path d="M776,1919L776,1933" style="fill:none;fill-rule:nonzero;stroke:rgb(0,174,239);stroke-width:0.5px;"/>
        <g transform="matrix(0.2,0,0,0.2,776,1933)">
            <path d="M16.553,0.781C19.141,0.781 20.41,-0.195 21.338,-2.93L41.894,-60.449L42.139,-60.449L62.744,-2.93C63.672,-0.195 64.941,0.781 67.48,0.781C70.068,0.781 71.728,-0.781 71.728,-3.223C71.728,-4.053 71.582,-4.834 71.191,-5.859L48.291,-66.846C47.168,-69.824 45.166,-71.338 42.041,-71.338C39.014,-71.338 36.963,-69.873 35.889,-66.895L12.988,-5.811C12.598,-4.785 12.451,-4.004 12.451,-3.174C12.451,-0.732 14.014,0.781 16.553,0.781L16.553,0.781ZM26.758,-20.166L57.422,-20.166C59.424,-20.166 61.084,-21.826 61.084,-23.828C61.084,-25.879 59.424,-27.49 57.422,-27.49L26.758,-27.49C24.756,-27.49 23.096,-25.879 23.096,-23.828C23.096,-21.826 24.756,-20.166 26.758,-20.166Z" style="fill-rule:nonzero;"/>
        </g>
        <path d="M792.836,1919L792.836,1933" style="fill:none;fill-rule:nonzero;stroke:rgb(0,174,239);stroke-width:0.5px;"/>
        <g transform="matrix(1,0,0,1,776,1953)">
            <text x="0px" y="0px" style="font-family:'Helvetica-Bold', 'Helvetica';font-weight:700;font-size:13px;">Margins</text>
        </g>
        <g transform="matrix(1,0,0,1,776,1971)">
            <text x="0px" y="0px" style="font-family:'Helvetica';font-size:13px;">Leading and trailing margins on the left and right side of each symbol</text>
        </g>
        <g transform="matrix(1,0,0,1,776,1989)">
            <text x="0px" y="0px" style="font-family:'Helvetica';font-size:13px;">can be adjusted by modifying the x-location of the margin guidelines.</text>
        </g>
        <g transform="matrix(1,0,0,1,776,2007)">
            <g transform="matrix(13,0,0,13,28.1772,0)">
            </g>
            <g transform="matrix(13,0,0,13,31.7891,0)">
            </g>
            <text x="0px" y="0px" style="font-family:'Helvetica';font-size:13px;">Modiﬁcations are automatically applied proportionally to all</text>
        </g>
        <g transform="matrix(1,0,0,1,776,2025)">
            <text x="0px" y="0px" style="font-family:'Helvetica';font-size:13px;">scales and weights.</text>
        </g>
        <g transform="matrix(0.2,0,0,0.2,1289,1933)">
            <path d="M14.209,13.135L22.07,20.996C26.367,25.391 31.396,25.098 35.938,19.971L96.631,-48.242L91.748,-53.125L31.494,14.551C29.688,16.504 28.027,16.992 25.684,14.648L20.508,9.522C18.213,7.227 18.701,5.566 20.703,3.711L88.184,-58.447L83.301,-63.281L15.234,-0.683C10.254,3.906 9.912,8.789 14.209,13.135L14.209,13.135ZM59.082,-84.326C57.031,-82.324 56.836,-79.443 58.008,-77.539C59.131,-75.732 61.475,-74.512 64.6,-75.293C70.459,-76.953 77.197,-77.685 83.496,-74.365L80.811,-67.236C79.199,-63.232 80.078,-60.351 82.52,-57.812L92.773,-47.51C95.117,-45.117 97.314,-45.068 99.853,-45.557L104.297,-46.289L106.885,-43.75L106.689,-41.504C106.592,-39.209 107.227,-37.207 109.473,-35.01L112.842,-31.689C115.137,-29.395 118.359,-29.199 120.654,-31.494L133.643,-44.531C135.937,-46.875 135.791,-49.902 133.447,-52.197L130.029,-55.615C127.832,-57.812 125.977,-58.643 123.682,-58.496L121.338,-58.252L118.896,-60.693L119.922,-65.381C120.557,-68.115 119.678,-70.361 117.041,-72.998L105.762,-84.18C92.822,-97.021 70.166,-95.215 59.082,-84.326L59.082,-84.326ZM66.162,-82.275C74.951,-88.672 92.139,-87.939 99.853,-80.322L112.158,-68.115C113.184,-67.09 113.379,-66.309 113.086,-64.795L111.621,-58.154L118.359,-51.465L122.754,-51.709C123.877,-51.758 124.268,-51.66 125.098,-50.83L127.637,-48.34L116.797,-37.5L114.307,-39.99C113.477,-40.869 113.33,-41.211 113.379,-42.383L113.672,-46.729L106.982,-53.467L100.147,-52.295C98.73,-52.002 98.096,-52.1 96.973,-53.174L88.037,-62.061C86.963,-63.086 86.865,-63.77 87.549,-65.43L92.139,-76.904C86.035,-83.252 75.098,-84.424 66.553,-81.494C65.869,-81.25 65.625,-81.885 66.162,-82.275L66.162,-82.275Z" style="fill-rule:nonzero;"/>
        </g>
        <g transform="matrix(1,0,0,1,1289,1953)">
            <text x="0px" y="0px" style="font-family:'Helvetica-Bold', 'Helvetica';font-weight:700;font-size:13px;">Exporting</text>
        </g>
        <g transform="matrix(1,0,0,1,1289,1971)">
            <text x="0px" y="0px" style="font-family:'Helvetica';font-size:13px;">Symbols should be outlined when exporting to ensure the</text>
        </g>
        <g transform="matrix(1,0,0,1,1289,1989)">
            <text x="0px" y="0px" style="font-family:'Helvetica';font-size:13px;">design is preserved when submitting to Xcode.</text>
        </g>
        <g id="template-version" transform="matrix(1,0,0,1,3036,1933)">
            <text x="-83.586px" y="0px" style="font-family:'Helvetica';font-size:13px;">T<tspan x="-77.086px -69.856px " y="0px 0px ">em</tspan>plate v<tspan x="-21.684px -18.072px " y="0px 0px ">.7</tspan>.0</text>
        </g>
        <g transform="matrix(1,0,0,1,3036,1951)">
            <text x="-170.542px" y="0px" style="font-family:'Helvetica';font-size:13px;">Requires Xcode 17 or greater</text>
        </g>
        <g id="descriptive-name" transform="matrix(1,0,0,1,3036,1969)">
            <text x="-195.806px" y="0px" style="font-family:'Helvetica';font-size:13px;">Generated from custom.timelapse</text>
        </g>
        <g transform="matrix(1,0,0,1,3036,1987)">
            <text x="-134.431px" y="0px" style="font-family:'Helvetica';font-size:13px;">T<tspan x="-127.201px -120.701px " y="0px 0px ">yp</tspan>eset at 100.0 points</text>
        </g>
        <g transform="matrix(1,0,0,1,263,726)">
            <text x="0px" y="0px" style="font-family:'Helvetica';font-size:13px;">Small</text>
        </g>
        <g transform="matrix(1,0,0,1,263,1156)">
            <text x="0px" y="0px" style="font-family:'Helvetica';font-size:13px;">Medium</text>
        </g>
        <g transform="matrix(1,0,0,1,263,1586)">
            <text x="0px" y="0px" style="font-family:'Helvetica';font-size:13px;">Large</text>
        </g>
    </g>
    <g id="Guides">
        <g id="H-reference" transform="matrix(1,0,0,1,339,696)">
            <path d="M0.994,0L3.638,0L29.328,-67.132L30.03,-67.132L30.03,-70.459L28.123,-70.459L0.994,0ZM11.689,-24.48L46.981,-24.48L46.231,-26.729L12.439,-26.729L11.689,-24.48ZM55.12,0L57.764,0L30.638,-70.459L29.433,-70.459L29.433,-67.132L55.12,0Z" style="fill:rgb(39,170,225);fill-rule:nonzero;"/>
        </g>
        <path id="Baseline-S" d="M263,696L3036,696" style="fill:none;fill-rule:nonzero;stroke:rgb(39,170,225);stroke-width:0.5px;"/>
        <path id="Capline-S" d="M263,625.541L3036,625.541" style="fill:none;fill-rule:nonzero;stroke:rgb(39,170,225);stroke-width:0.5px;"/>
        <g id="H-reference1" serif:id="H-reference" transform="matrix(1,0,0,1,339,1126)">
            <path d="M0.994,0L3.638,0L29.328,-67.132L30.03,-67.132L30.03,-70.459L28.123,-70.459L0.994,0ZM11.689,-24.48L46.981,-24.48L46.231,-26.729L12.439,-26.729L11.689,-24.48ZM55.12,0L57.764,0L30.638,-70.459L29.433,-70.459L29.433,-67.132L55.12,0Z" style="fill:rgb(39,170,225);fill-rule:nonzero;"/>
        </g>
        <path id="Baseline-M" d="M263,1126L3036,1126" style="fill:none;fill-rule:nonzero;stroke:rgb(39,170,225);stroke-width:0.5px;"/>
        <path id="Capline-M" d="M263,1055.54L3036,1055.54" style="fill:none;fill-rule:nonzero;stroke:rgb(39,170,225);stroke-width:0.5px;"/>
        <g id="H-reference2" serif:id="H-reference" transform="matrix(1,0,0,1,339,1556)">
            <path d="M0.994,0L3.638,0L29.328,-67.132L30.03,-67.132L30.03,-70.459L28.123,-70.459L0.994,0ZM11.689,-24.48L46.981,-24.48L46.231,-26.729L12.439,-26.729L11.689,-24.48ZM55.12,0L57.764,0L30.638,-70.459L29.433,-70.459L29.433,-67.132L55.12,0Z" style="fill:rgb(39,170,225);fill-rule:nonzero;"/>
        </g>
        <path id="Baseline-L" d="M263,1556L3036,1556" style="fill:none;fill-rule:nonzero;stroke:rgb(39,170,225);stroke-width:0.5px;"/>
        <path id="Capline-L" d="M263,1485.54L3036,1485.54" style="fill:none;fill-rule:nonzero;stroke:rgb(39,170,225);stroke-width:0.5px;"/>
        <path id="right-margin-Black-S" d="M2984.13,600.785L2984.13,720.121" style="fill:none;fill-rule:nonzero;stroke:rgb(0,174,239);stroke-width:0.5px;"/>
        <path id="left-margin-Black-S" d="M2882.67,600.785L2882.67,720.121" style="fill:none;fill-rule:nonzero;stroke:rgb(0,174,239);stroke-width:0.5px;"/>
        <path id="right-margin-Regular-S" d="M1500.16,600.785L1500.16,720.121" style="fill:none;fill-rule:nonzero;stroke:rgb(0,174,239);stroke-width:0.5px;"/>
        <path id="left-margin-Regular-S" d="M1399.53,600.785L1399.53,720.121" style="fill:none;fill-rule:nonzero;stroke:rgb(0,174,239);stroke-width:0.5px;"/>
        <path id="right-margin-Ultralight-S" d="M608.099,600.785L608.099,720.121" style="fill:none;fill-rule:nonzero;stroke:rgb(0,174,239);stroke-width:0.5px;"/>
        <path id="left-margin-Ultralight-S" d="M511.324,600.785L511.324,720.121" style="fill:none;fill-rule:nonzero;stroke:rgb(0,174,239);stroke-width:0.5px;"/>
    </g>
    <g id="Symbols">
        <g id="Black-S" transform="matrix(1,0,0,1,2882.67,696)">
            <g id="Eye" transform="matrix(1.04141,0,0,0.896721,-1457.39,-628)">
                <path d="M1448.16,616.411C1472.45,616.411 1483.99,636.9 1492.36,660.157C1492.58,660.788 1492.58,661.499 1492.34,662.126C1483.74,685.075 1472.43,705.836 1448.16,705.836C1423.88,705.836 1412.33,685.129 1403.96,662.099C1403.74,661.47 1403.74,660.759 1403.97,660.132C1412.45,637.235 1423.88,616.411 1448.16,616.411ZM1448.16,621.43C1426.2,621.43 1416.05,640.47 1408.31,661.133C1415.95,681.9 1426.2,700.818 1448.16,700.818C1470.12,700.818 1480.16,681.819 1488.01,661.103C1480.37,640.146 1470.11,621.43 1448.16,621.43Z" style="fill:none;stroke:black;stroke-width:0.41px;stroke-linejoin:round;stroke-miterlimit:2;"/>
            </g>
            <g id="Iris" transform="matrix(0.759175,2.77556e-17,1.66533e-16,0.745374,12.2176,-8.9517)">
                <path d="M50.732,-79.053C48.877,-79.053 47.461,-77.637 47.461,-75.781L47.461,-56.913C47.461,-55.057 48.877,-53.641 50.732,-53.641C52.588,-53.641 54.004,-55.057 54.004,-56.913L54.004,-75.781C54.004,-77.637 52.588,-79.053 50.732,-79.053ZM62.012,-77.295C60.449,-77.734 58.74,-76.758 58.301,-75.147L56.447,-68.063C56.008,-66.402 56.887,-64.791 58.595,-64.303C60.207,-63.863 61.769,-64.791 62.258,-66.5L64.16,-73.535C64.648,-75.244 63.672,-76.807 62.012,-77.295ZM72.656,-73.193C71.045,-74.121 69.141,-73.584 68.213,-71.973L58.815,-55.645C57.887,-54.034 58.376,-52.081 60.036,-51.153C61.598,-50.274 63.551,-50.762 64.479,-52.374L73.877,-68.701C74.805,-70.313 74.219,-72.266 72.656,-73.193ZM81.543,-65.967C80.371,-67.139 78.418,-67.236 77.295,-66.016L72.209,-60.749C71.038,-59.528 70.94,-57.722 72.161,-56.501C73.332,-55.329 75.188,-55.329 76.409,-56.501L81.592,-61.67C82.861,-62.94 82.813,-64.697 81.543,-65.967ZM88.721,-57.129C87.793,-58.74 85.889,-59.228 84.277,-58.301L68.013,-48.866C66.402,-47.939 65.865,-45.986 66.841,-44.374C67.72,-42.812 69.673,-42.275 71.285,-43.202L87.549,-52.637C89.16,-53.565 89.648,-55.566 88.721,-57.129ZM92.871,-46.484C92.432,-48.047 90.772,-49.121 89.16,-48.633L82.172,-46.62C80.512,-46.132 79.535,-44.618 79.975,-42.958C80.414,-41.347 82.074,-40.37 83.735,-40.809L90.674,-42.676C92.481,-43.164 93.359,-44.824 92.871,-46.484ZM94.629,-35.156C94.629,-37.012 93.213,-38.428 91.357,-38.428L72.562,-38.428C70.707,-38.428 69.291,-37.012 69.291,-35.156C69.291,-33.301 70.707,-31.885 72.562,-31.885L91.357,-31.885C93.213,-31.885 94.629,-33.301 94.629,-35.156ZM92.871,-23.877C93.213,-25.391 92.432,-27.246 90.723,-27.637L82.462,-29.704C80.753,-30.094 79.191,-29.313 78.702,-27.604C78.263,-26.091 79.191,-24.382 80.802,-23.942L89.16,-21.68C90.918,-21.191 92.481,-22.168 92.871,-23.877ZM88.769,-13.232C89.697,-14.795 89.16,-16.748 87.549,-17.676L71.285,-27.11C69.673,-28.038 67.72,-27.501 66.793,-25.938C65.865,-24.327 66.402,-22.374 68.013,-21.446L84.277,-12.012C85.889,-11.084 87.842,-11.621 88.769,-13.232ZM81.641,-4.346C82.764,-5.518 82.959,-7.422 81.641,-8.643L76.409,-13.665C75.139,-14.886 73.381,-14.934 72.161,-13.714C71.038,-12.591 70.989,-10.638 72.161,-9.466L77.246,-4.297C78.565,-2.979 80.42,-3.076 81.641,-4.346ZM72.705,2.832C74.316,1.953 74.805,0 73.877,-1.611L64.479,-17.939C63.551,-19.55 61.598,-20.087 60.036,-19.159C58.425,-18.232 57.887,-16.279 58.815,-14.667L68.213,1.66C69.141,3.271 71.094,3.76 72.705,2.832ZM62.012,6.982C63.574,6.543 64.746,4.932 64.209,3.223L62.209,-3.666C61.672,-5.375 60.256,-6.449 58.595,-5.912C57.033,-5.424 55.91,-3.812 56.349,-2.299L58.301,4.883C58.789,6.641 60.352,7.471 62.012,6.982ZM50.732,8.74C52.588,8.74 54.004,7.324 54.004,5.469L54.004,-13.4C54.004,-15.255 52.588,-16.671 50.732,-16.671C48.877,-16.671 47.461,-15.255 47.461,-13.4L47.461,5.469C47.461,7.324 48.877,8.74 50.732,8.74ZM39.404,7.08C40.967,7.568 42.725,6.543 43.164,4.932L45.018,-2.152C45.457,-3.812 44.578,-5.424 42.869,-5.912C41.258,-6.352 39.696,-5.424 39.207,-3.715L37.305,3.32C36.816,5.029 37.793,6.592 39.404,7.08ZM28.809,2.881C30.371,3.809 32.324,3.271 33.252,1.66L42.65,-14.667C43.577,-16.279 43.04,-18.232 41.478,-19.159C39.866,-20.087 37.913,-19.55 36.937,-17.939L27.588,-1.611C26.66,0 27.197,1.953 28.809,2.881ZM19.873,-4.248C21.045,-3.076 23.047,-2.979 24.17,-4.199L29.255,-9.466C30.427,-10.686 30.525,-12.493 29.304,-13.714C28.132,-14.886 26.228,-14.934 25.007,-13.714L19.873,-8.545C18.604,-7.275 18.652,-5.469 19.873,-4.248ZM12.744,-13.184C13.623,-11.572 15.576,-11.084 17.188,-12.012L33.452,-21.446C35.063,-22.374 35.6,-24.327 34.672,-25.889C33.745,-27.501 31.791,-28.038 30.131,-27.11L13.916,-17.676C12.305,-16.748 11.816,-14.795 12.744,-13.184ZM8.545,-23.828C8.936,-22.266 10.693,-21.143 12.256,-21.631L19.244,-23.644C20.953,-24.132 21.929,-25.597 21.49,-27.257C21.051,-28.917 19.39,-29.894 17.73,-29.454L10.742,-27.539C8.936,-27.051 8.154,-25.488 8.545,-23.828ZM6.836,-35.156C6.836,-33.301 8.252,-31.885 10.107,-31.885L28.903,-31.885C30.758,-31.885 32.174,-33.301 32.174,-35.156C32.174,-37.012 30.758,-38.428 28.903,-38.428L10.107,-38.428C8.252,-38.428 6.836,-37.012 6.836,-35.156ZM8.545,-46.484C8.057,-44.824 9.033,-43.066 10.742,-42.676L19.003,-40.56C20.712,-40.169 22.274,-40.902 22.762,-42.611C23.202,-44.173 22.225,-45.882 20.565,-46.322L12.305,-48.584C10.547,-49.072 8.984,-48.047 8.545,-46.484ZM12.695,-57.129C11.768,-55.518 12.305,-53.565 13.916,-52.637L30.18,-43.202C31.791,-42.275 33.745,-42.812 34.672,-44.423C35.6,-45.986 35.063,-47.939 33.452,-48.866L17.188,-58.301C15.576,-59.228 13.623,-58.691 12.695,-57.129ZM19.873,-66.016C18.652,-64.844 18.604,-62.842 19.775,-61.719L25.007,-56.599C26.277,-55.427 28.035,-55.28 29.304,-56.501C30.525,-57.673 30.476,-59.626 29.304,-60.798L24.121,-66.016C22.852,-67.285 21.143,-67.236 19.873,-66.016ZM28.76,-73.193C27.148,-72.266 26.66,-70.313 27.588,-68.701L36.986,-52.374C37.913,-50.762 39.866,-50.225 41.478,-51.202C43.04,-52.081 43.577,-54.034 42.65,-55.645L33.252,-71.973C32.324,-73.584 30.371,-74.072 28.76,-73.193ZM39.453,-77.344C37.744,-77.002 36.719,-75.244 37.256,-73.535L39.256,-66.598C39.793,-64.84 41.16,-63.863 42.869,-64.303C44.432,-64.693 45.506,-66.451 45.067,-68.063L43.164,-75.147C42.676,-76.904 41.065,-77.686 39.453,-77.344Z" style="fill:none;fill-rule:nonzero;stroke:black;stroke-width:0.5px;"/>
            </g>
        </g>
        <g id="Regular-S" transform="matrix(1,0,0,1,1399.53,696)">
            <g id="Eye1" serif:id="Eye" transform="matrix(1.04141,0,0,0.896721,-1457.85,-627.975)">
                <path d="M1448.16,616.969C1472.23,616.969 1483.63,637.326 1491.91,660.372C1492.09,660.862 1492.09,661.415 1491.9,661.903C1483.37,684.646 1472.21,705.278 1448.16,705.278C1424.1,705.278 1412.7,684.703 1404.41,661.882C1404.23,661.393 1404.23,660.84 1404.41,660.353C1412.82,637.662 1424.1,616.969 1448.16,616.969ZM1448.16,620.872C1425.9,620.872 1415.62,640.179 1407.78,661.131C1415.51,682.191 1425.91,701.375 1448.16,701.375C1470.42,701.375 1480.59,682.113 1488.53,661.108C1480.81,639.852 1470.41,620.872 1448.16,620.872Z" style="fill:none;stroke:black;stroke-width:0.41px;stroke-linejoin:round;stroke-miterlimit:2;"/>
            </g>
            <g id="Iris1" serif:id="Iris" transform="matrix(0.752245,-5.55112e-17,5.55112e-17,0.752245,12.4664,-8.72224)">
                <path d="M50.342,-78.711C48.926,-78.711 47.754,-77.539 47.754,-76.123L47.754,-56.792C47.754,-55.327 48.926,-54.253 50.342,-54.253C51.758,-54.253 52.881,-55.327 52.881,-56.792L52.881,-76.123C52.881,-77.539 51.758,-78.711 50.342,-78.711ZM61.719,-77.588C60.4,-78.027 59.033,-77.393 58.594,-75.781L55.997,-66.055C55.606,-64.688 56.339,-63.272 57.755,-62.93C59.122,-62.588 60.489,-63.321 60.88,-64.688L63.477,-74.463C63.818,-75.928 63.086,-77.197 61.719,-77.588ZM72.07,-72.852C70.85,-73.535 69.287,-73.193 68.604,-71.973L58.914,-55.161C58.181,-53.891 58.621,-52.377 59.89,-51.694C61.062,-50.961 62.624,-51.352 63.308,-52.622L72.998,-69.385C73.682,-70.606 73.291,-72.119 72.07,-72.852ZM81.397,-66.26C80.371,-67.236 78.809,-67.188 77.832,-66.26L70.703,-59.082C69.629,-57.959 69.629,-56.494 70.703,-55.469C71.728,-54.443 73.242,-54.443 74.219,-55.469L81.348,-62.598C82.373,-63.721 82.422,-65.234 81.397,-66.26ZM88.037,-56.934C87.305,-58.154 85.742,-58.594 84.522,-57.861L67.758,-48.22C66.489,-47.488 66.098,-45.925 66.879,-44.705C67.514,-43.533 69.028,-43.044 70.297,-43.826L87.061,-53.467C88.281,-54.199 88.672,-55.713 88.037,-56.934ZM92.773,-46.582C92.432,-47.949 90.967,-48.779 89.697,-48.389L81.206,-46.038C79.79,-45.648 78.96,-44.329 79.497,-42.718C79.79,-41.692 81.011,-40.765 82.525,-41.155L90.918,-43.457C92.334,-43.848 93.115,-45.215 92.773,-46.582ZM93.799,-35.205C93.799,-36.621 92.676,-37.744 91.26,-37.744L71.929,-37.744C70.464,-37.744 69.39,-36.621 69.39,-35.205C69.39,-33.789 70.464,-32.666 71.929,-32.666L91.26,-32.666C92.676,-32.666 93.799,-33.789 93.799,-35.205ZM92.773,-23.731C93.164,-25.147 92.529,-26.514 91.016,-26.904L82.525,-29.255C81.109,-29.597 79.742,-28.815 79.4,-27.448C79.058,-26.081 79.839,-24.616 81.158,-24.274L89.6,-22.07C91.065,-21.68 92.383,-22.412 92.773,-23.731ZM87.988,-13.477C88.672,-14.648 88.281,-16.211 87.061,-16.943L70.297,-26.585C69.028,-27.366 67.514,-26.878 66.83,-25.706C66.098,-24.485 66.489,-22.922 67.758,-22.19L84.522,-12.549C85.742,-11.816 87.256,-12.256 87.988,-13.477ZM81.397,-4.15C82.422,-5.176 82.373,-6.836 81.494,-7.715L75.159,-13.904C74.133,-14.88 72.571,-15.027 71.496,-13.904C70.569,-12.879 70.618,-11.414 71.594,-10.388L77.783,-4.199C78.857,-3.125 80.371,-3.076 81.397,-4.15ZM72.07,2.441C73.291,1.758 73.682,0.244 72.998,-1.025L63.308,-17.789C62.624,-19.058 61.062,-19.449 59.89,-18.716C58.621,-18.033 58.181,-16.519 58.914,-15.201L68.604,1.563C69.287,2.783 70.801,3.174 72.07,2.441ZM61.768,7.275C63.379,6.885 63.818,5.469 63.525,4.199L61.273,-4.389C60.882,-5.805 59.368,-6.538 58.05,-6.196C56.536,-5.756 55.901,-4.34 56.292,-3.071L58.691,5.371C59.131,6.738 60.205,7.568 61.768,7.275ZM50.342,8.301C51.758,8.301 52.881,7.129 52.881,5.713L52.881,-13.618C52.881,-15.083 51.758,-16.157 50.342,-16.157C48.926,-16.157 47.754,-15.083 47.754,-13.618L47.754,5.713C47.754,7.129 48.926,8.301 50.342,8.301ZM38.721,7.275C40.283,7.715 41.699,6.836 42.041,5.518L44.687,-4.257C45.029,-5.625 44.296,-7.041 42.929,-7.382C41.562,-7.724 40.195,-6.992 39.804,-5.625L37.207,4.199C36.816,5.615 37.305,6.787 38.721,7.275ZM28.613,2.441C29.785,3.174 31.348,2.783 32.031,1.563L41.721,-15.201C42.503,-16.519 42.014,-18.033 40.842,-18.716C39.622,-19.449 38.059,-19.058 37.327,-17.789L27.686,-1.025C26.953,0.244 27.393,1.758 28.613,2.441ZM19.287,-4.15C20.361,-3.125 21.875,-3.125 22.803,-4.053L29.981,-11.231C31.006,-12.305 31.055,-13.77 30.029,-14.844C29.004,-15.82 27.393,-15.869 26.416,-14.844L19.336,-7.666C18.262,-6.592 18.213,-5.176 19.287,-4.15ZM12.695,-13.477C13.33,-12.256 14.893,-11.816 16.113,-12.549L32.877,-22.19C34.146,-22.922 34.537,-24.485 33.853,-25.657C33.121,-26.878 31.607,-27.366 30.337,-26.585L13.574,-16.943C12.354,-16.211 11.963,-14.697 12.695,-13.477ZM7.861,-23.828C8.203,-22.461 9.668,-21.729 10.986,-22.07L19.477,-24.274C20.942,-24.665 21.674,-25.983 21.284,-27.399C20.893,-28.718 19.526,-29.548 18.159,-29.206L9.766,-26.904C8.252,-26.514 7.52,-25.195 7.861,-23.828ZM6.836,-35.205C6.836,-33.789 7.959,-32.666 9.375,-32.666L28.755,-32.666C30.171,-32.666 31.294,-33.789 31.294,-35.205C31.294,-36.621 30.171,-37.744 28.755,-37.744L9.375,-37.744C7.959,-37.744 6.836,-36.621 6.836,-35.205ZM7.813,-46.533C7.52,-45.215 8.398,-43.848 9.668,-43.457L18.159,-41.155C19.575,-40.765 20.991,-41.595 21.235,-43.011C21.528,-44.329 20.942,-45.794 19.526,-46.136L11.035,-48.291C9.521,-48.682 8.105,-47.9 7.813,-46.533ZM12.695,-56.982C11.963,-55.762 12.354,-54.199 13.574,-53.467L30.337,-43.826C31.607,-43.044 33.121,-43.533 33.853,-44.705C34.537,-45.925 34.146,-47.488 32.877,-48.171L16.113,-57.861C14.893,-58.594 13.379,-58.154 12.695,-56.982ZM19.238,-66.26C18.213,-65.332 18.311,-63.672 19.287,-62.695L25.427,-56.555C26.502,-55.481 27.966,-55.432 29.041,-56.506C30.017,-57.434 30.115,-58.996 29.041,-60.071L22.852,-66.26C21.777,-67.334 20.313,-67.285 19.238,-66.26ZM28.613,-72.9C27.393,-72.168 26.953,-70.606 27.686,-69.385L37.327,-52.622C38.059,-51.352 39.622,-50.961 40.794,-51.694C42.014,-52.377 42.503,-53.891 41.721,-55.161L32.031,-71.973C31.348,-73.193 29.834,-73.535 28.613,-72.9ZM38.916,-77.686C37.5,-77.393 36.719,-76.172 37.158,-74.561L39.46,-66.021C39.802,-64.654 41.169,-63.921 42.78,-64.41C44.245,-64.849 44.831,-66.07 44.392,-67.437L42.041,-75.781C41.602,-77.344 40.332,-77.979 38.916,-77.686Z" style="fill:none;fill-rule:nonzero;stroke:black;stroke-width:0.5px;"/>
            </g>
        </g>
        <g id="Ultralight-S" transform="matrix(1,0,0,1,511.324,696)">
            <g id="Eye2" serif:id="Eye" transform="matrix(1.04141,0,0,0.896721,-1457.34,-628.003)">
                <path d="M1448.16,618.084C1471.78,618.084 1482.89,638.179 1491.03,660.801C1491.1,661.012 1491.1,661.249 1491.02,661.458C1482.65,683.788 1471.78,704.163 1448.16,704.163C1424.54,704.163 1413.43,683.852 1405.29,661.449C1405.22,661.239 1405.22,661.002 1405.29,660.793C1413.55,638.516 1424.54,618.084 1448.16,618.084ZM1448.16,619.757C1425.31,619.757 1414.75,639.596 1406.74,661.127C1414.64,682.775 1425.31,702.49 1448.16,702.49C1471.01,702.49 1481.45,682.702 1489.58,661.117C1481.68,639.262 1471.01,619.757 1448.16,619.757Z" style="fill:none;stroke:black;stroke-width:0.41px;stroke-linejoin:round;stroke-miterlimit:2;"/>
            </g>
            <g id="Iris2" serif:id="Iris" transform="matrix(0.791895,-1.11022e-16,1.11022e-16,0.791895,12.4688,-7.31689)">
                <path d="M48.344,-76.713C47.745,-76.713 47.345,-76.177 47.345,-75.624L47.345,-55.469C47.345,-54.912 47.745,-54.383 48.344,-54.383C49.033,-54.383 49.43,-54.912 49.43,-55.469L49.43,-75.624C49.43,-76.177 49.033,-76.713 48.344,-76.713ZM59.267,-75.363C58.539,-75.575 58.08,-75.122 57.913,-74.51L55.393,-65.807C55.184,-65.211 55.463,-64.658 56.061,-64.498C56.793,-64.292 57.343,-64.616 57.506,-65.302L59.844,-74.009C60.049,-74.702 59.771,-75.199 59.267,-75.363ZM69.164,-71.171C68.625,-71.446 67.97,-71.241 67.741,-70.701L57.639,-53.302C57.361,-52.759 57.437,-52.108 57.98,-51.834C58.561,-51.464 59.17,-51.719 59.445,-52.262L69.501,-69.657C69.822,-70.197 69.704,-70.802 69.164,-71.171ZM77.945,-64.489C77.465,-65.057 76.765,-64.917 76.334,-64.489L69.786,-58.21C69.302,-57.723 69.302,-57.166 69.741,-56.686C70.267,-56.16 70.917,-56.16 71.395,-56.641L77.76,-63.006C78.332,-63.585 78.335,-64.099 77.945,-64.489ZM84.359,-56.025C84.035,-56.474 83.426,-56.596 82.887,-56.272L65.491,-46.265C64.948,-45.941 64.694,-45.332 65.021,-44.792C65.338,-44.211 65.989,-44.086 66.486,-44.413L83.973,-54.466C84.467,-54.789 84.676,-55.395 84.359,-56.025ZM88.732,-45.765C88.526,-46.496 87.924,-46.736 87.336,-46.572L78.493,-44.41C77.849,-44.201 77.564,-43.745 77.692,-43.087C77.894,-42.38 78.479,-42.088 79.085,-42.206L87.83,-44.592C88.565,-44.756 88.847,-45.26 88.732,-45.765ZM89.939,-35.205C89.939,-35.804 89.406,-36.2 88.853,-36.2L68.698,-36.2C68.142,-36.2 67.612,-35.804 67.612,-35.205C67.612,-34.516 68.142,-34.119 68.698,-34.119L88.853,-34.119C89.406,-34.119 89.939,-34.516 89.939,-35.205ZM88.687,-24.139C88.896,-24.919 88.442,-25.378 87.837,-25.542L79.085,-28.113C78.486,-28.228 77.982,-27.992 77.776,-27.351C77.571,-26.62 77.943,-26.108 78.581,-25.903L87.284,-23.569C88.067,-23.36 88.523,-23.684 88.687,-24.139ZM84.401,-14.385C84.676,-14.921 84.467,-15.575 83.973,-15.808L66.532,-25.906C65.989,-26.234 65.338,-26.109 65.063,-25.572C64.694,-24.987 64.948,-24.379 65.491,-24.1L82.887,-14.047C83.426,-13.724 84.032,-13.845 84.401,-14.385ZM77.809,-5.467C78.38,-5.993 78.241,-6.654 77.816,-7.125L71.485,-13.717C71.005,-14.104 70.487,-14.114 69.957,-13.672C69.438,-13.146 69.487,-12.544 69.919,-12.018L76.285,-5.652C76.859,-5.078 77.465,-5.12 77.809,-5.467ZM69.21,0.807C69.704,0.486 69.822,-0.119 69.501,-0.662L59.445,-18.058C59.17,-18.601 58.561,-18.855 58.025,-18.531C57.437,-18.211 57.361,-17.56 57.639,-17.059L67.741,0.382C67.97,0.921 68.621,1.13 69.21,0.807ZM59.088,5.323C59.837,5.114 60.004,4.515 59.893,3.881L57.691,-5.014C57.482,-5.567 57.059,-5.845 56.376,-5.731C55.68,-5.564 55.408,-4.965 55.526,-4.331L57.874,4.417C58.041,5.149 58.57,5.389 59.088,5.323ZM48.344,6.394C49.033,6.394 49.43,5.857 49.43,5.304L49.43,-14.85C49.43,-15.407 49.033,-15.936 48.344,-15.936C47.745,-15.936 47.345,-15.407 47.345,-14.85L47.345,5.304C47.345,5.857 47.745,6.394 48.344,6.394ZM37.449,5.232C38.194,5.444 38.702,4.974 38.817,4.382L41.385,-4.324C41.59,-4.92 41.267,-5.473 40.671,-5.633C39.94,-5.838 39.39,-5.515 39.227,-4.829L36.889,3.881C36.68,4.616 36.941,5.062 37.449,5.232ZM27.614,0.807C28.15,1.13 28.805,0.921 29.08,0.382L39.136,-17.014C39.463,-17.56 39.338,-18.211 38.757,-18.531C38.217,-18.855 37.608,-18.601 37.33,-18.058L27.277,-0.662C26.953,-0.119 27.075,0.486 27.614,0.807ZM18.788,-5.649C19.272,-5.078 19.968,-5.214 20.396,-5.642L26.947,-11.92C27.427,-12.404 27.431,-12.961 26.996,-13.445C26.47,-13.967 25.812,-13.971 25.335,-13.49L18.973,-7.121C18.398,-6.546 18.395,-5.993 18.788,-5.649ZM12.377,-14.385C12.74,-13.845 13.349,-13.724 13.888,-14.047L31.284,-24.1C31.827,-24.379 32.081,-25.033 31.715,-25.569C31.437,-26.109 30.786,-26.234 30.243,-25.906L12.848,-15.808C12.308,-15.575 12.099,-14.924 12.377,-14.385ZM7.998,-24.373C8.203,-23.642 8.851,-23.409 9.397,-23.569L18.285,-25.721C18.887,-25.93 19.166,-26.386 19.047,-27.03C18.838,-27.758 18.243,-28.043 17.648,-27.883L8.948,-25.542C8.161,-25.333 7.883,-24.877 7.998,-24.373ZM6.836,-35.205C6.836,-34.516 7.369,-34.119 7.922,-34.119L28.08,-34.119C28.633,-34.119 29.166,-34.516 29.166,-35.205C29.166,-35.804 28.633,-36.2 28.08,-36.2L7.922,-36.2C7.369,-36.2 6.836,-35.804 6.836,-35.205ZM8.04,-45.988C7.837,-45.215 8.308,-44.71 8.896,-44.592L17.648,-41.979C18.247,-41.906 18.754,-42.146 18.953,-42.79C19.155,-43.518 18.796,-44.029 18.152,-44.235L9.446,-46.565C8.704,-46.774 8.196,-46.447 8.04,-45.988ZM12.423,-55.983C12.099,-55.398 12.308,-54.744 12.848,-54.466L30.243,-44.413C30.786,-44.086 31.437,-44.211 31.761,-44.792C32.081,-45.332 31.827,-45.941 31.284,-46.216L13.888,-56.272C13.349,-56.596 12.743,-56.474 12.423,-55.983ZM18.92,-64.67C18.349,-64.106 18.492,-63.49 18.924,-63.013L25.241,-56.424C25.725,-56.031 26.236,-56.027 26.765,-56.466C27.288,-56.985 27.249,-57.594 26.811,-58.123L20.445,-64.489C19.87,-65.064 19.314,-65.015 18.92,-64.67ZM27.66,-71.175C27.075,-70.806 26.953,-70.197 27.277,-69.657L37.284,-52.262C37.608,-51.719 38.217,-51.464 38.799,-51.834C39.338,-52.108 39.463,-52.759 39.136,-53.302L29.08,-70.701C28.759,-71.241 28.154,-71.446 27.66,-71.175ZM37.645,-75.461C36.91,-75.258 36.719,-74.628 36.84,-74.016L39.045,-65.079C39.251,-64.574 39.664,-64.296 40.367,-64.421C41.106,-64.588 41.328,-65.127 41.252,-65.813L38.862,-74.51C38.695,-75.3 38.152,-75.526 37.645,-75.461Z" style="fill:none;fill-rule:nonzero;stroke:black;stroke-width:0.5px;"/>
            </g>
        </g>
    </g>
</svg>
